<svg width="700" height="700" viewBox="0 0 700 700" fill="none" xmlns="http://www.w3.org/2000/svg">
<rect width="700" height="700" fill="#FF4000"/>
<path d="M440.896 231.455V286.852H247.235V231.455H440.896ZM299.17 146.511H368.187V481.898C368.187 495.286 370.187 505.366 374.188 512.136C378.189 518.753 383.344 523.293 389.653 525.755C396.116 528.063 403.118 529.217 410.658 529.217C416.198 529.217 421.045 528.833 425.2 528.063C429.355 527.294 432.587 526.678 434.895 526.217L447.359 583.23C443.358 584.769 437.665 586.308 430.278 587.847C422.892 589.539 413.659 590.463 402.58 590.616C384.421 590.924 367.494 587.693 351.798 580.922C336.102 574.151 323.407 563.687 313.712 549.53C304.018 535.373 299.17 517.599 299.17 496.21V146.511Z" fill="white"/>
</svg>
