<svg width="98" height="29" viewBox="0 0 98 29" fill="none" xmlns="http://www.w3.org/2000/svg">
<path d="M0.0653409 3.98508V0.181818H17.9844V3.98508H11.3047V22H6.74503V3.98508H0.0653409ZM25.8706 22.3196C24.2157 22.3196 22.7846 21.968 21.5772 21.2649C20.377 20.5547 19.4501 19.5675 18.7967 18.3033C18.1433 17.032 17.8166 15.5582 17.8166 13.8821C17.8166 12.1918 18.1433 10.7145 18.7967 9.45028C19.4501 8.17898 20.377 7.19176 21.5772 6.48864C22.7846 5.77841 24.2157 5.4233 25.8706 5.4233C27.5254 5.4233 28.9529 5.77841 30.1532 6.48864C31.3606 7.19176 32.291 8.17898 32.9444 9.45028C33.5978 10.7145 33.9245 12.1918 33.9245 13.8821C33.9245 15.5582 33.5978 17.032 32.9444 18.3033C32.291 19.5675 31.3606 20.5547 30.1532 21.2649C28.9529 21.968 27.5254 22.3196 25.8706 22.3196ZM25.8919 18.804C26.6447 18.804 27.2733 18.5909 27.7775 18.1648C28.2818 17.7315 28.6618 17.142 28.9174 16.3963C29.1802 15.6506 29.3116 14.8018 29.3116 13.8501C29.3116 12.8984 29.1802 12.0497 28.9174 11.304C28.6618 10.5582 28.2818 9.96875 27.7775 9.53551C27.2733 9.10227 26.6447 8.88565 25.8919 8.88565C25.1319 8.88565 24.4927 9.10227 23.9743 9.53551C23.4629 9.96875 23.0758 10.5582 22.813 11.304C22.5574 12.0497 22.4295 12.8984 22.4295 13.8501C22.4295 14.8018 22.5574 15.6506 22.813 16.3963C23.0758 17.142 23.4629 17.7315 23.9743 18.1648C24.4927 18.5909 25.1319 18.804 25.8919 18.804ZM44.2477 28.4773C42.7775 28.4773 41.5169 28.2749 40.4657 27.87C39.4217 27.4723 38.5907 26.929 37.9728 26.2401C37.3549 25.5511 36.9537 24.777 36.769 23.9176L40.9664 23.353C41.0943 23.6797 41.2967 23.9851 41.5737 24.2692C41.8507 24.5533 42.2164 24.7805 42.671 24.951C43.1326 25.1286 43.6937 25.2173 44.3542 25.2173C45.3414 25.2173 46.1547 24.9759 46.7939 24.4929C47.4402 24.017 47.7633 23.218 47.7633 22.0959V19.1023H47.5716C47.3727 19.5568 47.0744 19.9865 46.6767 20.3913C46.2789 20.7962 45.7676 21.1264 45.1426 21.3821C44.5176 21.6378 43.7718 21.7656 42.9054 21.7656C41.6767 21.7656 40.5581 21.4815 39.5495 20.9134C38.5481 20.3381 37.7491 19.4609 37.1525 18.282C36.563 17.0959 36.2683 15.5973 36.2683 13.7862C36.2683 11.9325 36.5701 10.3842 37.1738 9.14133C37.7775 7.89844 38.5801 6.96804 39.5815 6.35014C40.59 5.73224 41.6944 5.4233 42.8947 5.4233C43.8109 5.4233 44.5779 5.57955 45.1958 5.89205C45.8137 6.19744 46.3109 6.58097 46.6873 7.04261C47.0708 7.49716 47.3656 7.9446 47.5716 8.38494H47.742V5.63636H52.2484V22.1598C52.2484 23.5518 51.9075 24.7166 51.2257 25.6541C50.5439 26.5916 49.5993 27.2947 48.3919 27.7635C47.1916 28.2393 45.8102 28.4773 44.2477 28.4773ZM44.3436 18.3565C45.0751 18.3565 45.693 18.1754 46.1973 17.8132C46.7086 17.4439 47.0993 16.9183 47.3691 16.2365C47.6461 15.5476 47.7846 14.7237 47.7846 13.7649C47.7846 12.8061 47.6497 11.9751 47.3798 11.272C47.1099 10.5618 46.7193 10.0114 46.2079 9.62074C45.6966 9.23011 45.0751 9.0348 44.3436 9.0348C43.5978 9.0348 42.9693 9.23722 42.4579 9.64204C41.9466 10.0398 41.5595 10.5937 41.2967 11.304C41.0339 12.0142 40.9025 12.8345 40.9025 13.7649C40.9025 14.7095 41.0339 15.5263 41.2967 16.2152C41.5666 16.897 41.9537 17.4261 42.4579 17.8026C42.9693 18.1719 43.5978 18.3565 44.3436 18.3565ZM63.2321 28.4773C61.7619 28.4773 60.5012 28.2749 59.4501 27.87C58.4061 27.4723 57.5751 26.929 56.9572 26.2401C56.3393 25.5511 55.938 24.777 55.7534 23.9176L59.9508 23.353C60.0787 23.6797 60.2811 23.9851 60.5581 24.2692C60.835 24.5533 61.2008 24.7805 61.6554 24.951C62.117 25.1286 62.6781 25.2173 63.3386 25.2173C64.3258 25.2173 65.139 24.9759 65.7782 24.4929C66.4245 24.017 66.7477 23.218 66.7477 22.0959V19.1023H66.5559C66.3571 19.5568 66.0588 19.9865 65.661 20.3913C65.2633 20.7962 64.752 21.1264 64.127 21.3821C63.502 21.6378 62.7562 21.7656 61.8897 21.7656C60.661 21.7656 59.5424 21.4815 58.5339 20.9134C57.5325 20.3381 56.7335 19.4609 56.1369 18.282C55.5474 17.0959 55.2527 15.5973 55.2527 13.7862C55.2527 11.9325 55.5545 10.3842 56.1582 9.14133C56.7619 7.89844 57.5645 6.96804 58.5659 6.35014C59.5744 5.73224 60.6788 5.4233 61.8791 5.4233C62.7953 5.4233 63.5623 5.57955 64.1802 5.89205C64.7981 6.19744 65.2953 6.58097 65.6717 7.04261C66.0552 7.49716 66.35 7.9446 66.5559 8.38494H66.7264V5.63636H71.2328V22.1598C71.2328 23.5518 70.8919 24.7166 70.21 25.6541C69.5282 26.5916 68.5836 27.2947 67.3762 27.7635C66.176 28.2393 64.7946 28.4773 63.2321 28.4773ZM63.3279 18.3565C64.0595 18.3565 64.6774 18.1754 65.1816 17.8132C65.693 17.4439 66.0836 16.9183 66.3535 16.2365C66.6305 15.5476 66.769 14.7237 66.769 13.7649C66.769 12.8061 66.6341 11.9751 66.3642 11.272C66.0943 10.5618 65.7037 10.0114 65.1923 9.62074C64.6809 9.23011 64.0595 9.0348 63.3279 9.0348C62.5822 9.0348 61.9537 9.23722 61.4423 9.64204C60.9309 10.0398 60.5439 10.5937 60.2811 11.304C60.0183 12.0142 59.8869 12.8345 59.8869 13.7649C59.8869 14.7095 60.0183 15.5263 60.2811 16.2152C60.551 16.897 60.938 17.4261 61.4423 17.8026C61.9537 18.1719 62.5822 18.3565 63.3279 18.3565ZM79.3826 0.181818V22H74.8443V0.181818H79.3826ZM90.4755 22.3196C88.7923 22.3196 87.3434 21.9787 86.1289 21.2969C84.9215 20.608 83.9911 19.6349 83.3377 18.3778C82.6843 17.1136 82.3576 15.6186 82.3576 13.8928C82.3576 12.2095 82.6843 10.7322 83.3377 9.46094C83.9911 8.18963 84.9109 7.19886 86.0969 6.48864C87.2901 5.77841 88.6893 5.4233 90.2944 5.4233C91.3739 5.4233 92.3789 5.5973 93.3093 5.94531C94.2468 6.28622 95.0636 6.80114 95.7596 7.49006C96.4627 8.17898 97.0096 9.04545 97.4002 10.0895C97.7908 11.1264 97.9862 12.3409 97.9862 13.733V14.9794H84.1687V12.1669H93.7141C93.7141 11.5135 93.5721 10.9347 93.288 10.4304C93.0039 9.92614 92.6097 9.53196 92.1055 9.24787C91.6083 8.95668 91.0295 8.81108 90.369 8.81108C89.68 8.81108 89.0692 8.97088 88.5366 9.29048C88.011 9.60298 87.5991 10.0256 87.3008 10.5582C87.0025 11.0838 86.8498 11.6697 86.8427 12.3161V14.9901C86.8427 15.7997 86.9918 16.4993 87.2901 17.0888C87.5955 17.6783 88.0252 18.1328 88.5792 18.4524C89.1332 18.772 89.7901 18.9318 90.5501 18.9318C91.0543 18.9318 91.516 18.8608 91.935 18.7188C92.354 18.5767 92.7127 18.3636 93.011 18.0795C93.3093 17.7955 93.5366 17.4474 93.6928 17.0355L97.8903 17.3125C97.6772 18.321 97.2404 19.2017 96.5799 19.9545C95.9265 20.7003 95.0813 21.2827 94.0444 21.7017C93.0146 22.1136 91.8249 22.3196 90.4755 22.3196Z" fill="#3F3F3F"/>
</svg>
