<svg width="714" height="384" viewBox="0 0 714 384" fill="none" xmlns="http://www.w3.org/2000/svg">
<rect x="1.5" y="1.5" width="711" height="381" rx="3.5" fill="white" stroke="#2F2F2F" stroke-width="3"/>
<rect x="23" y="20" width="100" height="30" rx="3" fill="#7D7D7D"/>
<rect x="61" y="225" width="117" height="30" rx="3" fill="#FFC700"/>
<rect x="411" y="27" width="80" height="15" rx="3" fill="#DCDCDC"/>
<rect x="61" y="107" width="191" height="15" rx="3" fill="#DCDCDC"/>
<rect id="websiteImg" x="420" y="91" width="200" height="200" rx="3" fill="white"/>
<rect x="61" y="135" width="191" height="15" rx="3" fill="#DCDCDC"/>
<rect x="61" y="163" width="133" height="15" rx="3" fill="#DCDCDC"/>
<rect x="61" y="191" width="133" height="15" rx="3" fill="#DCDCDC"/>
<rect x="84" y="238" width="71" height="5" rx="2.5" fill="#3F3F3F"/>
<rect x="508" y="27" width="80" height="15" rx="3" fill="#DCDCDC"/>
<rect x="605" y="27" width="80" height="15" rx="3" fill="#DCDCDC"/>
</svg>
