<svg width="15" height="15" viewBox="0 0 15 15" fill="none" xmlns="http://www.w3.org/2000/svg">
<path d="M14.8506 4.5C14.8506 4.5 14.7041 3.46582 14.2529 3.01172C13.6816 2.41406 13.043 2.41113 12.75 2.37598C10.6523 2.22363 7.50293 2.22363 7.50293 2.22363H7.49707C7.49707 2.22363 4.34766 2.22363 2.25 2.37598C1.95703 2.41113 1.31836 2.41406 0.74707 3.01172C0.295898 3.46582 0.152344 4.5 0.152344 4.5C0.152344 4.5 0 5.71582 0 6.92871V8.06543C0 9.27832 0.149414 10.4941 0.149414 10.4941C0.149414 10.4941 0.295898 11.5283 0.744141 11.9824C1.31543 12.5801 2.06543 12.5596 2.39941 12.624C3.60059 12.7383 7.5 12.7734 7.5 12.7734C7.5 12.7734 10.6523 12.7676 12.75 12.6182C13.043 12.583 13.6816 12.5801 14.2529 11.9824C14.7041 11.5283 14.8506 10.4941 14.8506 10.4941C14.8506 10.4941 15 9.28125 15 8.06543V6.92871C15 5.71582 14.8506 4.5 14.8506 4.5ZM5.9502 9.44531V5.22949L10.002 7.34473L5.9502 9.44531Z" fill="#3F3F3F"/>
</svg>
