<svg width="375" height="812" viewBox="0 0 375 812" fill="none" xmlns="http://www.w3.org/2000/svg">
<g clip-path="url(#clip0_184_3883)">
<rect width="375" height="812" fill="white"/>
<rect width="375" height="252" transform="translate(0 122)" fill="white"/>
<g clip-path="url(#clip1_184_3883)">
<path d="M81.0832 161.8L72.9112 187H65.2792L60.4552 171.664L55.4152 187H47.7832L39.6112 161.8H46.9552L52.0312 177.892L57.3592 161.8H63.9112L68.9872 178.036L74.2792 161.8H81.0832ZM91.6638 187.324C89.5758 187.324 87.6918 186.892 86.0118 186.028C84.3318 185.164 83.0118 183.964 82.0518 182.428C81.1158 180.892 80.6478 179.152 80.6478 177.208C80.6478 175.288 81.1158 173.56 82.0518 172.024C83.0118 170.488 84.3198 169.3 85.9758 168.46C87.6558 167.596 89.5518 167.164 91.6638 167.164C93.7758 167.164 95.6718 167.596 97.3518 168.46C99.0318 169.3 100.34 170.488 101.276 172.024C102.212 173.536 102.68 175.264 102.68 177.208C102.68 179.152 102.212 180.892 101.276 182.428C100.34 183.964 99.0318 185.164 97.3518 186.028C95.6718 186.892 93.7758 187.324 91.6638 187.324ZM91.6638 181.888C92.8638 181.888 93.8478 181.48 94.6158 180.664C95.3838 179.824 95.7678 178.672 95.7678 177.208C95.7678 175.768 95.3838 174.64 94.6158 173.824C93.8478 173.008 92.8638 172.6 91.6638 172.6C90.4638 172.6 89.4798 173.008 88.7118 173.824C87.9438 174.64 87.5598 175.768 87.5598 177.208C87.5598 178.672 87.9438 179.824 88.7118 180.664C89.4798 181.48 90.4638 181.888 91.6638 181.888ZM112.364 169.828C113.06 168.94 113.96 168.28 115.064 167.848C116.192 167.392 117.476 167.164 118.916 167.164V173.32C118.292 173.248 117.776 173.212 117.368 173.212C115.904 173.212 114.752 173.608 113.912 174.4C113.096 175.192 112.688 176.404 112.688 178.036V187H105.848V167.488H112.364V169.828ZM130.595 180.16L128.579 182.212V187H121.739V160.288H128.579V174.292L135.563 167.488H143.663L135.563 175.84L144.347 187H136.067L130.595 180.16ZM189.223 167.488L182.275 187H175.651L171.979 176.38L168.163 187H161.539L154.591 167.488H161.071L165.067 179.296L169.207 167.488H175.039L179.071 179.404L183.211 167.488H189.223ZM191.313 167.488H198.153V187H191.313V167.488ZM194.733 165.328C193.485 165.328 192.477 164.98 191.709 164.284C190.941 163.588 190.557 162.724 190.557 161.692C190.557 160.66 190.941 159.796 191.709 159.1C192.477 158.404 193.485 158.056 194.733 158.056C195.981 158.056 196.989 158.392 197.757 159.064C198.525 159.712 198.909 160.552 198.909 161.584C198.909 162.664 198.525 163.564 197.757 164.284C196.989 164.98 195.981 165.328 194.733 165.328ZM216.062 186.208C215.486 186.568 214.778 186.844 213.938 187.036C213.122 187.228 212.246 187.324 211.31 187.324C208.766 187.324 206.81 186.7 205.442 185.452C204.074 184.204 203.39 182.344 203.39 179.872V173.32H200.546V168.208H203.39V163.132H210.23V168.208H214.694V173.32H210.23V179.8C210.23 180.496 210.41 181.048 210.77 181.456C211.154 181.84 211.658 182.032 212.282 182.032C213.074 182.032 213.77 181.828 214.37 181.42L216.062 186.208ZM231.408 167.164C233.832 167.164 235.776 167.884 237.24 169.324C238.728 170.764 239.472 172.936 239.472 175.84V187H232.632V176.956C232.632 174.292 231.564 172.96 229.428 172.96C228.252 172.96 227.304 173.344 226.584 174.112C225.888 174.88 225.54 176.032 225.54 177.568V187H218.7V160.288H225.54V169.288C226.284 168.592 227.16 168.064 228.168 167.704C229.176 167.344 230.256 167.164 231.408 167.164ZM266.519 167.164C268.295 167.164 269.903 167.572 271.343 168.388C272.807 169.204 273.959 170.38 274.799 171.916C275.663 173.428 276.095 175.192 276.095 177.208C276.095 179.224 275.663 181 274.799 182.536C273.959 184.072 272.807 185.26 271.343 186.1C269.903 186.916 268.295 187.324 266.519 187.324C263.951 187.324 262.031 186.568 260.759 185.056V187H254.243V160.288H261.083V169.18C262.403 167.836 264.215 167.164 266.519 167.164ZM265.079 181.888C266.279 181.888 267.263 181.48 268.031 180.664C268.799 179.824 269.183 178.672 269.183 177.208C269.183 175.768 268.799 174.64 268.031 173.824C267.263 173.008 266.279 172.6 265.079 172.6C263.879 172.6 262.895 173.008 262.127 173.824C261.359 174.64 260.975 175.768 260.975 177.208C260.975 178.672 261.359 179.824 262.127 180.664C262.895 181.48 263.879 181.888 265.079 181.888ZM299.218 177.28C299.218 177.328 299.182 177.892 299.11 178.972H284.926C285.214 179.98 285.766 180.76 286.582 181.312C287.422 181.84 288.466 182.104 289.714 182.104C290.65 182.104 291.454 181.972 292.126 181.708C292.822 181.444 293.518 181.012 294.214 180.412L297.814 184.156C295.918 186.268 293.146 187.324 289.498 187.324C287.218 187.324 285.214 186.892 283.486 186.028C281.758 185.164 280.414 183.964 279.454 182.428C278.518 180.892 278.05 179.152 278.05 177.208C278.05 175.288 278.506 173.572 279.418 172.06C280.354 170.524 281.638 169.324 283.27 168.46C284.902 167.596 286.738 167.164 288.778 167.164C290.722 167.164 292.486 167.572 294.07 168.388C295.654 169.18 296.902 170.344 297.814 171.88C298.75 173.392 299.218 175.192 299.218 177.28ZM288.814 172.024C287.758 172.024 286.87 172.324 286.15 172.924C285.454 173.524 285.01 174.34 284.818 175.372H292.81C292.618 174.34 292.162 173.524 291.442 172.924C290.746 172.324 289.87 172.024 288.814 172.024ZM309.464 187.324C307.832 187.324 306.224 187.144 304.64 186.784C303.056 186.4 301.784 185.908 300.824 185.308L302.876 180.628C303.764 181.18 304.82 181.624 306.044 181.96C307.268 182.272 308.48 182.428 309.68 182.428C310.784 182.428 311.564 182.32 312.02 182.104C312.5 181.864 312.74 181.528 312.74 181.096C312.74 180.664 312.452 180.364 311.876 180.196C311.324 180.004 310.436 179.824 309.212 179.656C307.652 179.464 306.32 179.212 305.216 178.9C304.136 178.588 303.2 178.012 302.408 177.172C301.616 176.332 301.22 175.156 301.22 173.644C301.22 172.396 301.592 171.292 302.336 170.332C303.08 169.348 304.16 168.58 305.576 168.028C307.016 167.452 308.732 167.164 310.724 167.164C312.14 167.164 313.544 167.308 314.936 167.596C316.328 167.884 317.492 168.292 318.428 168.82L316.376 173.464C314.648 172.504 312.776 172.024 310.76 172.024C309.68 172.024 308.888 172.156 308.384 172.42C307.88 172.66 307.628 172.984 307.628 173.392C307.628 173.848 307.904 174.172 308.456 174.364C309.008 174.532 309.92 174.712 311.192 174.904C312.8 175.144 314.132 175.42 315.188 175.732C316.244 176.044 317.156 176.62 317.924 177.46C318.716 178.276 319.112 179.428 319.112 180.916C319.112 182.14 318.74 183.244 317.996 184.228C317.252 185.188 316.148 185.944 314.684 186.496C313.244 187.048 311.504 187.324 309.464 187.324ZM335.523 186.208C334.947 186.568 334.239 186.844 333.399 187.036C332.583 187.228 331.707 187.324 330.771 187.324C328.227 187.324 326.271 186.7 324.903 185.452C323.535 184.204 322.851 182.344 322.851 179.872V173.32H320.007V168.208H322.851V163.132H329.691V168.208H334.155V173.32H329.691V179.8C329.691 180.496 329.871 181.048 330.231 181.456C330.615 181.84 331.119 182.032 331.743 182.032C332.535 182.032 333.231 181.828 333.831 181.42L335.523 186.208ZM116.108 200.288V227H109.592V225.056C108.32 226.568 106.412 227.324 103.868 227.324C102.092 227.324 100.472 226.916 99.0078 226.1C97.5438 225.26 96.3798 224.072 95.5158 222.536C94.6758 221 94.2558 219.224 94.2558 217.208C94.2558 215.192 94.6758 213.428 95.5158 211.916C96.3798 210.38 97.5438 209.204 99.0078 208.388C100.472 207.572 102.092 207.164 103.868 207.164C106.196 207.164 107.996 207.836 109.268 209.18V200.288H116.108ZM105.308 221.888C106.484 221.888 107.456 221.48 108.224 220.664C108.992 219.824 109.376 218.672 109.376 217.208C109.376 215.768 108.992 214.64 108.224 213.824C107.48 213.008 106.508 212.6 105.308 212.6C104.108 212.6 103.124 213.008 102.356 213.824C101.588 214.64 101.204 215.768 101.204 217.208C101.204 218.672 101.588 219.824 102.356 220.664C103.124 221.48 104.108 221.888 105.308 221.888ZM140.453 217.28C140.453 217.328 140.417 217.892 140.345 218.972H126.161C126.449 219.98 127.001 220.76 127.816 221.312C128.657 221.84 129.701 222.104 130.949 222.104C131.885 222.104 132.689 221.972 133.361 221.708C134.057 221.444 134.753 221.012 135.449 220.412L139.049 224.156C137.153 226.268 134.381 227.324 130.733 227.324C128.453 227.324 126.449 226.892 124.721 226.028C122.993 225.164 121.649 223.964 120.688 222.428C119.753 220.892 119.285 219.152 119.285 217.208C119.285 215.288 119.741 213.572 120.653 212.06C121.589 210.524 122.873 209.324 124.505 208.46C126.137 207.596 127.973 207.164 130.013 207.164C131.957 207.164 133.721 207.572 135.305 208.388C136.889 209.18 138.137 210.344 139.049 211.88C139.985 213.392 140.453 215.192 140.453 217.28ZM130.049 212.024C128.993 212.024 128.105 212.324 127.385 212.924C126.689 213.524 126.245 214.34 126.053 215.372H134.045C133.853 214.34 133.397 213.524 132.677 212.924C131.981 212.324 131.105 212.024 130.049 212.024ZM150.698 227.324C149.066 227.324 147.458 227.144 145.874 226.784C144.29 226.4 143.018 225.908 142.058 225.308L144.11 220.628C144.998 221.18 146.054 221.624 147.278 221.96C148.502 222.272 149.714 222.428 150.914 222.428C152.018 222.428 152.798 222.32 153.254 222.104C153.734 221.864 153.974 221.528 153.974 221.096C153.974 220.664 153.686 220.364 153.11 220.196C152.558 220.004 151.67 219.824 150.446 219.656C148.886 219.464 147.554 219.212 146.45 218.9C145.37 218.588 144.434 218.012 143.642 217.172C142.85 216.332 142.454 215.156 142.454 213.644C142.454 212.396 142.826 211.292 143.57 210.332C144.314 209.348 145.394 208.58 146.81 208.028C148.25 207.452 149.966 207.164 151.958 207.164C153.374 207.164 154.778 207.308 156.17 207.596C157.562 207.884 158.726 208.292 159.662 208.82L157.61 213.464C155.882 212.504 154.01 212.024 151.994 212.024C150.914 212.024 150.122 212.156 149.618 212.42C149.114 212.66 148.862 212.984 148.862 213.392C148.862 213.848 149.138 214.172 149.69 214.364C150.242 214.532 151.154 214.712 152.426 214.904C154.034 215.144 155.366 215.42 156.422 215.732C157.478 216.044 158.39 216.62 159.158 217.46C159.95 218.276 160.346 219.428 160.346 220.916C160.346 222.14 159.974 223.244 159.23 224.228C158.486 225.188 157.382 225.944 155.918 226.496C154.478 227.048 152.738 227.324 150.698 227.324ZM163.294 207.488H170.134V227H163.294V207.488ZM166.714 205.328C165.466 205.328 164.458 204.98 163.69 204.284C162.922 203.588 162.538 202.724 162.538 201.692C162.538 200.66 162.922 199.796 163.69 199.1C164.458 198.404 165.466 198.056 166.714 198.056C167.962 198.056 168.97 198.392 169.738 199.064C170.506 199.712 170.89 200.552 170.89 201.584C170.89 202.664 170.506 203.564 169.738 204.284C168.97 204.98 167.962 205.328 166.714 205.328ZM195.567 207.488V223.436C195.567 227.06 194.583 229.772 192.615 231.572C190.647 233.396 187.815 234.308 184.119 234.308C182.199 234.308 180.399 234.092 178.719 233.66C177.039 233.228 175.611 232.592 174.435 231.752L176.919 226.964C177.711 227.612 178.707 228.116 179.907 228.476C181.131 228.86 182.331 229.052 183.507 229.052C185.307 229.052 186.627 228.656 187.467 227.864C188.307 227.072 188.727 225.896 188.727 224.336V223.688C187.407 225.224 185.475 225.992 182.931 225.992C181.203 225.992 179.607 225.608 178.143 224.84C176.679 224.048 175.515 222.944 174.651 221.528C173.787 220.088 173.355 218.432 173.355 216.56C173.355 214.712 173.787 213.08 174.651 211.664C175.515 210.224 176.679 209.12 178.143 208.352C179.607 207.56 181.203 207.164 182.931 207.164C185.715 207.164 187.755 208.064 189.051 209.864V207.488H195.567ZM184.551 220.556C185.775 220.556 186.783 220.184 187.575 219.44C188.391 218.696 188.799 217.736 188.799 216.56C188.799 215.384 188.403 214.436 187.611 213.716C186.819 212.972 185.799 212.6 184.551 212.6C183.303 212.6 182.271 212.972 181.455 213.716C180.663 214.436 180.267 215.384 180.267 216.56C180.267 217.736 180.675 218.696 181.491 219.44C182.307 220.184 183.327 220.556 184.551 220.556ZM212.67 207.164C215.094 207.164 217.038 207.884 218.502 209.324C219.99 210.764 220.734 212.936 220.734 215.84V227H213.894V216.956C213.894 214.292 212.826 212.96 210.69 212.96C209.514 212.96 208.566 213.344 207.846 214.112C207.15 214.88 206.802 216.032 206.802 217.568V227H199.962V207.488H206.478V209.612C207.246 208.82 208.158 208.22 209.214 207.812C210.27 207.38 211.422 207.164 212.67 207.164ZM245.253 217.28C245.253 217.328 245.217 217.892 245.145 218.972H230.961C231.249 219.98 231.801 220.76 232.617 221.312C233.457 221.84 234.501 222.104 235.749 222.104C236.685 222.104 237.489 221.972 238.161 221.708C238.857 221.444 239.553 221.012 240.249 220.412L243.849 224.156C241.953 226.268 239.181 227.324 235.533 227.324C233.253 227.324 231.249 226.892 229.521 226.028C227.793 225.164 226.449 223.964 225.489 222.428C224.553 220.892 224.085 219.152 224.085 217.208C224.085 215.288 224.541 213.572 225.453 212.06C226.389 210.524 227.673 209.324 229.305 208.46C230.937 207.596 232.773 207.164 234.813 207.164C236.757 207.164 238.521 207.572 240.105 208.388C241.689 209.18 242.937 210.344 243.849 211.88C244.785 213.392 245.253 215.192 245.253 217.28ZM234.849 212.024C233.793 212.024 232.905 212.324 232.185 212.924C231.489 213.524 231.045 214.34 230.853 215.372H238.845C238.653 214.34 238.197 213.524 237.477 212.924C236.781 212.324 235.905 212.024 234.849 212.024ZM254.923 209.828C255.619 208.94 256.519 208.28 257.623 207.848C258.751 207.392 260.035 207.164 261.475 207.164V213.32C260.851 213.248 260.335 213.212 259.927 213.212C258.463 213.212 257.311 213.608 256.471 214.4C255.655 215.192 255.247 216.404 255.247 218.036V227H248.407V207.488H254.923V209.828ZM271.425 227.324C269.793 227.324 268.185 227.144 266.601 226.784C265.017 226.4 263.745 225.908 262.785 225.308L264.837 220.628C265.725 221.18 266.781 221.624 268.005 221.96C269.229 222.272 270.441 222.428 271.641 222.428C272.745 222.428 273.525 222.32 273.981 222.104C274.461 221.864 274.701 221.528 274.701 221.096C274.701 220.664 274.413 220.364 273.837 220.196C273.285 220.004 272.397 219.824 271.173 219.656C269.613 219.464 268.281 219.212 267.177 218.9C266.097 218.588 265.161 218.012 264.369 217.172C263.577 216.332 263.181 215.156 263.181 213.644C263.181 212.396 263.553 211.292 264.297 210.332C265.041 209.348 266.121 208.58 267.537 208.028C268.977 207.452 270.693 207.164 272.685 207.164C274.101 207.164 275.505 207.308 276.897 207.596C278.289 207.884 279.453 208.292 280.389 208.82L278.337 213.464C276.609 212.504 274.737 212.024 272.721 212.024C271.641 212.024 270.849 212.156 270.345 212.42C269.841 212.66 269.589 212.984 269.589 213.392C269.589 213.848 269.865 214.172 270.417 214.364C270.969 214.532 271.881 214.712 273.153 214.904C274.761 215.144 276.093 215.42 277.149 215.732C278.205 216.044 279.117 216.62 279.885 217.46C280.677 218.276 281.073 219.428 281.073 220.916C281.073 222.14 280.701 223.244 279.957 224.228C279.213 225.188 278.109 225.944 276.645 226.496C275.205 227.048 273.465 227.324 271.425 227.324Z" fill="#18191F"/>
<path d="M63.1664 265.3L58.2524 280H56.0474L52.0364 268.261L48.0254 280H45.7784L40.8644 265.3H43.0274L46.9964 277.249L51.1334 265.3H53.0654L57.1184 277.312L61.1714 265.3H63.1664ZM65.4618 268.87H67.4778V280H65.4618V268.87ZM66.4698 266.728C66.0778 266.728 65.7488 266.602 65.4828 266.35C65.2308 266.098 65.1048 265.79 65.1048 265.426C65.1048 265.062 65.2308 264.754 65.4828 264.502C65.7488 264.236 66.0778 264.103 66.4698 264.103C66.8618 264.103 67.1838 264.229 67.4358 264.481C67.7018 264.719 67.8348 265.02 67.8348 265.384C67.8348 265.762 67.7018 266.084 67.4358 266.35C67.1838 266.602 66.8618 266.728 66.4698 266.728ZM73.259 270.739C73.609 270.095 74.127 269.605 74.813 269.269C75.499 268.933 76.332 268.765 77.312 268.765V270.718C77.2 270.704 77.046 270.697 76.85 270.697C75.758 270.697 74.897 271.026 74.267 271.684C73.651 272.328 73.343 273.252 73.343 274.456V280H71.327V268.87H73.259V270.739ZM89.7532 274.498C89.7532 274.652 89.7392 274.855 89.7112 275.107H80.6812C80.8072 276.087 81.2342 276.878 81.9622 277.48C82.7042 278.068 83.6212 278.362 84.7132 278.362C86.0432 278.362 87.1142 277.914 87.9262 277.018L89.0392 278.32C88.5352 278.908 87.9052 279.356 87.1492 279.664C86.4072 279.972 85.5742 280.126 84.6502 280.126C83.4742 280.126 82.4312 279.888 81.5212 279.412C80.6112 278.922 79.9042 278.243 79.4002 277.375C78.9102 276.507 78.6652 275.527 78.6652 274.435C78.6652 273.357 78.9032 272.384 79.3792 271.516C79.8692 270.648 80.5342 269.976 81.3742 269.5C82.2282 269.01 83.1872 268.765 84.2512 268.765C85.3152 268.765 86.2602 269.01 87.0862 269.5C87.9262 269.976 88.5772 270.648 89.0392 271.516C89.5152 272.384 89.7532 273.378 89.7532 274.498ZM84.2512 270.466C83.2852 270.466 82.4732 270.76 81.8152 271.348C81.1712 271.936 80.7932 272.706 80.6812 273.658H87.8212C87.7092 272.72 87.3242 271.957 86.6662 271.369C86.0222 270.767 85.2172 270.466 84.2512 270.466ZM96.6266 265.951C95.4226 265.951 94.8206 266.602 94.8206 267.904V268.87H98.0546V270.529H94.8626V280H92.8466V270.529H90.9566V268.87H92.8466V267.883C92.8466 266.777 93.1686 265.902 93.8126 265.258C94.4566 264.614 95.3596 264.292 96.5216 264.292C96.9696 264.292 97.3896 264.348 97.7816 264.46C98.1736 264.572 98.5096 264.733 98.7896 264.943L98.1806 266.476C97.7186 266.126 97.2006 265.951 96.6266 265.951ZM103.57 270.739C103.92 270.095 104.438 269.605 105.124 269.269C105.81 268.933 106.643 268.765 107.623 268.765V270.718C107.511 270.704 107.357 270.697 107.161 270.697C106.069 270.697 105.208 271.026 104.578 271.684C103.962 272.328 103.654 273.252 103.654 274.456V280H101.638V268.87H103.57V270.739ZM114.14 268.765C115.68 268.765 116.856 269.143 117.668 269.899C118.494 270.655 118.907 271.782 118.907 273.28V280H116.996V278.53C116.66 279.048 116.177 279.447 115.547 279.727C114.931 279.993 114.196 280.126 113.342 280.126C112.096 280.126 111.095 279.825 110.339 279.223C109.597 278.621 109.226 277.83 109.226 276.85C109.226 275.87 109.583 275.086 110.297 274.498C111.011 273.896 112.145 273.595 113.699 273.595H116.891V273.196C116.891 272.328 116.639 271.663 116.135 271.201C115.631 270.739 114.889 270.508 113.909 270.508C113.251 270.508 112.607 270.62 111.977 270.844C111.347 271.054 110.815 271.341 110.381 271.705L109.541 270.193C110.115 269.731 110.801 269.381 111.599 269.143C112.397 268.891 113.244 268.765 114.14 268.765ZM113.678 278.572C114.448 278.572 115.113 278.404 115.673 278.068C116.233 277.718 116.639 277.228 116.891 276.598V275.044H113.783C112.075 275.044 111.221 275.618 111.221 276.766C111.221 277.326 111.438 277.767 111.872 278.089C112.306 278.411 112.908 278.572 113.678 278.572ZM136.561 268.765C137.961 268.765 139.067 269.171 139.879 269.983C140.705 270.795 141.118 271.999 141.118 273.595V280H139.102V273.826C139.102 272.748 138.85 271.936 138.346 271.39C137.856 270.844 137.149 270.571 136.225 270.571C135.203 270.571 134.391 270.893 133.789 271.537C133.187 272.167 132.886 273.077 132.886 274.267V280H130.87V273.826C130.87 272.748 130.618 271.936 130.114 271.39C129.624 270.844 128.917 270.571 127.993 270.571C126.971 270.571 126.159 270.893 125.557 271.537C124.955 272.167 124.654 273.077 124.654 274.267V280H122.638V268.87H124.57V270.529C124.976 269.955 125.508 269.521 126.166 269.227C126.824 268.919 127.573 268.765 128.413 268.765C129.281 268.765 130.051 268.94 130.723 269.29C131.395 269.64 131.913 270.151 132.277 270.823C132.697 270.179 133.278 269.675 134.02 269.311C134.776 268.947 135.623 268.765 136.561 268.765ZM154.948 274.498C154.948 274.652 154.934 274.855 154.906 275.107H145.876C146.002 276.087 146.429 276.878 147.157 277.48C147.899 278.068 148.816 278.362 149.908 278.362C151.238 278.362 152.309 277.914 153.121 277.018L154.234 278.32C153.73 278.908 153.1 279.356 152.344 279.664C151.602 279.972 150.769 280.126 149.845 280.126C148.669 280.126 147.626 279.888 146.716 279.412C145.806 278.922 145.099 278.243 144.595 277.375C144.105 276.507 143.86 275.527 143.86 274.435C143.86 273.357 144.098 272.384 144.574 271.516C145.064 270.648 145.729 269.976 146.569 269.5C147.423 269.01 148.382 268.765 149.446 268.765C150.51 268.765 151.455 269.01 152.281 269.5C153.121 269.976 153.772 270.648 154.234 271.516C154.71 272.384 154.948 273.378 154.948 274.498ZM149.446 270.466C148.48 270.466 147.668 270.76 147.01 271.348C146.366 271.936 145.988 272.706 145.876 273.658H153.016C152.904 272.72 152.519 271.957 151.861 271.369C151.217 270.767 150.412 270.466 149.446 270.466ZM163.387 268.87H165.403V280H163.387V268.87ZM164.395 266.728C164.003 266.728 163.674 266.602 163.408 266.35C163.156 266.098 163.03 265.79 163.03 265.426C163.03 265.062 163.156 264.754 163.408 264.502C163.674 264.236 164.003 264.103 164.395 264.103C164.787 264.103 165.109 264.229 165.361 264.481C165.627 264.719 165.76 265.02 165.76 265.384C165.76 265.762 165.627 266.084 165.361 266.35C165.109 266.602 164.787 266.728 164.395 266.728ZM172.444 280.126C171.534 280.126 170.659 280.007 169.819 279.769C168.979 279.517 168.321 279.202 167.845 278.824L168.685 277.228C169.175 277.578 169.77 277.858 170.47 278.068C171.17 278.278 171.877 278.383 172.591 278.383C174.355 278.383 175.237 277.879 175.237 276.871C175.237 276.535 175.118 276.269 174.88 276.073C174.642 275.877 174.341 275.737 173.977 275.653C173.627 275.555 173.123 275.45 172.465 275.338C171.569 275.198 170.834 275.037 170.26 274.855C169.7 274.673 169.217 274.365 168.811 273.931C168.405 273.497 168.202 272.888 168.202 272.104C168.202 271.096 168.622 270.291 169.462 269.689C170.302 269.073 171.429 268.765 172.843 268.765C173.585 268.765 174.327 268.856 175.069 269.038C175.811 269.22 176.42 269.465 176.896 269.773L176.035 271.369C175.125 270.781 174.054 270.487 172.822 270.487C171.968 270.487 171.317 270.627 170.869 270.907C170.421 271.187 170.197 271.558 170.197 272.02C170.197 272.384 170.323 272.671 170.575 272.881C170.827 273.091 171.135 273.245 171.499 273.343C171.877 273.441 172.402 273.553 173.074 273.679C173.97 273.833 174.691 274.001 175.237 274.183C175.797 274.351 176.273 274.645 176.665 275.065C177.057 275.485 177.253 276.073 177.253 276.829C177.253 277.837 176.819 278.642 175.951 279.244C175.097 279.832 173.928 280.126 172.444 280.126ZM188.604 280.126C187.694 280.126 186.819 280.007 185.979 279.769C185.139 279.517 184.481 279.202 184.005 278.824L184.845 277.228C185.335 277.578 185.93 277.858 186.63 278.068C187.33 278.278 188.037 278.383 188.751 278.383C190.515 278.383 191.397 277.879 191.397 276.871C191.397 276.535 191.278 276.269 191.04 276.073C190.802 275.877 190.501 275.737 190.137 275.653C189.787 275.555 189.283 275.45 188.625 275.338C187.729 275.198 186.994 275.037 186.42 274.855C185.86 274.673 185.377 274.365 184.971 273.931C184.565 273.497 184.362 272.888 184.362 272.104C184.362 271.096 184.782 270.291 185.622 269.689C186.462 269.073 187.589 268.765 189.003 268.765C189.745 268.765 190.487 268.856 191.229 269.038C191.971 269.22 192.58 269.465 193.056 269.773L192.195 271.369C191.285 270.781 190.214 270.487 188.982 270.487C188.128 270.487 187.477 270.627 187.029 270.907C186.581 271.187 186.357 271.558 186.357 272.02C186.357 272.384 186.483 272.671 186.735 272.881C186.987 273.091 187.295 273.245 187.659 273.343C188.037 273.441 188.562 273.553 189.234 273.679C190.13 273.833 190.851 274.001 191.397 274.183C191.957 274.351 192.433 274.645 192.825 275.065C193.217 275.485 193.413 276.073 193.413 276.829C193.413 277.837 192.979 278.642 192.111 279.244C191.257 279.832 190.088 280.126 188.604 280.126ZM202.19 279.349C201.896 279.601 201.532 279.797 201.098 279.937C200.664 280.063 200.216 280.126 199.754 280.126C198.634 280.126 197.766 279.825 197.15 279.223C196.534 278.621 196.226 277.76 196.226 276.64V270.529H194.336V268.87H196.226V266.434H198.242V268.87H201.434V270.529H198.242V276.556C198.242 277.158 198.389 277.62 198.683 277.942C198.991 278.264 199.425 278.425 199.985 278.425C200.601 278.425 201.126 278.25 201.56 277.9L202.19 279.349ZM204.628 268.87H206.644V280H204.628V268.87ZM205.636 266.728C205.244 266.728 204.915 266.602 204.649 266.35C204.397 266.098 204.271 265.79 204.271 265.426C204.271 265.062 204.397 264.754 204.649 264.502C204.915 264.236 205.244 264.103 205.636 264.103C206.028 264.103 206.35 264.229 206.602 264.481C206.868 264.719 207.001 265.02 207.001 265.384C207.001 265.762 206.868 266.084 206.602 266.35C206.35 266.602 206.028 266.728 205.636 266.728ZM210.493 264.418H212.509V280H210.493V264.418ZM216.358 264.418H218.374V280H216.358V264.418ZM227.863 268.87H229.879V280H227.863V268.87ZM228.871 266.728C228.479 266.728 228.15 266.602 227.884 266.35C227.632 266.098 227.506 265.79 227.506 265.426C227.506 265.062 227.632 264.754 227.884 264.502C228.15 264.236 228.479 264.103 228.871 264.103C229.263 264.103 229.585 264.229 229.837 264.481C230.103 264.719 230.236 265.02 230.236 265.384C230.236 265.762 230.103 266.084 229.837 266.35C229.585 266.602 229.263 266.728 228.871 266.728ZM247.651 268.765C249.051 268.765 250.157 269.171 250.969 269.983C251.795 270.795 252.208 271.999 252.208 273.595V280H250.192V273.826C250.192 272.748 249.94 271.936 249.436 271.39C248.946 270.844 248.239 270.571 247.315 270.571C246.293 270.571 245.481 270.893 244.879 271.537C244.277 272.167 243.976 273.077 243.976 274.267V280H241.96V273.826C241.96 272.748 241.708 271.936 241.204 271.39C240.714 270.844 240.007 270.571 239.083 270.571C238.061 270.571 237.249 270.893 236.647 271.537C236.045 272.167 235.744 273.077 235.744 274.267V280H233.728V268.87H235.66V270.529C236.066 269.955 236.598 269.521 237.256 269.227C237.914 268.919 238.663 268.765 239.503 268.765C240.371 268.765 241.141 268.94 241.813 269.29C242.485 269.64 243.003 270.151 243.367 270.823C243.787 270.179 244.368 269.675 245.11 269.311C245.866 268.947 246.713 268.765 247.651 268.765ZM261.819 268.765C262.897 268.765 263.863 269.003 264.717 269.479C265.571 269.955 266.236 270.62 266.712 271.474C267.202 272.328 267.447 273.315 267.447 274.435C267.447 275.555 267.202 276.549 266.712 277.417C266.236 278.271 265.571 278.936 264.717 279.412C263.863 279.888 262.897 280.126 261.819 280.126C261.021 280.126 260.286 279.972 259.614 279.664C258.956 279.356 258.396 278.908 257.934 278.32V284.074H255.918V268.87H257.85V270.634C258.298 270.018 258.865 269.556 259.551 269.248C260.237 268.926 260.993 268.765 261.819 268.765ZM261.651 278.362C262.365 278.362 263.002 278.201 263.562 277.879C264.136 277.543 264.584 277.081 264.906 276.493C265.242 275.891 265.41 275.205 265.41 274.435C265.41 273.665 265.242 272.986 264.906 272.398C264.584 271.796 264.136 271.334 263.562 271.012C263.002 270.69 262.365 270.529 261.651 270.529C260.951 270.529 260.314 270.697 259.74 271.033C259.18 271.355 258.732 271.81 258.396 272.398C258.074 272.986 257.913 273.665 257.913 274.435C257.913 275.205 258.074 275.891 258.396 276.493C258.718 277.081 259.166 277.543 259.74 277.879C260.314 278.201 260.951 278.362 261.651 278.362ZM274.999 280.126C273.893 280.126 272.899 279.881 272.017 279.391C271.135 278.901 270.442 278.229 269.938 277.375C269.448 276.507 269.203 275.527 269.203 274.435C269.203 273.343 269.448 272.37 269.938 271.516C270.442 270.648 271.135 269.976 272.017 269.5C272.899 269.01 273.893 268.765 274.999 268.765C276.105 268.765 277.092 269.01 277.96 269.5C278.842 269.976 279.528 270.648 280.018 271.516C280.522 272.37 280.774 273.343 280.774 274.435C280.774 275.527 280.522 276.507 280.018 277.375C279.528 278.229 278.842 278.901 277.96 279.391C277.092 279.881 276.105 280.126 274.999 280.126ZM274.999 278.362C275.713 278.362 276.35 278.201 276.91 277.879C277.484 277.543 277.932 277.081 278.254 276.493C278.576 275.891 278.737 275.205 278.737 274.435C278.737 273.665 278.576 272.986 278.254 272.398C277.932 271.796 277.484 271.334 276.91 271.012C276.35 270.69 275.713 270.529 274.999 270.529C274.285 270.529 273.641 270.69 273.067 271.012C272.507 271.334 272.059 271.796 271.723 272.398C271.401 272.986 271.24 273.665 271.24 274.435C271.24 275.205 271.401 275.891 271.723 276.493C272.059 277.081 272.507 277.543 273.067 277.879C273.641 278.201 274.285 278.362 274.999 278.362ZM285.494 270.739C285.844 270.095 286.362 269.605 287.048 269.269C287.734 268.933 288.567 268.765 289.547 268.765V270.718C289.435 270.704 289.281 270.697 289.085 270.697C287.993 270.697 287.132 271.026 286.502 271.684C285.886 272.328 285.578 273.252 285.578 274.456V280H283.562V268.87H285.494V270.739ZM298.741 279.349C298.447 279.601 298.083 279.797 297.649 279.937C297.215 280.063 296.767 280.126 296.305 280.126C295.185 280.126 294.317 279.825 293.701 279.223C293.085 278.621 292.777 277.76 292.777 276.64V270.529H290.887V268.87H292.777V266.434H294.793V268.87H297.985V270.529H294.793V276.556C294.793 277.158 294.94 277.62 295.234 277.942C295.542 278.264 295.976 278.425 296.536 278.425C297.152 278.425 297.677 278.25 298.111 277.9L298.741 279.349ZM305.232 268.765C306.772 268.765 307.948 269.143 308.76 269.899C309.586 270.655 309.999 271.782 309.999 273.28V280H308.088V278.53C307.752 279.048 307.269 279.447 306.639 279.727C306.023 279.993 305.288 280.126 304.434 280.126C303.188 280.126 302.187 279.825 301.431 279.223C300.689 278.621 300.318 277.83 300.318 276.85C300.318 275.87 300.675 275.086 301.389 274.498C302.103 273.896 303.237 273.595 304.791 273.595H307.983V273.196C307.983 272.328 307.731 271.663 307.227 271.201C306.723 270.739 305.981 270.508 305.001 270.508C304.343 270.508 303.699 270.62 303.069 270.844C302.439 271.054 301.907 271.341 301.473 271.705L300.633 270.193C301.207 269.731 301.893 269.381 302.691 269.143C303.489 268.891 304.336 268.765 305.232 268.765ZM304.77 278.572C305.54 278.572 306.205 278.404 306.765 278.068C307.325 277.718 307.731 277.228 307.983 276.598V275.044H304.875C303.167 275.044 302.313 275.618 302.313 276.766C302.313 277.326 302.53 277.767 302.964 278.089C303.398 278.411 304 278.572 304.77 278.572ZM319.672 268.765C321.086 268.765 322.206 269.178 323.032 270.004C323.872 270.816 324.292 272.013 324.292 273.595V280H322.276V273.826C322.276 272.748 322.017 271.936 321.499 271.39C320.981 270.844 320.239 270.571 319.273 270.571C318.181 270.571 317.32 270.893 316.69 271.537C316.06 272.167 315.745 273.077 315.745 274.267V280H313.729V268.87H315.661V270.55C316.067 269.976 316.613 269.535 317.299 269.227C317.999 268.919 318.79 268.765 319.672 268.765ZM334.281 279.349C333.987 279.601 333.623 279.797 333.189 279.937C332.755 280.063 332.307 280.126 331.845 280.126C330.725 280.126 329.857 279.825 329.241 279.223C328.625 278.621 328.317 277.76 328.317 276.64V270.529H326.427V268.87H328.317V266.434H330.333V268.87H333.525V270.529H330.333V276.556C330.333 277.158 330.48 277.62 330.774 277.942C331.082 278.264 331.516 278.425 332.076 278.425C332.692 278.425 333.217 278.25 333.651 277.9L334.281 279.349ZM36.0158 293.951C34.8118 293.951 34.2098 294.602 34.2098 295.904V296.87H37.4438V298.529H34.2518V308H32.2358V298.529H30.3458V296.87H32.2358V295.883C32.2358 294.777 32.5578 293.902 33.2018 293.258C33.8458 292.614 34.7488 292.292 35.9108 292.292C36.3588 292.292 36.7788 292.348 37.1708 292.46C37.5628 292.572 37.8988 292.733 38.1788 292.943L37.5698 294.476C37.1078 294.126 36.5898 293.951 36.0158 293.951ZM43.948 308.126C42.842 308.126 41.848 307.881 40.966 307.391C40.084 306.901 39.391 306.229 38.887 305.375C38.397 304.507 38.152 303.527 38.152 302.435C38.152 301.343 38.397 300.37 38.887 299.516C39.391 298.648 40.084 297.976 40.966 297.5C41.848 297.01 42.842 296.765 43.948 296.765C45.054 296.765 46.041 297.01 46.909 297.5C47.791 297.976 48.477 298.648 48.967 299.516C49.471 300.37 49.723 301.343 49.723 302.435C49.723 303.527 49.471 304.507 48.967 305.375C48.477 306.229 47.791 306.901 46.909 307.391C46.041 307.881 45.054 308.126 43.948 308.126ZM43.948 306.362C44.662 306.362 45.299 306.201 45.859 305.879C46.433 305.543 46.881 305.081 47.203 304.493C47.525 303.891 47.686 303.205 47.686 302.435C47.686 301.665 47.525 300.986 47.203 300.398C46.881 299.796 46.433 299.334 45.859 299.012C45.299 298.69 44.662 298.529 43.948 298.529C43.234 298.529 42.59 298.69 42.016 299.012C41.456 299.334 41.008 299.796 40.672 300.398C40.35 300.986 40.189 301.665 40.189 302.435C40.189 303.205 40.35 303.891 40.672 304.493C41.008 305.081 41.456 305.543 42.016 305.879C42.59 306.201 43.234 306.362 43.948 306.362ZM54.4431 298.739C54.7931 298.095 55.3111 297.605 55.9971 297.269C56.6831 296.933 57.5161 296.765 58.4961 296.765V298.718C58.3841 298.704 58.2301 298.697 58.0341 298.697C56.9421 298.697 56.0811 299.026 55.4511 299.684C54.8351 300.328 54.5271 301.252 54.5271 302.456V308H52.5111V296.87H54.4431V298.739ZM66.764 296.87H68.78V308H66.764V296.87ZM67.772 294.728C67.38 294.728 67.051 294.602 66.785 294.35C66.533 294.098 66.407 293.79 66.407 293.426C66.407 293.062 66.533 292.754 66.785 292.502C67.051 292.236 67.38 292.103 67.772 292.103C68.164 292.103 68.486 292.229 68.738 292.481C69.004 292.719 69.137 293.02 69.137 293.384C69.137 293.762 69.004 294.084 68.738 294.35C68.486 294.602 68.164 294.728 67.772 294.728ZM83.1293 292.418V308H81.1973V306.236C80.7493 306.852 80.1823 307.321 79.4963 307.643C78.8103 307.965 78.0543 308.126 77.2283 308.126C76.1503 308.126 75.1843 307.888 74.3303 307.412C73.4763 306.936 72.8043 306.271 72.3143 305.417C71.8383 304.549 71.6003 303.555 71.6003 302.435C71.6003 301.315 71.8383 300.328 72.3143 299.474C72.8043 298.62 73.4763 297.955 74.3303 297.479C75.1843 297.003 76.1503 296.765 77.2283 296.765C78.0263 296.765 78.7613 296.919 79.4333 297.227C80.1053 297.521 80.6653 297.962 81.1133 298.55V292.418H83.1293ZM77.3963 306.362C78.0963 306.362 78.7333 306.201 79.3073 305.879C79.8813 305.543 80.3293 305.081 80.6513 304.493C80.9733 303.891 81.1343 303.205 81.1343 302.435C81.1343 301.665 80.9733 300.986 80.6513 300.398C80.3293 299.796 79.8813 299.334 79.3073 299.012C78.7333 298.69 78.0963 298.529 77.3963 298.529C76.6823 298.529 76.0383 298.69 75.4643 299.012C74.9043 299.334 74.4563 299.796 74.1203 300.398C73.7983 300.986 73.6373 301.665 73.6373 302.435C73.6373 303.205 73.7983 303.891 74.1203 304.493C74.4563 305.081 74.9043 305.543 75.4643 305.879C76.0383 306.201 76.6823 306.362 77.3963 306.362ZM97.0027 302.498C97.0027 302.652 96.9887 302.855 96.9607 303.107H87.9307C88.0567 304.087 88.4837 304.878 89.2117 305.48C89.9537 306.068 90.8707 306.362 91.9627 306.362C93.2927 306.362 94.3637 305.914 95.1757 305.018L96.2887 306.32C95.7847 306.908 95.1547 307.356 94.3987 307.664C93.6567 307.972 92.8237 308.126 91.8997 308.126C90.7237 308.126 89.6807 307.888 88.7707 307.412C87.8607 306.922 87.1537 306.243 86.6497 305.375C86.1597 304.507 85.9147 303.527 85.9147 302.435C85.9147 301.357 86.1527 300.384 86.6287 299.516C87.1187 298.648 87.7837 297.976 88.6237 297.5C89.4777 297.01 90.4367 296.765 91.5007 296.765C92.5647 296.765 93.5097 297.01 94.3357 297.5C95.1757 297.976 95.8267 298.648 96.2887 299.516C96.7647 300.384 97.0027 301.378 97.0027 302.498ZM91.5007 298.466C90.5347 298.466 89.7227 298.76 89.0647 299.348C88.4207 299.936 88.0427 300.706 87.9307 301.658H95.0707C94.9587 300.72 94.5737 299.957 93.9157 299.369C93.2717 298.767 92.4667 298.466 91.5007 298.466ZM103.547 296.765C105.087 296.765 106.263 297.143 107.075 297.899C107.901 298.655 108.314 299.782 108.314 301.28V308H106.403V306.53C106.067 307.048 105.584 307.447 104.954 307.727C104.338 307.993 103.603 308.126 102.749 308.126C101.503 308.126 100.502 307.825 99.7465 307.223C99.0045 306.621 98.6335 305.83 98.6335 304.85C98.6335 303.87 98.9905 303.086 99.7045 302.498C100.418 301.896 101.552 301.595 103.106 301.595H106.298V301.196C106.298 300.328 106.046 299.663 105.542 299.201C105.038 298.739 104.296 298.508 103.316 298.508C102.658 298.508 102.014 298.62 101.384 298.844C100.754 299.054 100.222 299.341 99.7885 299.705L98.9485 298.193C99.5225 297.731 100.208 297.381 101.006 297.143C101.804 296.891 102.651 296.765 103.547 296.765ZM103.085 306.572C103.855 306.572 104.52 306.404 105.08 306.068C105.64 305.718 106.046 305.228 106.298 304.598V303.044H103.19C101.482 303.044 100.628 303.618 100.628 304.766C100.628 305.326 100.845 305.767 101.279 306.089C101.713 306.411 102.315 306.572 103.085 306.572ZM118.303 307.349C118.009 307.601 117.645 307.797 117.211 307.937C116.777 308.063 116.329 308.126 115.867 308.126C114.747 308.126 113.879 307.825 113.263 307.223C112.647 306.621 112.339 305.76 112.339 304.64V298.529H110.449V296.87H112.339V294.434H114.355V296.87H117.547V298.529H114.355V304.556C114.355 305.158 114.502 305.62 114.796 305.942C115.104 306.264 115.538 306.425 116.098 306.425C116.714 306.425 117.239 306.25 117.673 305.9L118.303 307.349ZM120.741 296.87H122.757V308H120.741V296.87ZM121.749 294.728C121.357 294.728 121.028 294.602 120.762 294.35C120.51 294.098 120.384 293.79 120.384 293.426C120.384 293.062 120.51 292.754 120.762 292.502C121.028 292.236 121.357 292.103 121.749 292.103C122.141 292.103 122.463 292.229 122.715 292.481C122.981 292.719 123.114 293.02 123.114 293.384C123.114 293.762 122.981 294.084 122.715 294.35C122.463 294.602 122.141 294.728 121.749 294.728ZM131.373 308.126C130.267 308.126 129.273 307.881 128.391 307.391C127.509 306.901 126.816 306.229 126.312 305.375C125.822 304.507 125.577 303.527 125.577 302.435C125.577 301.343 125.822 300.37 126.312 299.516C126.816 298.648 127.509 297.976 128.391 297.5C129.273 297.01 130.267 296.765 131.373 296.765C132.479 296.765 133.466 297.01 134.334 297.5C135.216 297.976 135.902 298.648 136.392 299.516C136.896 300.37 137.148 301.343 137.148 302.435C137.148 303.527 136.896 304.507 136.392 305.375C135.902 306.229 135.216 306.901 134.334 307.391C133.466 307.881 132.479 308.126 131.373 308.126ZM131.373 306.362C132.087 306.362 132.724 306.201 133.284 305.879C133.858 305.543 134.306 305.081 134.628 304.493C134.95 303.891 135.111 303.205 135.111 302.435C135.111 301.665 134.95 300.986 134.628 300.398C134.306 299.796 133.858 299.334 133.284 299.012C132.724 298.69 132.087 298.529 131.373 298.529C130.659 298.529 130.015 298.69 129.441 299.012C128.881 299.334 128.433 299.796 128.097 300.398C127.775 300.986 127.614 301.665 127.614 302.435C127.614 303.205 127.775 303.891 128.097 304.493C128.433 305.081 128.881 305.543 129.441 305.879C130.015 306.201 130.659 306.362 131.373 306.362ZM145.879 296.765C147.293 296.765 148.413 297.178 149.239 298.004C150.079 298.816 150.499 300.013 150.499 301.595V308H148.483V301.826C148.483 300.748 148.224 299.936 147.706 299.39C147.188 298.844 146.446 298.571 145.48 298.571C144.388 298.571 143.527 298.893 142.897 299.537C142.267 300.167 141.952 301.077 141.952 302.267V308H139.936V296.87H141.868V298.55C142.274 297.976 142.82 297.535 143.506 297.227C144.206 296.919 144.997 296.765 145.879 296.765ZM154.713 308.126C154.321 308.126 153.985 307.993 153.705 307.727C153.425 307.447 153.285 307.097 153.285 306.677C153.285 306.271 153.425 305.935 153.705 305.669C153.985 305.389 154.321 305.249 154.713 305.249C155.105 305.249 155.434 305.382 155.7 305.648C155.966 305.914 156.099 306.257 156.099 306.677C156.099 307.097 155.959 307.447 155.679 307.727C155.413 307.993 155.091 308.126 154.713 308.126ZM164.921 293.3H167.021V308H164.921V293.3ZM177.386 307.349C177.092 307.601 176.728 307.797 176.294 307.937C175.86 308.063 175.412 308.126 174.95 308.126C173.83 308.126 172.962 307.825 172.346 307.223C171.73 306.621 171.422 305.76 171.422 304.64V298.529H169.532V296.87H171.422V294.434H173.438V296.87H176.63V298.529H173.438V304.556C173.438 305.158 173.585 305.62 173.879 305.942C174.187 306.264 174.621 306.425 175.181 306.425C175.797 306.425 176.322 306.25 176.756 305.9L177.386 307.349ZM202.305 296.87L198.147 308H196.215L193.002 299.558L189.747 308H187.815L183.678 296.87H185.589L188.823 305.732L192.183 296.87H193.884L197.181 305.774L200.499 296.87H202.305ZM204.351 296.87H206.367V308H204.351V296.87ZM205.359 294.728C204.967 294.728 204.638 294.602 204.372 294.35C204.12 294.098 203.994 293.79 203.994 293.426C203.994 293.062 204.12 292.754 204.372 292.502C204.638 292.236 204.967 292.103 205.359 292.103C205.751 292.103 206.073 292.229 206.325 292.481C206.591 292.719 206.724 293.02 206.724 293.384C206.724 293.762 206.591 294.084 206.325 294.35C206.073 294.602 205.751 294.728 205.359 294.728ZM210.216 292.418H212.232V308H210.216V292.418ZM216.081 292.418H218.097V308H216.081V292.418ZM233.529 296.765C234.943 296.765 236.063 297.178 236.889 298.004C237.729 298.816 238.149 300.013 238.149 301.595V308H236.133V301.826C236.133 300.748 235.874 299.936 235.356 299.39C234.838 298.844 234.096 298.571 233.13 298.571C232.038 298.571 231.177 298.893 230.547 299.537C229.917 300.167 229.602 301.077 229.602 302.267V308H227.586V292.418H229.602V298.445C230.022 297.913 230.568 297.5 231.24 297.206C231.926 296.912 232.689 296.765 233.529 296.765ZM252.001 302.498C252.001 302.652 251.987 302.855 251.959 303.107H242.929C243.055 304.087 243.482 304.878 244.21 305.48C244.952 306.068 245.869 306.362 246.961 306.362C248.291 306.362 249.362 305.914 250.174 305.018L251.287 306.32C250.783 306.908 250.153 307.356 249.397 307.664C248.655 307.972 247.822 308.126 246.898 308.126C245.722 308.126 244.679 307.888 243.769 307.412C242.859 306.922 242.152 306.243 241.648 305.375C241.158 304.507 240.913 303.527 240.913 302.435C240.913 301.357 241.151 300.384 241.627 299.516C242.117 298.648 242.782 297.976 243.622 297.5C244.476 297.01 245.435 296.765 246.499 296.765C247.563 296.765 248.508 297.01 249.334 297.5C250.174 297.976 250.825 298.648 251.287 299.516C251.763 300.384 252.001 301.378 252.001 302.498ZM246.499 298.466C245.533 298.466 244.721 298.76 244.063 299.348C243.419 299.936 243.041 300.706 242.929 301.658H250.069C249.957 300.72 249.572 299.957 248.914 299.369C248.27 298.767 247.465 298.466 246.499 298.466ZM254.8 292.418H256.816V308H254.8V292.418ZM266.566 296.765C267.644 296.765 268.61 297.003 269.464 297.479C270.318 297.955 270.983 298.62 271.459 299.474C271.949 300.328 272.194 301.315 272.194 302.435C272.194 303.555 271.949 304.549 271.459 305.417C270.983 306.271 270.318 306.936 269.464 307.412C268.61 307.888 267.644 308.126 266.566 308.126C265.768 308.126 265.033 307.972 264.361 307.664C263.703 307.356 263.143 306.908 262.681 306.32V312.074H260.665V296.87H262.597V298.634C263.045 298.018 263.612 297.556 264.298 297.248C264.984 296.926 265.74 296.765 266.566 296.765ZM266.398 306.362C267.112 306.362 267.749 306.201 268.309 305.879C268.883 305.543 269.331 305.081 269.653 304.493C269.989 303.891 270.157 303.205 270.157 302.435C270.157 301.665 269.989 300.986 269.653 300.398C269.331 299.796 268.883 299.334 268.309 299.012C267.749 298.69 267.112 298.529 266.398 298.529C265.698 298.529 265.061 298.697 264.487 299.033C263.927 299.355 263.479 299.81 263.143 300.398C262.821 300.986 262.66 301.665 262.66 302.435C262.66 303.205 262.821 303.891 263.143 304.493C263.465 305.081 263.913 305.543 264.487 305.879C265.061 306.201 265.698 306.362 266.398 306.362ZM290.468 296.87L285.071 309.113C284.595 310.247 284.035 311.045 283.391 311.507C282.761 311.969 281.998 312.2 281.102 312.2C280.556 312.2 280.024 312.109 279.506 311.927C279.002 311.759 278.582 311.507 278.246 311.171L279.107 309.659C279.681 310.205 280.346 310.478 281.102 310.478C281.592 310.478 281.998 310.345 282.32 310.079C282.656 309.827 282.957 309.386 283.223 308.756L283.58 307.979L278.666 296.87H280.766L284.651 305.774L288.494 296.87H290.468ZM296.809 308.126C295.703 308.126 294.709 307.881 293.827 307.391C292.945 306.901 292.252 306.229 291.748 305.375C291.258 304.507 291.013 303.527 291.013 302.435C291.013 301.343 291.258 300.37 291.748 299.516C292.252 298.648 292.945 297.976 293.827 297.5C294.709 297.01 295.703 296.765 296.809 296.765C297.915 296.765 298.902 297.01 299.77 297.5C300.652 297.976 301.338 298.648 301.828 299.516C302.332 300.37 302.584 301.343 302.584 302.435C302.584 303.527 302.332 304.507 301.828 305.375C301.338 306.229 300.652 306.901 299.77 307.391C298.902 307.881 297.915 308.126 296.809 308.126ZM296.809 306.362C297.523 306.362 298.16 306.201 298.72 305.879C299.294 305.543 299.742 305.081 300.064 304.493C300.386 303.891 300.547 303.205 300.547 302.435C300.547 301.665 300.386 300.986 300.064 300.398C299.742 299.796 299.294 299.334 298.72 299.012C298.16 298.69 297.523 298.529 296.809 298.529C296.095 298.529 295.451 298.69 294.877 299.012C294.317 299.334 293.869 299.796 293.533 300.398C293.211 300.986 293.05 301.665 293.05 302.435C293.05 303.205 293.211 303.891 293.533 304.493C293.869 305.081 294.317 305.543 294.877 305.879C295.451 306.201 296.095 306.362 296.809 306.362ZM315.746 296.87V308H313.835V306.32C313.429 306.894 312.89 307.342 312.218 307.664C311.56 307.972 310.839 308.126 310.055 308.126C308.571 308.126 307.402 307.72 306.548 306.908C305.694 306.082 305.267 304.871 305.267 303.275V296.87H307.283V303.044C307.283 304.122 307.542 304.941 308.06 305.501C308.578 306.047 309.32 306.32 310.286 306.32C311.35 306.32 312.19 305.998 312.806 305.354C313.422 304.71 313.73 303.8 313.73 302.624V296.87H315.746ZM331.482 307.349C331.188 307.601 330.824 307.797 330.39 307.937C329.956 308.063 329.508 308.126 329.046 308.126C327.926 308.126 327.058 307.825 326.442 307.223C325.826 306.621 325.518 305.76 325.518 304.64V298.529H323.628V296.87H325.518V294.434H327.534V296.87H330.726V298.529H327.534V304.556C327.534 305.158 327.681 305.62 327.975 305.942C328.283 306.264 328.717 306.425 329.277 306.425C329.893 306.425 330.418 306.25 330.852 305.9L331.482 307.349ZM338.317 308.126C337.211 308.126 336.217 307.881 335.335 307.391C334.453 306.901 333.76 306.229 333.256 305.375C332.766 304.507 332.521 303.527 332.521 302.435C332.521 301.343 332.766 300.37 333.256 299.516C333.76 298.648 334.453 297.976 335.335 297.5C336.217 297.01 337.211 296.765 338.317 296.765C339.423 296.765 340.41 297.01 341.278 297.5C342.16 297.976 342.846 298.648 343.336 299.516C343.84 300.37 344.092 301.343 344.092 302.435C344.092 303.527 343.84 304.507 343.336 305.375C342.846 306.229 342.16 306.901 341.278 307.391C340.41 307.881 339.423 308.126 338.317 308.126ZM338.317 306.362C339.031 306.362 339.668 306.201 340.228 305.879C340.802 305.543 341.25 305.081 341.572 304.493C341.894 303.891 342.055 303.205 342.055 302.435C342.055 301.665 341.894 300.986 341.572 300.398C341.25 299.796 340.802 299.334 340.228 299.012C339.668 298.69 339.031 298.529 338.317 298.529C337.603 298.529 336.959 298.69 336.385 299.012C335.825 299.334 335.377 299.796 335.041 300.398C334.719 300.986 334.558 301.665 334.558 302.435C334.558 303.205 334.719 303.891 335.041 304.493C335.377 305.081 335.825 305.543 336.385 305.879C336.959 306.201 337.603 306.362 338.317 306.362ZM110.661 324.87V340.074H108.645V334.32C108.183 334.908 107.616 335.356 106.944 335.664C106.286 335.972 105.558 336.126 104.76 336.126C103.682 336.126 102.716 335.888 101.862 335.412C101.008 334.936 100.336 334.271 99.846 333.417C99.37 332.549 99.132 331.555 99.132 330.435C99.132 329.315 99.37 328.328 99.846 327.474C100.336 326.62 101.008 325.955 101.862 325.479C102.716 325.003 103.682 324.765 104.76 324.765C105.586 324.765 106.342 324.926 107.028 325.248C107.714 325.556 108.281 326.018 108.729 326.634V324.87H110.661ZM104.928 334.362C105.628 334.362 106.265 334.201 106.839 333.879C107.413 333.543 107.861 333.081 108.183 332.493C108.505 331.891 108.666 331.205 108.666 330.435C108.666 329.665 108.498 328.986 108.162 328.398C107.84 327.81 107.392 327.355 106.818 327.033C106.258 326.697 105.628 326.529 104.928 326.529C104.214 326.529 103.57 326.69 102.996 327.012C102.436 327.334 101.988 327.796 101.652 328.398C101.33 328.986 101.169 329.665 101.169 330.435C101.169 331.205 101.33 331.891 101.652 332.493C101.988 333.081 102.436 333.543 102.996 333.879C103.57 334.201 104.214 334.362 104.928 334.362ZM124.849 324.87V336H122.938V334.32C122.532 334.894 121.993 335.342 121.321 335.664C120.663 335.972 119.942 336.126 119.158 336.126C117.674 336.126 116.505 335.72 115.651 334.908C114.797 334.082 114.37 332.871 114.37 331.275V324.87H116.386V331.044C116.386 332.122 116.645 332.941 117.163 333.501C117.681 334.047 118.423 334.32 119.389 334.32C120.453 334.32 121.293 333.998 121.909 333.354C122.525 332.71 122.833 331.8 122.833 330.624V324.87H124.849ZM128.687 324.87H130.703V336H128.687V324.87ZM129.695 322.728C129.303 322.728 128.974 322.602 128.708 322.35C128.456 322.098 128.33 321.79 128.33 321.426C128.33 321.062 128.456 320.754 128.708 320.502C128.974 320.236 129.303 320.103 129.695 320.103C130.087 320.103 130.409 320.229 130.661 320.481C130.927 320.719 131.06 321.02 131.06 321.384C131.06 321.762 130.927 322.084 130.661 322.35C130.409 322.602 130.087 322.728 129.695 322.728ZM139.404 336.126C138.27 336.126 137.255 335.881 136.359 335.391C135.477 334.901 134.784 334.229 134.28 333.375C133.776 332.507 133.524 331.527 133.524 330.435C133.524 329.343 133.776 328.37 134.28 327.516C134.784 326.648 135.477 325.976 136.359 325.5C137.255 325.01 138.27 324.765 139.404 324.765C140.412 324.765 141.308 324.968 142.092 325.374C142.89 325.78 143.506 326.368 143.94 327.138L142.407 328.125C142.057 327.593 141.623 327.194 141.105 326.928C140.587 326.662 140.013 326.529 139.383 326.529C138.655 326.529 137.997 326.69 137.409 327.012C136.835 327.334 136.38 327.796 136.044 328.398C135.722 328.986 135.561 329.665 135.561 330.435C135.561 331.219 135.722 331.912 136.044 332.514C136.38 333.102 136.835 333.557 137.409 333.879C137.997 334.201 138.655 334.362 139.383 334.362C140.013 334.362 140.587 334.229 141.105 333.963C141.623 333.697 142.057 333.298 142.407 332.766L143.94 333.732C143.506 334.502 142.89 335.097 142.092 335.517C141.308 335.923 140.412 336.126 139.404 336.126ZM150.732 330.813L148.422 332.955V336H146.406V320.418H148.422V330.414L154.491 324.87H156.927L152.244 329.469L157.389 336H154.911L150.732 330.813ZM159.347 320.418H161.363V336H159.347V320.418ZM175.061 324.87L169.664 337.113C169.188 338.247 168.628 339.045 167.984 339.507C167.354 339.969 166.591 340.2 165.695 340.2C165.149 340.2 164.617 340.109 164.099 339.927C163.595 339.759 163.175 339.507 162.839 339.171L163.7 337.659C164.274 338.205 164.939 338.478 165.695 338.478C166.185 338.478 166.591 338.345 166.913 338.079C167.249 337.827 167.55 337.386 167.816 336.756L168.173 335.979L163.259 324.87H165.359L169.244 333.774L173.087 324.87H175.061ZM188.84 335.349C188.546 335.601 188.182 335.797 187.748 335.937C187.314 336.063 186.866 336.126 186.404 336.126C185.284 336.126 184.416 335.825 183.8 335.223C183.184 334.621 182.876 333.76 182.876 332.64V326.529H180.986V324.87H182.876V322.434H184.892V324.87H188.084V326.529H184.892V332.556C184.892 333.158 185.039 333.62 185.333 333.942C185.641 334.264 186.075 334.425 186.635 334.425C187.251 334.425 187.776 334.25 188.21 333.9L188.84 335.349ZM200.967 330.498C200.967 330.652 200.953 330.855 200.925 331.107H191.895C192.021 332.087 192.448 332.878 193.176 333.48C193.918 334.068 194.835 334.362 195.927 334.362C197.257 334.362 198.328 333.914 199.14 333.018L200.253 334.32C199.749 334.908 199.119 335.356 198.363 335.664C197.621 335.972 196.788 336.126 195.864 336.126C194.688 336.126 193.645 335.888 192.735 335.412C191.825 334.922 191.118 334.243 190.614 333.375C190.124 332.507 189.879 331.527 189.879 330.435C189.879 329.357 190.117 328.384 190.593 327.516C191.083 326.648 191.748 325.976 192.588 325.5C193.442 325.01 194.401 324.765 195.465 324.765C196.529 324.765 197.474 325.01 198.3 325.5C199.14 325.976 199.791 326.648 200.253 327.516C200.729 328.384 200.967 329.378 200.967 330.498ZM195.465 326.466C194.499 326.466 193.687 326.76 193.029 327.348C192.385 327.936 192.007 328.706 191.895 329.658H199.035C198.923 328.72 198.538 327.957 197.88 327.369C197.236 326.767 196.431 326.466 195.465 326.466ZM206.958 336.126C206.048 336.126 205.173 336.007 204.333 335.769C203.493 335.517 202.835 335.202 202.359 334.824L203.199 333.228C203.689 333.578 204.284 333.858 204.984 334.068C205.684 334.278 206.391 334.383 207.105 334.383C208.869 334.383 209.751 333.879 209.751 332.871C209.751 332.535 209.632 332.269 209.394 332.073C209.156 331.877 208.855 331.737 208.491 331.653C208.141 331.555 207.637 331.45 206.979 331.338C206.083 331.198 205.348 331.037 204.774 330.855C204.214 330.673 203.731 330.365 203.325 329.931C202.919 329.497 202.716 328.888 202.716 328.104C202.716 327.096 203.136 326.291 203.976 325.689C204.816 325.073 205.943 324.765 207.357 324.765C208.099 324.765 208.841 324.856 209.583 325.038C210.325 325.22 210.934 325.465 211.41 325.773L210.549 327.369C209.639 326.781 208.568 326.487 207.336 326.487C206.482 326.487 205.831 326.627 205.383 326.907C204.935 327.187 204.711 327.558 204.711 328.02C204.711 328.384 204.837 328.671 205.089 328.881C205.341 329.091 205.649 329.245 206.013 329.343C206.391 329.441 206.916 329.553 207.588 329.679C208.484 329.833 209.205 330.001 209.751 330.183C210.311 330.351 210.787 330.645 211.179 331.065C211.571 331.485 211.767 332.073 211.767 332.829C211.767 333.837 211.333 334.642 210.465 335.244C209.611 335.832 208.442 336.126 206.958 336.126ZM220.545 335.349C220.251 335.601 219.887 335.797 219.453 335.937C219.019 336.063 218.571 336.126 218.109 336.126C216.989 336.126 216.121 335.825 215.505 335.223C214.889 334.621 214.581 333.76 214.581 332.64V326.529H212.691V324.87H214.581V322.434H216.597V324.87H219.789V326.529H216.597V332.556C216.597 333.158 216.744 333.62 217.038 333.942C217.346 334.264 217.78 334.425 218.34 334.425C218.956 334.425 219.481 334.25 219.915 333.9L220.545 335.349ZM228.622 324.87H230.638V336H228.622V324.87ZM229.63 322.728C229.238 322.728 228.909 322.602 228.643 322.35C228.391 322.098 228.265 321.79 228.265 321.426C228.265 321.062 228.391 320.754 228.643 320.502C228.909 320.236 229.238 320.103 229.63 320.103C230.022 320.103 230.344 320.229 230.596 320.481C230.862 320.719 230.995 321.02 230.995 321.384C230.995 321.762 230.862 322.084 230.596 322.35C230.344 322.602 230.022 322.728 229.63 322.728ZM244.987 320.418V336H243.055V334.236C242.607 334.852 242.04 335.321 241.354 335.643C240.668 335.965 239.912 336.126 239.086 336.126C238.008 336.126 237.042 335.888 236.188 335.412C235.334 334.936 234.662 334.271 234.172 333.417C233.696 332.549 233.458 331.555 233.458 330.435C233.458 329.315 233.696 328.328 234.172 327.474C234.662 326.62 235.334 325.955 236.188 325.479C237.042 325.003 238.008 324.765 239.086 324.765C239.884 324.765 240.619 324.919 241.291 325.227C241.963 325.521 242.523 325.962 242.971 326.55V320.418H244.987ZM239.254 334.362C239.954 334.362 240.591 334.201 241.165 333.879C241.739 333.543 242.187 333.081 242.509 332.493C242.831 331.891 242.992 331.205 242.992 330.435C242.992 329.665 242.831 328.986 242.509 328.398C242.187 327.796 241.739 327.334 241.165 327.012C240.591 326.69 239.954 326.529 239.254 326.529C238.54 326.529 237.896 326.69 237.322 327.012C236.762 327.334 236.314 327.796 235.978 328.398C235.656 328.986 235.495 329.665 235.495 330.435C235.495 331.205 235.656 331.891 235.978 332.493C236.314 333.081 236.762 333.543 237.322 333.879C237.896 334.201 238.54 334.362 239.254 334.362ZM258.861 330.498C258.861 330.652 258.847 330.855 258.819 331.107H249.789C249.915 332.087 250.342 332.878 251.07 333.48C251.812 334.068 252.729 334.362 253.821 334.362C255.151 334.362 256.222 333.914 257.034 333.018L258.147 334.32C257.643 334.908 257.013 335.356 256.257 335.664C255.515 335.972 254.682 336.126 253.758 336.126C252.582 336.126 251.539 335.888 250.629 335.412C249.719 334.922 249.012 334.243 248.508 333.375C248.018 332.507 247.773 331.527 247.773 330.435C247.773 329.357 248.011 328.384 248.487 327.516C248.977 326.648 249.642 325.976 250.482 325.5C251.336 325.01 252.295 324.765 253.359 324.765C254.423 324.765 255.368 325.01 256.194 325.5C257.034 325.976 257.685 326.648 258.147 327.516C258.623 328.384 258.861 329.378 258.861 330.498ZM253.359 326.466C252.393 326.466 251.581 326.76 250.923 327.348C250.279 327.936 249.901 328.706 249.789 329.658H256.929C256.817 328.72 256.432 327.957 255.774 327.369C255.13 326.767 254.325 326.466 253.359 326.466ZM265.405 324.765C266.945 324.765 268.121 325.143 268.933 325.899C269.759 326.655 270.172 327.782 270.172 329.28V336H268.261V334.53C267.925 335.048 267.442 335.447 266.812 335.727C266.196 335.993 265.461 336.126 264.607 336.126C263.361 336.126 262.36 335.825 261.604 335.223C260.862 334.621 260.491 333.83 260.491 332.85C260.491 331.87 260.848 331.086 261.562 330.498C262.276 329.896 263.41 329.595 264.964 329.595H268.156V329.196C268.156 328.328 267.904 327.663 267.4 327.201C266.896 326.739 266.154 326.508 265.174 326.508C264.516 326.508 263.872 326.62 263.242 326.844C262.612 327.054 262.08 327.341 261.646 327.705L260.806 326.193C261.38 325.731 262.066 325.381 262.864 325.143C263.662 324.891 264.509 324.765 265.405 324.765ZM264.943 334.572C265.713 334.572 266.378 334.404 266.938 334.068C267.498 333.718 267.904 333.228 268.156 332.598V331.044H265.048C263.34 331.044 262.486 331.618 262.486 332.766C262.486 333.326 262.703 333.767 263.137 334.089C263.571 334.411 264.173 334.572 264.943 334.572ZM274.386 336.126C273.994 336.126 273.658 335.993 273.378 335.727C273.098 335.447 272.958 335.097 272.958 334.677C272.958 334.271 273.098 333.935 273.378 333.669C273.658 333.389 273.994 333.249 274.386 333.249C274.778 333.249 275.107 333.382 275.373 333.648C275.639 333.914 275.772 334.257 275.772 334.677C275.772 335.097 275.632 335.447 275.352 335.727C275.086 335.993 274.764 336.126 274.386 336.126Z" fill="#474A57"/>
</g>
<g filter="url(#filter0_d_184_3883)">
<rect x="104" y="374" width="167" height="60" rx="16" fill="#F95A2C"/>
<g clip-path="url(#clip2_184_3883)">
<path d="M121.602 397.3H125.76V408.703H132.774V412H121.602V397.3ZM139.901 412.189C138.683 412.189 137.584 411.937 136.604 411.433C135.624 410.929 134.854 410.229 134.294 409.333C133.748 408.437 133.475 407.422 133.475 406.288C133.475 405.168 133.748 404.16 134.294 403.264C134.854 402.368 135.617 401.675 136.583 401.185C137.563 400.681 138.669 400.429 139.901 400.429C141.133 400.429 142.239 400.681 143.219 401.185C144.199 401.675 144.962 402.368 145.508 403.264C146.054 404.146 146.327 405.154 146.327 406.288C146.327 407.422 146.054 408.437 145.508 409.333C144.962 410.229 144.199 410.929 143.219 411.433C142.239 411.937 141.133 412.189 139.901 412.189ZM139.901 409.018C140.601 409.018 141.175 408.78 141.623 408.304C142.071 407.814 142.295 407.142 142.295 406.288C142.295 405.448 142.071 404.79 141.623 404.314C141.175 403.838 140.601 403.6 139.901 403.6C139.201 403.6 138.627 403.838 138.179 404.314C137.731 404.79 137.507 405.448 137.507 406.288C137.507 407.142 137.731 407.814 138.179 408.304C138.627 408.78 139.201 409.018 139.901 409.018ZM159.859 400.618L155.155 412H151.039L146.356 400.618H150.451L153.181 407.569L156.058 400.618H159.859ZM172.217 406.33C172.217 406.358 172.196 406.687 172.154 407.317H163.88C164.048 407.905 164.37 408.36 164.846 408.682C165.336 408.99 165.945 409.144 166.673 409.144C167.219 409.144 167.688 409.067 168.08 408.913C168.486 408.759 168.892 408.507 169.298 408.157L171.398 410.341C170.292 411.573 168.675 412.189 166.547 412.189C165.217 412.189 164.048 411.937 163.04 411.433C162.032 410.929 161.248 410.229 160.688 409.333C160.142 408.437 159.869 407.422 159.869 406.288C159.869 405.168 160.135 404.167 160.667 403.285C161.213 402.389 161.962 401.689 162.914 401.185C163.866 400.681 164.937 400.429 166.127 400.429C167.261 400.429 168.29 400.667 169.214 401.143C170.138 401.605 170.866 402.284 171.398 403.18C171.944 404.062 172.217 405.112 172.217 406.33ZM166.148 403.264C165.532 403.264 165.014 403.439 164.594 403.789C164.188 404.139 163.929 404.615 163.817 405.217H168.479C168.367 404.615 168.101 404.139 167.681 403.789C167.275 403.439 166.764 403.264 166.148 403.264ZM187.329 400.429C188.365 400.429 189.303 400.667 190.143 401.143C190.997 401.619 191.669 402.305 192.159 403.201C192.663 404.083 192.915 405.112 192.915 406.288C192.915 407.464 192.663 408.5 192.159 409.396C191.669 410.292 190.997 410.985 190.143 411.475C189.303 411.951 188.365 412.189 187.329 412.189C185.831 412.189 184.711 411.748 183.969 410.866V412H180.168V396.418H184.158V401.605C184.928 400.821 185.985 400.429 187.329 400.429ZM186.489 409.018C187.189 409.018 187.763 408.78 188.211 408.304C188.659 407.814 188.883 407.142 188.883 406.288C188.883 405.448 188.659 404.79 188.211 404.314C187.763 403.838 187.189 403.6 186.489 403.6C185.789 403.6 185.215 403.838 184.767 404.314C184.319 404.79 184.095 405.448 184.095 406.288C184.095 407.142 184.319 407.814 184.767 408.304C185.215 408.78 185.789 409.018 186.489 409.018ZM206.739 400.618V412H202.938V410.782C202.518 411.244 202.014 411.594 201.426 411.832C200.838 412.07 200.215 412.189 199.557 412.189C198.087 412.189 196.911 411.755 196.029 410.887C195.161 410.019 194.727 408.717 194.727 406.981V400.618H198.717V406.33C198.717 407.184 198.878 407.807 199.2 408.199C199.522 408.591 199.991 408.787 200.607 408.787C201.237 408.787 201.748 408.57 202.14 408.136C202.546 407.688 202.749 407.009 202.749 406.099V400.618H206.739ZM217.163 411.538C216.827 411.748 216.414 411.909 215.924 412.021C215.448 412.133 214.937 412.189 214.391 412.189C212.907 412.189 211.766 411.825 210.968 411.097C210.17 410.369 209.771 409.284 209.771 407.842V404.02H208.112V401.038H209.771V398.077H213.761V401.038H216.365V404.02H213.761V407.8C213.761 408.206 213.866 408.528 214.076 408.766C214.3 408.99 214.594 409.102 214.958 409.102C215.42 409.102 215.826 408.983 216.176 408.745L217.163 411.538ZM226.33 411.538C225.994 411.748 225.581 411.909 225.091 412.021C224.615 412.133 224.104 412.189 223.558 412.189C222.074 412.189 220.933 411.825 220.135 411.097C219.337 410.369 218.938 409.284 218.938 407.842V404.02H217.279V401.038H218.938V398.077H222.928V401.038H225.532V404.02H222.928V407.8C222.928 408.206 223.033 408.528 223.243 408.766C223.467 408.99 223.761 409.102 224.125 409.102C224.587 409.102 224.993 408.983 225.343 408.745L226.33 411.538ZM233.253 412.189C232.035 412.189 230.936 411.937 229.956 411.433C228.976 410.929 228.206 410.229 227.646 409.333C227.1 408.437 226.827 407.422 226.827 406.288C226.827 405.168 227.1 404.16 227.646 403.264C228.206 402.368 228.969 401.675 229.935 401.185C230.915 400.681 232.021 400.429 233.253 400.429C234.485 400.429 235.591 400.681 236.571 401.185C237.551 401.675 238.314 402.368 238.86 403.264C239.406 404.146 239.679 405.154 239.679 406.288C239.679 407.422 239.406 408.437 238.86 409.333C238.314 410.229 237.551 410.929 236.571 411.433C235.591 411.937 234.485 412.189 233.253 412.189ZM233.253 409.018C233.953 409.018 234.527 408.78 234.975 408.304C235.423 407.814 235.647 407.142 235.647 406.288C235.647 405.448 235.423 404.79 234.975 404.314C234.527 403.838 233.953 403.6 233.253 403.6C232.553 403.6 231.979 403.838 231.531 404.314C231.083 404.79 230.859 405.448 230.859 406.288C230.859 407.142 231.083 407.814 231.531 408.304C231.979 408.78 232.553 409.018 233.253 409.018ZM248.94 400.429C250.354 400.429 251.488 400.849 252.342 401.689C253.21 402.529 253.644 403.796 253.644 405.49V412H249.654V406.141C249.654 404.587 249.031 403.81 247.785 403.81C247.099 403.81 246.546 404.034 246.126 404.482C245.72 404.93 245.517 405.602 245.517 406.498V412H241.527V400.618H245.328V401.857C245.776 401.395 246.308 401.045 246.924 400.807C247.54 400.555 248.212 400.429 248.94 400.429Z" fill="white"/>
</g>
</g>
<circle cx="187.5" cy="625.5" r="154.5" fill="#FFE8E8"/>
<g clip-path="url(#clip3_184_3883)">
<path fill-rule="evenodd" clip-rule="evenodd" d="M281.343 809.16C280.667 802.877 280.25 796.551 280.011 790.237C279.772 783.931 280.084 777.547 280.222 771.238C280.501 758.405 280.955 745.54 279.934 732.726C278.969 720.616 276.753 708.59 273.256 696.953C271.553 691.286 269.758 685.391 266.957 680.155C264.141 674.89 259.68 671.384 254.78 668.169C249.562 664.746 244.387 661.258 239.19 657.804C234.828 654.904 226.977 651.528 223.398 647.651C219.632 643.572 218.924 633.46 216.416 628.627C213.973 623.92 207.059 620.85 201.735 620.85C192.923 620.85 186.246 620.399 179 628.554C175.385 632.623 178.262 636.736 174.472 640.641C170.988 644.232 162.079 647.921 157.589 650.005C152.211 652.5 146.697 654.703 141.103 656.665C135.397 658.667 129.547 660.159 123.809 662.048C118.309 663.859 111.127 671.324 106.857 675.273C102.888 678.945 101.902 678.534 98.8845 682.995C92.2612 692.784 85.6307 702.686 80.3564 713.286C77.7293 718.565 75.1855 724.119 74.2323 729.983C73.2155 736.237 74.2236 742.28 75.8725 748.336C77.5509 754.498 82.8807 760.365 84.617 766.511C85.4172 769.344 82.6705 772.435 83.9339 775.105C84.5649 776.438 85.3595 777.624 86.2642 778.786C86.9613 779.681 89.6796 779.483 90.0314 780.578C90.3867 781.685 88.42 783.98 88.3908 785.126C88.3492 786.764 88.284 788.403 88.2302 790.041L87.9125 799.729C87.7038 806.095 87.495 812.461 87.2862 818.827C87.218 820.905 87.1185 822.936 87.6165 824.908C87.4367 824.741 87.2659 824.559 87.1098 824.356C86.653 823.759 85.6842 824.265 86.0719 824.963C86.7191 826.127 87.6497 826.947 88.7431 827.536C90.0137 829.41 282.442 833.595 283.389 828.117C283.92 825.043 282.953 821.752 282.567 818.697C282.164 815.516 281.686 812.349 281.343 809.16Z" fill="white"/>
<path fill-rule="evenodd" clip-rule="evenodd" d="M85.8719 729.994C86.3426 728.645 88.4959 729.229 88.0218 730.586C85.5848 737.57 87.3136 745.169 89.9483 751.835C90.477 753.173 88.3198 753.747 87.7983 752.428C85.0268 745.416 83.3122 737.327 85.8719 729.994ZM102.213 769.882C109.086 770.849 115.964 771.446 122.884 771.928C123.194 771.951 123.461 771.904 123.693 771.803C123.487 774.973 123.319 778.146 123.188 781.319C121.301 781.266 119.376 781.392 117.505 781.341C115.061 781.274 112.62 781.152 110.181 780.965C105.46 780.608 100.747 780.039 96.0781 779.253C94.3334 778.96 92.1176 778.782 90.1304 778.202C88.2519 777.653 86.5796 776.744 85.7017 775.032C84.9548 773.582 84.8182 771.806 84.8182 770.203C84.8182 769.098 85.0077 767.978 85.122 766.865C85.2641 766.765 85.3923 766.645 85.4955 766.511C87.5691 767.166 89.7207 767.626 91.8278 768.072C95.2587 768.803 98.7398 769.394 102.213 769.882ZM98.336 744.102C98.3739 746.233 98.9633 748.169 100.11 749.963C100.886 751.177 98.9555 752.294 98.1849 751.089C96.8348 748.976 96.1509 746.605 96.1063 744.102C96.0806 742.663 98.3103 742.668 98.336 744.102ZM274.517 767.35C275.447 767.402 276.384 767.434 277.317 767.484C278.141 768.188 279.281 768.549 280.322 768.325C280.357 768.415 280.39 768.516 280.42 768.633C280.604 769.349 280.696 770.119 280.802 770.849C280.908 771.569 280.988 772.294 281.044 773.019C281.072 773.384 281.248 774.209 281.025 774.527C280.824 774.814 280.381 774.789 280.074 774.825C279.249 774.915 278.413 774.957 277.583 775.026C276.014 775.163 274.444 775.299 272.878 775.436C271.342 775.57 269.656 775.528 268.154 775.933C267.897 772.918 267.663 769.905 267.446 766.887C269.773 767.231 272.206 767.222 274.517 767.35ZM79.386 762.351C80.3225 764.161 81.1865 765.939 82.9786 767.027C83.2127 767.166 83.4747 767.242 83.7423 767.261C83.5416 768.123 83.4162 769.004 83.3047 769.818C83.0594 771.611 83.0065 773.465 83.4552 775.233C83.8928 776.953 84.6174 778.489 86.0388 779.591C86.6994 780.104 87.4212 780.494 88.1793 780.803C88.0511 781.163 87.9759 781.52 88.0149 781.913C87.8337 782.825 87.7139 783.754 87.5829 784.643C87.2958 786.617 87.0088 788.594 86.783 790.579C86.3315 794.527 85.9775 798.475 85.6793 802.437C85.3811 806.388 85.1665 810.345 84.9881 814.304C84.8961 816.328 84.8153 818.352 84.7401 820.379C84.6648 822.462 84.3276 824.592 85.2473 826.525C85.9887 828.086 88.4943 827.996 89.2635 826.525C90.239 824.653 89.9519 822.431 89.977 820.379C90.0021 818.447 90.0356 816.512 90.0774 814.58C90.161 810.623 90.2836 806.669 90.3812 802.713C90.4759 798.852 90.593 794.992 90.671 791.131C90.71 789.109 90.7128 787.088 90.724 785.066C90.7295 783.946 90.7769 782.75 90.6933 781.581C91.3901 781.746 92.0924 781.885 92.7864 782.027C98.0847 783.115 103.439 783.907 108.826 784.397C111.533 784.643 114.247 784.816 116.962 784.913C118.957 784.986 121.025 785.125 123.052 785.05C122.893 789.89 122.82 794.733 122.829 799.577C122.834 803.07 122.882 806.564 122.968 810.057C123.015 811.895 123.054 813.732 123.11 815.569C123.135 816.395 123.135 817.228 123.191 818.051C123.208 818.307 123.244 818.556 123.291 818.801C123.107 819.323 122.954 819.838 122.829 820.321C122.215 822.663 122.215 824.913 122.489 827.299C122.723 829.324 124.426 831.2 126.675 830.489C127.04 830.375 127.405 830.255 127.767 830.132C131.078 830.509 134.409 830.595 137.768 830.659C142.676 830.754 147.587 830.785 152.497 830.81C162.13 830.86 171.765 830.885 181.4 830.913C200.762 830.969 220.124 831.022 239.486 831.077C244.859 831.094 250.233 831.108 255.606 831.125C258.388 831.133 261.164 831.136 263.943 831.242C265.239 831.292 266.537 831.362 267.833 831.382C269.336 831.407 270.665 830.974 272.101 830.581C272.912 830.355 273.232 829.541 273.059 828.853C274.358 829.162 275.933 828.504 276.376 827.04C276.699 825.978 276.579 824.826 276.097 823.842V823.839C275.166 817.959 273.985 812.106 273.057 806.223C272.039 799.78 271.061 793.323 270.2 786.854C269.553 781.969 269.021 785.432 268.561 780.525C270.565 780.681 272.831 780.07 274.815 779.811C276.239 779.627 277.675 779.479 279.102 779.284C278.996 780.722 279.027 782.189 278.988 783.569C278.912 786.31 278.946 789.04 279.015 791.781C279.149 797.07 279.447 793.992 279.924 799.258C280.406 804.564 280.997 809.851 281.713 815.132C282.081 817.85 282.474 820.566 282.889 823.279C283.082 824.545 283.28 825.808 283.483 827.074C283.726 828.565 283.804 829.979 284.921 831.1C285.771 831.95 287.508 831.878 288.071 830.693C288.784 829.195 288.461 827.913 288.196 826.34C287.982 825.077 287.775 823.814 287.572 822.551C287.137 819.844 286.725 817.134 286.337 814.421C285.59 809.193 284.885 803.957 284.255 798.715C283.62 793.431 282.962 796.518 282.338 791.234C282.023 788.568 281.708 785.909 281.34 783.252C281.153 781.885 281.036 780.43 280.791 779.022C280.869 779.011 280.947 778.997 281.025 778.983C282.719 778.673 284.166 777.717 284.592 775.971C284.999 774.301 284.514 772.38 284.172 770.741C283.879 769.345 283.614 767.562 282.716 766.366C285.882 762.331 287.941 757.255 289.255 752.374C290.686 747.056 291.285 741.506 291.412 736.011C291.559 729.645 291.079 723.316 289.989 717.091C289.963 715.772 289.902 714.454 289.804 713.137C288.846 700.211 284.821 684.912 272.062 678.872C272.011 678.848 271.958 678.825 271.905 678.803C270.905 677.607 269.656 676.53 268.647 675.524C266.861 673.739 264.993 672.033 263.015 670.46C259.096 667.346 254.798 664.859 250.33 662.62C245.813 660.353 241.228 658.226 236.813 655.753C232.967 653.595 229.505 650.996 226.219 648.063C222.526 644.764 219.898 640.317 218.867 635.463C218.814 635.21 218.438 635.279 218.432 635.522C218.162 644.419 224.165 652.281 231.074 657.256C239.335 663.197 249.31 666.01 257.688 671.771C259.77 673.202 261.719 674.816 263.572 676.53C260.732 676.24 257.842 676.424 255.18 677.211C254.132 677.147 253.079 677.127 252.028 677.077C249.625 676.957 247.22 676.846 244.815 676.739C239.912 676.522 235.007 676.324 230.102 676.151C220.478 675.811 210.851 675.554 201.224 675.385C181.879 675.041 162.509 674.975 143.166 675.535C137.921 675.686 110.34 674.64 107.787 674.935C111.541 671.684 115.66 669.03 120.189 666.847C125.855 664.123 131.711 662.305 137.762 660.643C150.223 657.222 163.164 653.924 173.136 645.233C175.614 643.072 177.816 640.588 179.619 637.836C181.341 635.21 183.256 631.847 183.303 628.643C183.337 626.368 180.171 625.54 179.045 627.489C178.345 628.696 177.999 630.02 177.428 631.286C176.86 632.541 176.185 633.751 175.435 634.908C173.961 637.184 172.133 639.213 170.143 641.045C165.901 644.954 160.761 647.817 155.443 649.984C143.37 654.899 130.164 656.974 118.723 663.454C113.718 666.289 108.927 670.201 105.919 675.192C105.434 675.268 104.952 675.357 104.47 675.457C104.83 675.002 105.192 674.548 105.557 674.096C105.797 673.801 105.426 673.411 105.133 673.672C99.4448 678.736 94.2051 684.203 89.4558 690.165C84.9129 695.869 80.6764 701.847 77.6775 708.528C72.2873 720.528 71.0999 734.254 73.8843 747.086C74.6424 750.582 75.7126 754.006 77.0755 757.316C77.7779 759.025 78.5387 760.709 79.386 762.351Z" fill="black"/>
<path fill-rule="evenodd" clip-rule="evenodd" d="M202.191 512.074C218.016 512.074 237.837 530.134 243.638 537.819C248.515 544.28 247.825 577.566 247.825 597.311C247.825 601.44 245.959 609.256 245.282 613.206C242.8 627.681 231.985 639.821 210.58 639.821C193.152 639.821 179.74 634.298 166.77 620.173C163.811 616.951 149.36 628.487 146.405 624.333C138.685 624.333 132.231 552.18 147.387 530.539C162.543 508.897 186.366 512.074 202.191 512.074Z" fill="white"/>
<path fill-rule="evenodd" clip-rule="evenodd" d="M154.627 517.157C163.771 508.834 175.954 504.83 188.245 505.126C194.611 505.279 200.954 506.492 206.966 508.569C209.973 509.612 212.886 510.972 215.67 512.512C216.673 513.065 217.598 513.713 218.489 514.402L218.711 514.575H218.714C221.102 515.434 223.234 516.975 225.168 518.779C229.045 518.47 232.953 518.818 236.702 520.015C241.919 521.682 246.749 524.735 250.141 529.071C254.092 534.118 255.405 540.241 254.937 546.561L254.85 547.635C254.387 553.218 253.557 560.4 248.976 564.068C248.628 564.347 248.243 564.559 247.844 564.687C250.796 569.745 253.218 575.36 254.667 581.031C260.2 602.693 255.946 625.283 249.294 646.161C248.747 647.881 246.147 649.024 244.823 647.343C242.46 644.338 239.026 642.046 235.163 641.616C232.78 641.351 230.408 641.831 228.156 640.749C227.273 640.323 226.42 639.625 225.807 638.778C222.005 640.219 217.911 640.9 213.85 640.732C207.186 640.459 200.062 638.151 195.477 633.087C194.742 632.274 194.555 631.362 194.725 630.539C195.3 630.334 195.89 630.181 196.498 630.086C202.312 633.513 208.721 635.804 215.608 635.948C219.588 636.031 223.47 635.474 226.697 632.988C227.395 632.45 228.037 631.854 228.631 631.214C235.377 626.872 240.134 619.498 242.396 611.599C244.503 604.232 244.243 596.562 243.519 589.006L243.136 585.018C242.579 579.166 242.062 573.297 241.917 567.42L241.961 567.417C243.386 567.325 243.396 565.094 241.961 565.187C238.249 565.427 234.565 564.818 230.864 565.083C230.833 563.333 230.707 561.591 230.193 559.903C229.9 558.938 228.221 558.748 228.043 559.903C227.805 561.447 227.718 562.983 227.692 564.535C222.154 564.462 216.621 563.995 211.082 564.187C210.06 563.097 209.735 561.164 209.257 559.819C209.187 559.621 209.118 559.426 209.045 559.228C208.625 561.149 208.03 563.029 207.247 564.869L205.888 564.873C198.18 564.91 190.316 565.14 182.789 566.741C182.266 566.34 181.955 565.639 181.871 565.002C181.325 560.86 180.546 556.828 179.165 552.881L178.967 552.324C178.951 552.278 178.934 552.229 178.916 552.177C177.899 553.82 176.685 555.352 175.36 556.778C174.58 557.618 173.762 558.422 172.922 559.203C172.106 560.109 171.263 561.002 170.446 561.911C170.478 562.076 170.506 562.244 170.528 562.415C170.778 564.301 170.804 566.214 170.621 568.108C170.29 571.531 169.324 574.829 167.772 577.881L167.723 578.186C167.487 579.616 167.152 581.094 166.369 582.171C167.346 583.266 168.099 584.574 168.536 586.028C168.924 587.322 167.134 588.443 166.206 587.384C165.469 586.543 164.65 585.847 163.75 585.291C163.694 585.369 163.591 585.406 163.476 585.342C160.97 583.951 156.714 584.372 154.212 585.682C151.098 587.311 149.883 590.654 150.229 594.041C150.56 597.278 151.976 601.062 154.722 602.721C155.981 603.482 156.962 603.546 158.3 603.181C158.728 603.065 159.258 602.708 159.486 602.531L159.71 602.352C160.587 601.658 161.404 601.183 162.439 601.165C163.498 600.835 164.562 601.293 164.967 602.404L164.992 602.476C165.182 603.042 165.527 603.753 165.452 604.617C165.374 605.543 164.95 606.385 164.318 607.062C164.209 607.179 164.092 607.296 163.972 607.405C174.87 619.207 176.269 637.598 170.681 652.342C170.438 652.989 170.179 653.628 169.909 654.261C168.975 656.43 165.379 655.758 164.922 653.608C164.786 652.964 164.635 652.323 164.471 651.687C164.169 650.512 163.822 649.349 163.432 648.202L163.284 647.773C162.952 646.825 162.643 645.868 162.308 644.92L162.275 644.812C162.262 644.769 162.248 644.72 162.233 644.664L161.667 645.899L159.947 649.627C159.143 651.366 156.586 650.421 156.491 648.745L156.489 648.687C156.48 648.378 156.469 648.071 156.45 647.767C156.327 645.489 155.934 643.275 155.31 641.109L155.084 641.389C151.73 645.537 147.794 649.425 142.394 650.382C141.04 650.622 139.507 649.206 140.438 647.837C140.822 647.271 141.193 646.691 141.544 646.102C141.24 645.96 140.953 645.812 140.688 645.662C138.64 644.51 136.934 642.871 135.524 641.011C132.533 637.069 131.463 632.106 131.201 627.249C130.922 622.116 131.374 616.704 132.776 611.752C133.383 609.611 134.206 607.556 135.156 605.562C135.089 605.384 135.025 605.205 134.961 605.027C133.935 602.166 133.094 599.241 132.394 596.283C130.984 590.311 130.226 584.149 130.134 578.012C129.966 567.018 131.862 555.848 135.856 545.596C139.981 535.023 146.185 524.838 154.627 517.157ZM149.491 613.277C148.733 612.084 146.838 613.159 147.541 614.36L147.567 614.403C148.769 616.296 149.332 618.449 150.023 620.56C150.466 621.918 152.621 621.338 152.172 619.966L152.023 619.508C151.335 617.367 150.708 615.192 149.491 613.277ZM156.087 590.503L156.59 590.259C158.178 589.502 159.568 588.985 161.444 589.647C163.955 590.531 166.645 593.344 164.947 596.074C164.323 597.08 163.214 597.482 162.071 597.245C160.144 596.845 159.647 595.11 158.67 593.685L158.501 593.444C157.905 592.582 157.152 591.39 156.159 591.052C155.934 590.974 155.839 590.623 156.087 590.503ZM157.503 532.548L157.665 532.403C158.744 531.449 157.161 529.876 156.088 530.824C151.177 535.166 149.471 541.96 146.924 547.752C146.352 549.054 148.273 550.191 148.85 548.878C151.28 543.352 152.893 536.741 157.503 532.548ZM216.517 530.649C215.234 530.07 214.112 531.938 215.345 532.553L215.391 532.575C219.728 534.535 221.573 538.974 223.34 543.095C223.903 544.411 225.824 543.276 225.266 541.972L224.947 541.232C223.104 536.985 220.953 532.657 216.517 530.649ZM223.315 527.967C221.954 527.495 221.372 529.648 222.721 530.119C226.397 531.399 228.919 534.159 231.046 537.315C231.843 538.498 233.775 537.382 232.969 536.189C230.5 532.525 227.568 529.45 223.315 527.967Z" fill="black"/>
<path fill-rule="evenodd" clip-rule="evenodd" d="M215.85 620.243C213.976 619.478 212.305 618.203 211.083 616.574C210.658 616.007 210.547 615.409 210.637 614.862C210.737 614.247 211.101 613.689 211.597 613.315C212.094 612.94 212.717 612.755 213.319 612.85C213.842 612.932 214.362 613.218 214.774 613.812L214.86 613.931C215.587 614.914 216.534 615.721 217.612 616.241C218.652 616.742 219.815 616.976 221.019 616.84C223.311 616.581 224.891 615.341 226.57 613.657C226.778 613.445 226.986 613.225 227.195 613.003C227.328 612.801 227.511 612.671 227.715 612.603C227.941 612.527 228.197 612.531 228.431 612.613C228.657 612.692 228.859 612.842 228.994 613.04C229.123 613.23 229.196 613.463 229.172 613.732C229.019 615.477 228.106 617.034 226.811 618.257C225.372 619.616 223.465 620.555 221.669 620.885C219.691 621.248 217.675 620.988 215.85 620.243ZM222.603 593.32C224.707 594.6 227.914 597.584 225.65 600.757C222.985 603.555 219.148 600.347 217.257 598.896C215.504 597.772 213.534 600.664 215.16 601.976C228.824 612.096 234.369 593.655 223.667 591.816C222.489 591.613 222.051 592.924 222.603 593.32ZM198.117 581.548C198.35 578.661 202.746 578.005 203.183 580.862C203.575 583.422 203.114 585.773 201.961 588.078C200.86 590.279 198.093 589.252 197.883 587.247C197.603 584.56 197.973 583.344 198.117 581.548ZM231.58 580.27C232.193 579.467 233.078 578.919 234.138 579.228C237.451 580.197 236.475 584.901 235.311 587.191C234.679 588.435 232.636 588.75 231.713 587.655C230.208 585.87 229.487 582.304 231.4 580.545C231.452 580.454 231.51 580.362 231.58 580.27ZM201.915 568.913L202.438 568.821C204.057 568.541 206.069 568.272 207.214 569.574C207.822 570.265 208.031 571.548 207.214 572.208C205.779 573.371 204.191 572.921 202.47 573.019C201.052 573.1 199.689 573.335 198.323 573.726C195.327 574.583 192.885 576.147 190.325 577.864C189.99 578.09 189.647 577.66 189.807 577.346C191.284 574.451 194.148 572.073 197.016 570.623C198.546 569.849 200.221 569.208 201.915 568.913ZM228.561 567.616L228.961 567.698C233.32 568.61 238.982 570.43 241.046 574.713C241.124 575.318 241.041 575.448 240.974 575.533L240.951 575.561C240.896 575.633 240.851 575.733 240.589 575.816C240.516 575.798 240.442 575.78 240.368 575.76C239.422 575.512 238.674 575.171 237.949 574.816L237.163 574.429C236.252 573.982 235.332 573.551 234.358 573.233C232.278 572.554 230.139 572.076 227.966 571.821C227.495 571.766 227.042 571.607 226.684 571.334C226.345 571.076 226.085 570.718 225.967 570.242C225.814 569.626 225.858 569.16 226.188 568.604C226.437 568.187 226.792 567.897 227.2 567.731C227.616 567.562 228.09 567.522 228.561 567.616Z" fill="black"/>
<path fill-rule="evenodd" clip-rule="evenodd" d="M246.104 595.816C244.228 598.337 240.749 599.141 237.54 598.863C230.62 598.197 228.441 590.334 228.215 584.222C232.855 585.528 227.822 576.279 243.686 575.262C249.278 574.796 247.737 578.174 250.207 580.643C250.157 585.824 249.295 591.454 246.104 595.816ZM213.141 589.862C209.055 609.004 186.681 604.451 184.331 587.196C186.501 585.663 185.929 581.88 188.625 580.509C192.899 577.777 198.24 577.894 203.093 577.958C209.296 578.385 211.063 580.955 214.25 583.759C214.096 585.633 213.654 587.853 213.141 589.862ZM254.968 572.092C254.738 572.053 254.509 572.017 254.279 571.984C254.1 571.882 253.889 571.804 253.645 571.756C253.086 571.614 252.531 571.519 251.977 571.467C244.025 569.677 225.628 572.219 224.869 579.008C222.336 579.853 220.145 579.096 217.21 579.171C214.976 569.829 176.351 571.148 174.494 576.78C174.487 576.778 174.48 576.777 174.472 576.774C172.688 576.222 170.056 576.355 168.013 576.267C163.651 576.176 159.284 576.565 155.016 577.485C147.024 578.756 136.117 580.243 141.675 590.227C141.676 590.229 141.677 590.231 141.679 590.233L141.679 590.232C142.637 591.214 144.263 590.423 144.323 589.093C142.455 584.364 146.676 583.796 149.923 582.436C158.004 579.532 166.231 579.13 174.588 580.028C175.217 580.768 176.171 581.414 177.179 581.752C182.767 582.68 179.822 586.827 183.354 587.43C182.706 601.884 200.248 609.774 210.412 600.272C214.471 596.303 215.438 590.423 216.379 585.123C216.876 585.011 217.193 584.739 217.377 584.379C218.574 583.184 219.326 582.08 221.692 581.752C224.058 581.424 225.879 582.082 226.125 582.284C226.188 582.409 226.254 582.535 226.332 582.66C226.44 582.847 226.587 582.996 226.754 583.114C224.418 597.508 235.588 606.611 246.864 599.145C251.764 594.534 252.799 587.475 253.004 581.174C253.668 580.773 254.088 579.996 253.859 579.019C253.542 577.673 254.285 576.507 255.468 575.921C257.006 575.161 256.734 572.384 254.968 572.092Z" fill="black"/>
</g>
<rect width="375" height="118" fill="white"/>
<path d="M28 80H44" stroke="#18191F" stroke-width="3" stroke-linecap="round" stroke-linejoin="round"/>
<path d="M28 86H44" stroke="#18191F" stroke-width="3" stroke-linecap="round" stroke-linejoin="round"/>
<path d="M28 74H44" stroke="#18191F" stroke-width="3" stroke-linecap="round" stroke-linejoin="round"/>
<path d="M345 76C345 74.4087 344.368 72.8826 343.243 71.7574C342.117 70.6321 340.591 70 339 70C337.409 70 335.883 70.6321 334.757 71.7574C333.632 72.8826 333 74.4087 333 76C333 83 330 85 330 85H348C348 85 345 83 345 76Z" stroke="#18191F" stroke-width="2" stroke-linecap="round" stroke-linejoin="round"/>
<path d="M340.73 89C340.554 89.3031 340.302 89.5547 339.998 89.7295C339.695 89.9044 339.35 89.9965 339 89.9965C338.65 89.9965 338.305 89.9044 338.002 89.7295C337.698 89.5547 337.446 89.3031 337.27 89" stroke="#18191F" stroke-width="2" stroke-linecap="round" stroke-linejoin="round"/>
<circle cx="348" cy="69" r="6" fill="#F95A2C" stroke="white" stroke-width="2"/>
<path d="M145.389 88C142.696 88 140.452 87.1028 138.657 85.3083C136.886 83.5138 136 81.2944 136 78.6499C136 76.0054 136.886 73.7859 138.657 71.9915C140.452 70.197 142.696 69.2998 145.389 69.2998C147.09 69.2998 148.649 69.713 150.066 70.5394C151.507 71.3658 152.617 72.4637 153.397 73.8332L148.755 76.5249C148.117 75.2026 146.972 74.5415 145.318 74.5415C144.161 74.5415 143.204 74.9311 142.448 75.7103C141.693 76.4658 141.315 77.4457 141.315 78.6499C141.315 79.8541 141.693 80.8457 142.448 81.6249C143.204 82.3805 144.161 82.7583 145.318 82.7583C146.995 82.7583 148.141 82.0971 148.755 80.7749L153.397 83.4312C152.617 84.8243 151.519 85.934 150.101 86.7604C148.684 87.5868 147.113 88 145.389 88Z" fill="#18191F"/>
<path d="M163.259 87.7961C161.377 87.7961 159.679 87.4069 158.165 86.6284C156.651 85.85 155.461 84.7688 154.596 83.385C153.752 82.0011 153.33 80.4334 153.33 78.6819C153.33 76.9521 153.752 75.3952 154.596 74.0114C155.461 72.6275 156.64 71.5571 158.133 70.8003C159.647 70.0219 161.356 69.6327 163.259 69.6327C165.163 69.6327 166.872 70.0219 168.386 70.8003C169.9 71.5571 171.079 72.6275 171.923 74.0114C172.766 75.3736 173.188 76.9305 173.188 78.6819C173.188 80.4334 172.766 82.0011 171.923 83.385C171.079 84.7688 169.9 85.85 168.386 86.6284C166.872 87.4069 165.163 87.7961 163.259 87.7961ZM163.259 82.8984C164.341 82.8984 165.228 82.5309 165.92 81.7957C166.612 81.0389 166.958 80.0009 166.958 78.6819C166.958 77.3846 166.612 76.3683 165.92 75.6331C165.228 74.8979 164.341 74.5303 163.259 74.5303C162.178 74.5303 161.291 74.8979 160.599 75.6331C159.906 76.3683 159.56 77.3846 159.56 78.6819C159.56 80.0009 159.906 81.0389 160.599 81.7957C161.291 82.5309 162.178 82.8984 163.259 82.8984Z" fill="#18191F"/>
<path d="M186.128 69.6327C188.313 69.6327 190.065 70.2814 191.385 71.5788C192.726 72.8761 193.396 74.833 193.396 77.4494V87.5042H187.231V78.4549C187.231 76.0547 186.269 74.8547 184.344 74.8547C183.284 74.8547 182.429 75.2006 181.78 75.8926C181.153 76.5845 180.839 77.6224 180.839 79.0063V87.5042H174.674V69.9246H180.547V71.8382C181.24 71.1247 182.062 70.5841 183.013 70.2165C183.965 69.8273 185.003 69.6327 186.128 69.6327Z" fill="#18191F"/>
<path d="M208.097 86.7906C207.578 87.1149 206.94 87.3636 206.183 87.5366C205.447 87.7096 204.658 87.7961 203.814 87.7961C201.521 87.7961 199.758 87.2339 198.525 86.1095C197.292 84.9851 196.676 83.3093 196.676 81.0821V75.179H194.112V70.5733H196.676V66H202.841V70.5733H206.864V75.179H202.841V81.0172C202.841 81.6443 203.003 82.1416 203.327 82.5092C203.673 82.8552 204.128 83.0282 204.69 83.0282C205.404 83.0282 206.031 82.8444 206.572 82.4768L208.097 86.7906Z" fill="#18191F"/>
<path d="M215.042 72.0328C215.669 71.2328 216.48 70.6382 217.475 70.2489C218.492 69.8381 219.649 69.6327 220.947 69.6327V75.179C220.385 75.1141 219.92 75.0817 219.552 75.0817C218.232 75.0817 217.194 75.4385 216.437 76.152C215.702 76.8656 215.334 77.9576 215.334 79.4279V87.5042H209.169V69.9246H215.042V72.0328Z" fill="#18191F"/>
<path d="M229.554 69.6327C232.475 69.6327 234.703 70.303 236.239 71.6436C237.774 72.9626 238.542 74.9952 238.542 77.7413V87.5042H232.799V85.2337C231.912 86.942 230.182 87.7961 227.608 87.7961C226.245 87.7961 225.066 87.5582 224.071 87.0825C223.076 86.6068 222.319 85.9689 221.8 85.1689C221.302 84.3472 221.053 83.4174 221.053 82.3795C221.053 80.7145 221.691 79.4279 222.968 78.5198C224.244 77.59 226.212 77.1251 228.873 77.1251H232.377C232.269 75.2655 231.025 74.3357 228.646 74.3357C227.802 74.3357 226.948 74.4763 226.083 74.7574C225.217 75.0168 224.482 75.3844 223.876 75.8601L221.8 71.6761C222.773 71.0274 223.952 70.53 225.336 70.1841C226.742 69.8165 228.148 69.6327 229.554 69.6327ZM229.327 83.9039C230.041 83.9039 230.669 83.7309 231.209 83.385C231.75 83.039 232.139 82.5308 232.377 81.8605V80.3361H229.717C227.921 80.3361 227.024 80.9307 227.024 82.12C227.024 82.6606 227.229 83.0931 227.64 83.4174C228.051 83.7417 228.614 83.9039 229.327 83.9039Z" fill="#18191F"/>
</g>
<defs>
<filter id="filter0_d_184_3883" x="104" y="374" width="167" height="66" filterUnits="userSpaceOnUse" color-interpolation-filters="sRGB">
<feFlood flood-opacity="0" result="BackgroundImageFix"/>
<feColorMatrix in="SourceAlpha" type="matrix" values="0 0 0 0 0 0 0 0 0 0 0 0 0 0 0 0 0 0 127 0" result="hardAlpha"/>
<feOffset dy="6"/>
<feColorMatrix type="matrix" values="0 0 0 0 0.0941176 0 0 0 0 0.0980392 0 0 0 0 0.121569 0 0 0 1 0"/>
<feBlend mode="normal" in2="BackgroundImageFix" result="effect1_dropShadow_184_3883"/>
<feBlend mode="normal" in="SourceGraphic" in2="effect1_dropShadow_184_3883" result="shape"/>
</filter>
<clipPath id="clip0_184_3883">
<rect width="375" height="812" fill="white"/>
</clipPath>
<clipPath id="clip1_184_3883">
<rect width="327" height="188" fill="white" transform="translate(24 154)"/>
</clipPath>
<clipPath id="clip2_184_3883">
<rect width="135" height="28" fill="white" transform="translate(120 390)"/>
</clipPath>
<clipPath id="clip3_184_3883">
<rect width="316.615" height="343" fill="white" transform="translate(27 484)"/>
</clipPath>
</defs>
</svg>
