<svg width="375" height="812" viewBox="0 0 375 812" fill="none" xmlns="http://www.w3.org/2000/svg">
<rect width="375" height="812" fill="white"/>
<circle cx="187.5" cy="241.5" r="154.5" fill="#FFBD12"/>
<g clip-path="url(#clip0_184_1719)">
<path fill-rule="evenodd" clip-rule="evenodd" d="M259.796 382.477C259.284 377.715 258.968 372.919 258.787 368.133C258.606 363.353 258.842 358.514 258.946 353.732C259.158 344.003 259.503 334.252 258.728 324.539C257.997 315.359 256.317 306.243 253.666 297.422C252.375 293.127 251.015 288.658 248.892 284.689C246.757 280.698 243.375 278.041 239.661 275.603C235.706 273.009 231.783 270.365 227.844 267.746C224.537 265.548 218.586 262.989 215.873 260.05C213.018 256.958 212.482 249.293 210.581 245.63C208.729 242.062 203.488 239.735 199.452 239.735C192.773 239.735 187.712 239.393 182.219 245.574C179.479 248.659 181.659 251.777 178.787 254.737C176.146 257.458 169.392 260.255 165.988 261.834C161.912 263.726 157.732 265.396 153.492 266.883C149.167 268.401 144.733 269.532 140.383 270.964C136.214 272.336 130.77 277.994 127.533 280.988C124.524 283.772 123.777 283.46 121.49 286.841C116.469 294.262 111.443 301.768 107.445 309.802C105.454 313.805 103.525 318.014 102.803 322.459C102.032 327.2 102.796 331.781 104.046 336.371C105.318 341.042 109.358 345.489 110.675 350.148C111.281 352.296 109.199 354.639 110.157 356.662C110.635 357.673 111.238 358.572 111.923 359.453C112.452 360.131 114.512 359.981 114.779 360.811C115.048 361.65 113.557 363.39 113.535 364.258C113.504 365.5 113.454 366.743 113.414 367.985L113.173 375.328C113.014 380.154 112.856 384.979 112.698 389.805C112.646 391.38 112.571 392.919 112.948 394.414C112.812 394.287 112.683 394.15 112.564 393.995C112.218 393.543 111.484 393.926 111.778 394.455C112.268 395.338 112.973 395.96 113.802 396.406C114.765 397.826 260.63 400.999 261.347 396.846C261.75 394.516 261.017 392.022 260.724 389.706C260.419 387.295 260.057 384.894 259.796 382.477Z" fill="white"/>
<path fill-rule="evenodd" clip-rule="evenodd" d="M111.626 322.467C111.983 321.445 113.615 321.888 113.256 322.917C111.408 328.21 112.719 333.971 114.716 339.024C115.117 340.038 113.481 340.473 113.086 339.473C110.985 334.158 109.686 328.027 111.626 322.467ZM124.012 352.704C129.222 353.437 134.436 353.889 139.682 354.255C139.917 354.272 140.119 354.236 140.295 354.16C140.138 356.563 140.012 358.968 139.912 361.373C138.482 361.333 137.022 361.428 135.605 361.39C133.752 361.339 131.901 361.246 130.053 361.105C126.474 360.834 122.901 360.403 119.362 359.807C118.04 359.585 116.36 359.45 114.854 359.01C113.43 358.594 112.162 357.905 111.497 356.607C110.931 355.508 110.827 354.162 110.827 352.947C110.827 352.11 110.971 351.26 111.057 350.417C111.165 350.341 111.262 350.25 111.341 350.148C112.912 350.645 114.543 350.994 116.141 351.332C118.741 351.886 121.38 352.334 124.012 352.704ZM121.074 333.162C121.103 334.777 121.549 336.244 122.419 337.604C123.007 338.525 121.544 339.372 120.959 338.458C119.936 336.856 119.418 335.059 119.384 333.162C119.364 332.071 121.054 332.075 121.074 333.162ZM254.622 350.784C255.327 350.824 256.037 350.848 256.745 350.886C257.369 351.42 258.233 351.693 259.022 351.523C259.049 351.592 259.074 351.668 259.097 351.757C259.236 352.3 259.306 352.883 259.386 353.437C259.466 353.982 259.528 354.532 259.57 355.081C259.591 355.358 259.724 355.984 259.555 356.225C259.403 356.442 259.067 356.423 258.835 356.451C258.209 356.518 257.576 356.55 256.946 356.603C255.757 356.706 254.567 356.81 253.38 356.914C252.216 357.015 250.938 356.984 249.799 357.29C249.604 355.005 249.427 352.721 249.262 350.434C251.026 350.694 252.871 350.687 254.622 350.784ZM106.709 346.995C107.419 348.367 108.074 349.715 109.433 350.539C109.61 350.645 109.809 350.702 110.012 350.717C109.859 351.37 109.764 352.038 109.68 352.655C109.494 354.014 109.454 355.419 109.794 356.759C110.126 358.063 110.675 359.228 111.752 360.063C112.253 360.452 112.8 360.747 113.375 360.982C113.278 361.255 113.221 361.525 113.25 361.823C113.113 362.514 113.022 363.218 112.923 363.892C112.705 365.389 112.488 366.887 112.317 368.392C111.974 371.385 111.706 374.377 111.48 377.381C111.254 380.376 111.091 383.375 110.956 386.376C110.886 387.91 110.825 389.445 110.768 390.981C110.711 392.56 110.455 394.175 111.152 395.639C111.714 396.823 113.614 396.755 114.197 395.639C114.936 394.221 114.719 392.537 114.738 390.981C114.757 389.516 114.782 388.05 114.814 386.585C114.877 383.586 114.97 380.589 115.044 377.59C115.116 374.663 115.205 371.738 115.264 368.81C115.293 367.278 115.295 365.746 115.304 364.214C115.308 363.364 115.344 362.457 115.281 361.572C115.809 361.696 116.341 361.802 116.867 361.91C120.883 362.734 124.942 363.334 129.026 363.706C131.077 363.892 133.135 364.023 135.193 364.098C136.705 364.152 138.273 364.258 139.809 364.201C139.688 367.87 139.633 371.541 139.64 375.212C139.644 377.86 139.68 380.509 139.745 383.157C139.781 384.55 139.811 385.943 139.853 387.335C139.872 387.961 139.872 388.593 139.914 389.216C139.927 389.411 139.955 389.599 139.99 389.785C139.851 390.18 139.735 390.571 139.64 390.937C139.175 392.712 139.175 394.418 139.382 396.227C139.559 397.761 140.85 399.184 142.555 398.645C142.832 398.558 143.109 398.467 143.383 398.374C145.893 398.659 148.418 398.725 150.964 398.774C154.684 398.846 158.407 398.869 162.129 398.888C169.431 398.926 176.734 398.945 184.038 398.966C198.714 399.008 213.391 399.048 228.068 399.091C232.141 399.104 236.214 399.114 240.288 399.127C242.396 399.133 244.5 399.135 246.607 399.216C247.589 399.254 248.574 399.306 249.556 399.321C250.695 399.34 251.702 399.012 252.79 398.715C253.405 398.543 253.648 397.926 253.517 397.404C254.502 397.639 255.695 397.14 256.031 396.03C256.276 395.225 256.186 394.352 255.82 393.606V393.604C255.114 389.147 254.219 384.71 253.515 380.251C252.744 375.367 252.002 370.472 251.35 365.569C250.859 361.865 250.456 364.49 250.107 360.771C251.626 360.889 253.344 360.426 254.848 360.23C255.928 360.09 257.016 359.978 258.097 359.83C258.017 360.921 258.04 362.032 258.011 363.079C257.954 365.156 257.979 367.225 258.032 369.303C258.133 373.312 258.359 370.979 258.721 374.971C259.086 378.993 259.534 383.001 260.077 387.004C260.356 389.064 260.654 391.123 260.969 393.179C261.114 394.139 261.264 395.096 261.419 396.056C261.602 397.186 261.662 398.258 262.509 399.108C263.153 399.752 264.469 399.697 264.896 398.799C265.437 397.664 265.192 396.692 264.991 395.5C264.828 394.542 264.672 393.585 264.518 392.628C264.188 390.575 263.876 388.521 263.582 386.465C263.016 382.502 262.481 378.533 262.004 374.559C261.522 370.554 261.024 372.894 260.55 368.889C260.312 366.868 260.073 364.852 259.794 362.838C259.652 361.802 259.564 360.699 259.378 359.632C259.437 359.623 259.496 359.612 259.555 359.602C260.84 359.367 261.936 358.642 262.259 357.319C262.568 356.053 262.2 354.597 261.94 353.355C261.719 352.296 261.518 350.945 260.837 350.038C263.237 346.98 264.798 343.132 265.794 339.432C266.878 335.401 267.332 331.194 267.429 327.029C267.54 322.203 267.177 317.405 266.35 312.687C266.33 311.687 266.284 310.688 266.21 309.689C265.483 299.891 262.433 288.295 252.761 283.717C252.723 283.698 252.683 283.681 252.643 283.664C251.884 282.757 250.938 281.941 250.173 281.179C248.819 279.826 247.403 278.532 245.903 277.34C242.933 274.98 239.675 273.094 236.288 271.397C232.864 269.679 229.388 268.066 226.042 266.191C223.126 264.556 220.502 262.586 218.012 260.362C215.212 257.862 213.22 254.491 212.438 250.812C212.398 250.619 212.113 250.672 212.109 250.856C211.904 257.6 216.455 263.56 221.692 267.331C227.954 271.835 235.515 273.967 241.866 278.334C243.444 279.418 244.921 280.642 246.326 281.941C244.173 281.721 241.982 281.861 239.964 282.457C239.17 282.408 238.371 282.394 237.575 282.356C235.754 282.265 233.931 282.18 232.107 282.1C228.391 281.935 224.673 281.785 220.955 281.654C213.659 281.396 206.362 281.202 199.065 281.073C184.401 280.813 169.718 280.762 155.056 281.187C151.08 281.301 130.173 280.509 128.238 280.732C131.083 278.268 134.206 276.256 137.639 274.601C141.934 272.536 146.373 271.158 150.959 269.899C160.405 267.305 170.214 264.805 177.774 258.217C179.652 256.579 181.321 254.696 182.688 252.61C183.993 250.619 185.445 248.07 185.481 245.642C185.506 243.917 183.106 243.29 182.252 244.767C181.722 245.682 181.46 246.686 181.027 247.645C180.596 248.597 180.085 249.514 179.517 250.391C178.399 252.116 177.013 253.654 175.505 255.043C172.289 258.006 168.393 260.176 164.362 261.819C155.21 265.545 145.2 267.117 136.528 272.029C132.733 274.178 129.102 277.144 126.822 280.927C126.455 280.984 126.089 281.051 125.724 281.128C125.996 280.783 126.271 280.439 126.547 280.096C126.729 279.872 126.448 279.576 126.226 279.775C121.914 283.613 117.943 287.758 114.343 292.276C110.899 296.601 107.688 301.132 105.414 306.196C101.328 315.293 100.428 325.697 102.539 335.424C103.114 338.074 103.925 340.669 104.958 343.178C105.49 344.473 106.067 345.75 106.709 346.995Z" fill="black"/>
<path fill-rule="evenodd" clip-rule="evenodd" d="M199.798 157.281C211.794 157.281 226.818 170.97 231.215 176.796C234.912 181.693 234.389 206.924 234.389 221.892C234.389 225.022 232.975 230.946 232.462 233.941C230.58 244.913 222.382 254.115 206.157 254.115C192.946 254.115 182.779 249.929 172.948 239.222C170.705 236.779 159.751 245.524 157.511 242.375C151.66 242.375 146.767 187.682 158.255 171.277C169.744 154.873 187.802 157.281 199.798 157.281Z" fill="white"/>
<path fill-rule="evenodd" clip-rule="evenodd" d="M163.743 161.133C170.675 154.824 179.91 151.789 189.226 152.013C194.052 152.13 198.86 153.049 203.417 154.624C205.697 155.414 207.905 156.446 210.015 157.612C210.776 158.032 211.477 158.523 212.152 159.045L212.32 159.176H212.322C214.133 159.827 215.749 160.996 217.215 162.363C220.154 162.129 223.116 162.393 225.957 163.3C229.912 164.563 233.574 166.878 236.145 170.164C239.14 173.99 240.135 178.631 239.78 183.422L239.715 184.236C239.363 188.468 238.734 193.912 235.262 196.693C234.998 196.904 234.706 197.065 234.404 197.162C236.641 200.996 238.477 205.253 239.576 209.551C243.769 225.971 240.545 243.095 235.503 258.921C235.088 260.225 233.117 261.091 232.114 259.817C230.322 257.539 227.719 255.801 224.791 255.476C222.985 255.275 221.187 255.639 219.48 254.818C218.81 254.495 218.164 253.967 217.699 253.324C214.817 254.417 211.714 254.933 208.636 254.806C203.584 254.599 198.184 252.849 194.709 249.011C194.151 248.395 194.01 247.703 194.138 247.079C194.574 246.924 195.022 246.808 195.483 246.735C199.89 249.334 204.747 251.07 209.968 251.179C212.985 251.242 215.928 250.82 218.374 248.936C218.903 248.528 219.39 248.076 219.84 247.591C224.954 244.3 228.559 238.71 230.274 232.722C231.871 227.138 231.674 221.324 231.125 215.596L230.835 212.574C230.413 208.138 230.021 203.688 229.911 199.233L229.944 199.232C231.024 199.162 231.032 197.47 229.944 197.541C227.13 197.723 224.338 197.261 221.533 197.462C221.509 196.136 221.414 194.815 221.024 193.536C220.801 192.805 219.529 192.66 219.394 193.536C219.214 194.706 219.148 195.871 219.128 197.047C214.93 196.991 210.736 196.638 206.537 196.783C205.763 195.957 205.516 194.491 205.154 193.472C205.101 193.322 205.048 193.174 204.993 193.024C204.675 194.481 204.224 195.905 203.63 197.3L202.6 197.303C196.758 197.331 190.796 197.506 185.091 198.719C184.695 198.415 184.459 197.883 184.395 197.401C183.981 194.261 183.39 191.205 182.344 188.213L182.194 187.791C182.182 187.756 182.169 187.718 182.155 187.679C181.384 188.925 180.464 190.086 179.46 191.167C178.868 191.804 178.248 192.413 177.611 193.005C176.993 193.692 176.354 194.369 175.735 195.058C175.759 195.183 175.78 195.31 175.797 195.44C175.987 196.87 176.006 198.32 175.867 199.755C175.616 202.35 174.884 204.85 173.708 207.163L173.671 207.395C173.492 208.479 173.238 209.599 172.644 210.415C173.385 211.245 173.956 212.237 174.286 213.339C174.581 214.32 173.224 215.17 172.521 214.367C171.962 213.729 171.341 213.202 170.659 212.78C170.616 212.839 170.538 212.868 170.451 212.819C168.552 211.764 165.326 212.083 163.429 213.077C161.069 214.311 160.148 216.845 160.41 219.413C160.661 221.867 161.734 224.735 163.815 225.992C164.77 226.569 165.514 226.618 166.528 226.341C166.852 226.253 167.254 225.983 167.427 225.849L167.596 225.712C168.261 225.187 168.88 224.827 169.665 224.813C170.468 224.563 171.275 224.91 171.582 225.752L171.6 225.806C171.744 226.235 172.006 226.774 171.949 227.43C171.89 228.131 171.569 228.77 171.089 229.283C171.007 229.372 170.918 229.461 170.827 229.543C179.088 238.49 180.148 252.43 175.912 263.606C175.729 264.097 175.532 264.581 175.327 265.061C174.619 266.705 171.894 266.195 171.548 264.566C171.444 264.078 171.33 263.592 171.205 263.11C170.976 262.219 170.714 261.337 170.418 260.468L170.305 260.142C170.054 259.424 169.819 258.699 169.566 257.98L169.541 257.898C169.531 257.866 169.521 257.828 169.509 257.786L169.08 258.722L167.776 261.548C167.167 262.867 165.228 262.15 165.156 260.879L165.155 260.836C165.148 260.601 165.14 260.369 165.125 260.138C165.032 258.411 164.734 256.733 164.261 255.091L164.09 255.303C161.548 258.448 158.564 261.395 154.471 262.121C153.444 262.302 152.282 261.229 152.988 260.191C153.279 259.762 153.56 259.322 153.826 258.876C153.596 258.769 153.379 258.657 153.178 258.542C151.625 257.67 150.332 256.427 149.263 255.017C146.996 252.029 146.185 248.267 145.986 244.585C145.775 240.694 146.117 236.592 147.18 232.838C147.641 231.215 148.264 229.657 148.984 228.146C148.934 228.011 148.885 227.876 148.836 227.74C148.059 225.572 147.421 223.355 146.891 221.112C145.822 216.585 145.247 211.914 145.177 207.263C145.05 198.929 146.487 190.462 149.515 182.691C152.641 174.677 157.344 166.956 163.743 161.133ZM159.85 233.994C159.276 233.09 157.839 233.905 158.372 234.815L158.392 234.848C159.303 236.283 159.73 237.915 160.254 239.515C160.589 240.544 162.223 240.104 161.882 239.064L161.77 238.717C161.248 237.095 160.773 235.446 159.85 233.994ZM164.85 216.731L165.232 216.546C166.435 215.972 167.489 215.581 168.911 216.082C170.814 216.752 172.853 218.885 171.566 220.954C171.093 221.717 170.252 222.021 169.386 221.841C167.926 221.538 167.549 220.223 166.808 219.143L166.68 218.96C166.229 218.307 165.657 217.403 164.905 217.147C164.734 217.088 164.662 216.822 164.85 216.731ZM165.924 172.8L166.047 172.69C166.864 171.967 165.664 170.775 164.851 171.494C161.128 174.784 159.835 179.935 157.904 184.325C157.471 185.312 158.927 186.174 159.364 185.179C161.206 180.99 162.429 175.979 165.924 172.8ZM210.658 171.361C209.685 170.922 208.834 172.338 209.769 172.804L209.804 172.821C213.091 174.307 214.49 177.671 215.829 180.795C216.256 181.793 217.712 180.933 217.289 179.943L217.048 179.383C215.65 176.164 214.02 172.883 210.658 171.361ZM215.81 169.327C214.779 168.97 214.337 170.602 215.36 170.959C218.146 171.929 220.058 174.021 221.67 176.414C222.275 177.31 223.739 176.465 223.128 175.56C221.256 172.783 219.034 170.452 215.81 169.327Z" fill="black"/>
<path fill-rule="evenodd" clip-rule="evenodd" d="M210.152 239.274C208.731 238.695 207.464 237.728 206.538 236.493C206.216 236.064 206.132 235.61 206.2 235.196C206.276 234.729 206.552 234.307 206.928 234.023C207.305 233.739 207.777 233.599 208.233 233.67C208.629 233.732 209.024 233.949 209.336 234.4L209.401 234.49C209.952 235.235 210.67 235.847 211.488 236.241C212.276 236.621 213.157 236.798 214.07 236.695C215.807 236.499 217.005 235.559 218.277 234.282C218.435 234.121 218.593 233.955 218.752 233.786C218.852 233.633 218.991 233.535 219.145 233.483C219.317 233.426 219.511 233.429 219.688 233.491C219.859 233.551 220.013 233.664 220.115 233.815C220.213 233.958 220.268 234.135 220.25 234.339C220.134 235.662 219.442 236.842 218.46 237.769C217.37 238.799 215.924 239.511 214.563 239.761C213.063 240.036 211.535 239.839 210.152 239.274ZM215.27 218.867C216.866 219.837 219.296 222.099 217.58 224.504C215.56 226.624 212.651 224.193 211.218 223.093C209.889 222.241 208.396 224.433 209.629 225.428C219.986 233.099 224.189 219.12 216.077 217.726C215.184 217.572 214.852 218.566 215.27 218.867ZM196.71 209.943C196.886 207.754 200.219 207.257 200.55 209.423C200.847 211.363 200.498 213.146 199.624 214.893C198.789 216.561 196.691 215.783 196.533 214.263C196.32 212.226 196.6 211.305 196.71 209.943ZM222.076 208.974C222.54 208.365 223.211 207.95 224.015 208.185C226.526 208.919 225.786 212.485 224.904 214.221C224.425 215.163 222.876 215.402 222.176 214.572C221.035 213.219 220.489 210.516 221.939 209.183C221.978 209.114 222.022 209.044 222.076 208.974ZM199.589 200.366L199.985 200.296C201.212 200.084 202.738 199.88 203.606 200.867C204.066 201.39 204.225 202.363 203.606 202.864C202.517 203.745 201.314 203.403 200.01 203.478C198.935 203.54 197.902 203.718 196.866 204.014C194.595 204.663 192.744 205.849 190.804 207.151C190.549 207.322 190.289 206.996 190.411 206.758C191.531 204.563 193.701 202.761 195.875 201.662C197.035 201.075 198.305 200.589 199.589 200.366ZM219.787 199.383L220.09 199.445C223.394 200.136 227.686 201.516 229.251 204.762C229.31 205.221 229.247 205.319 229.196 205.383L229.179 205.405C229.137 205.46 229.103 205.535 228.904 205.598C228.849 205.585 228.793 205.571 228.737 205.556C228.02 205.368 227.452 205.109 226.903 204.84L226.308 204.547C225.617 204.208 224.92 203.881 224.181 203.64C222.604 203.126 220.983 202.763 219.336 202.57C218.979 202.528 218.636 202.407 218.364 202.201C218.107 202.005 217.91 201.733 217.821 201.373C217.705 200.906 217.738 200.552 217.988 200.131C218.177 199.815 218.446 199.596 218.755 199.47C219.071 199.341 219.43 199.311 219.787 199.383Z" fill="black"/>
<path fill-rule="evenodd" clip-rule="evenodd" d="M233.085 220.758C231.663 222.67 229.025 223.279 226.593 223.068C221.347 222.563 219.696 216.603 219.524 211.97C223.042 212.96 219.227 205.949 231.252 205.178C235.491 204.825 234.322 207.386 236.195 209.257C236.157 213.184 235.503 217.452 233.085 220.758ZM208.098 216.245C205.001 230.755 188.041 227.304 186.259 214.224C187.904 213.063 187.471 210.194 189.515 209.155C192.754 207.085 196.803 207.173 200.482 207.222C205.183 207.545 206.523 209.494 208.938 211.619C208.822 213.039 208.487 214.722 208.098 216.245ZM239.803 202.775C239.63 202.746 239.456 202.719 239.281 202.693C239.146 202.616 238.986 202.557 238.801 202.521C238.377 202.413 237.956 202.341 237.536 202.302C231.508 200.945 217.563 202.872 216.988 208.017C215.068 208.659 213.407 208.084 211.182 208.142C209.489 201.06 180.211 202.06 178.803 206.329C178.797 206.328 178.792 206.326 178.787 206.325C177.434 205.906 175.439 206.007 173.891 205.94C170.584 205.871 167.274 206.166 164.038 206.864C157.98 207.827 149.712 208.954 153.926 216.522C153.927 216.524 153.927 216.525 153.928 216.526L153.929 216.526C154.655 217.27 155.887 216.671 155.933 215.663C154.517 212.077 157.716 211.647 160.178 210.616C166.303 208.415 172.539 208.11 178.874 208.791C179.351 209.352 180.074 209.842 180.838 210.098C185.074 210.801 182.842 213.944 185.519 214.402C185.027 225.358 198.325 231.339 206.03 224.137C209.106 221.128 209.839 216.671 210.552 212.653C210.93 212.568 211.169 212.362 211.309 212.089C212.216 211.183 212.786 210.347 214.58 210.098C216.373 209.849 217.754 210.348 217.94 210.501C217.988 210.596 218.038 210.691 218.097 210.786C218.179 210.928 218.29 211.041 218.417 211.13C216.646 222.041 225.113 228.941 233.661 223.282C237.375 219.787 238.16 214.436 238.315 209.66C238.818 209.356 239.137 208.767 238.963 208.026C238.722 207.006 239.286 206.122 240.183 205.678C241.348 205.101 241.142 202.997 239.803 202.775Z" fill="black"/>
</g>
<rect width="375" height="108" transform="translate(0 696)" fill="white"/>
<rect x="25" y="721" width="155" height="58" rx="15" fill="white"/>
<rect x="25" y="721" width="155" height="58" rx="15" stroke="#18191F" stroke-width="2"/>
<g clip-path="url(#clip1_184_1719)">
<path d="M84.5676 758.294C83.3776 758.294 82.2226 758.147 81.1026 757.853C79.9826 757.559 79.0726 757.167 78.3726 756.677L79.7376 753.611C80.3956 754.045 81.1586 754.395 82.0266 754.661C82.8946 754.927 83.7486 755.06 84.5886 755.06C86.1846 755.06 86.9826 754.661 86.9826 753.863C86.9826 753.443 86.7516 753.135 86.2896 752.939C85.8416 752.729 85.1136 752.512 84.1056 752.288C82.9996 752.05 82.0756 751.798 81.3336 751.532C80.5916 751.252 79.9546 750.811 79.4226 750.209C78.8906 749.607 78.6246 748.795 78.6246 747.773C78.6246 746.877 78.8696 746.072 79.3596 745.358C79.8496 744.63 80.5776 744.056 81.5436 743.636C82.5236 743.216 83.7206 743.006 85.1346 743.006C86.1006 743.006 87.0526 743.118 87.9906 743.342C88.9286 743.552 89.7546 743.867 90.4686 744.287L89.1876 747.374C87.7876 746.618 86.4296 746.24 85.1136 746.24C84.2876 746.24 83.6856 746.366 83.3076 746.618C82.9296 746.856 82.7406 747.171 82.7406 747.563C82.7406 747.955 82.9646 748.249 83.4126 748.445C83.8606 748.641 84.5816 748.844 85.5756 749.054C86.6956 749.292 87.6196 749.551 88.3476 749.831C89.0896 750.097 89.7266 750.531 90.2586 751.133C90.8046 751.721 91.0776 752.526 91.0776 753.548C91.0776 754.43 90.8326 755.228 90.3426 755.942C89.8526 756.656 89.1176 757.23 88.1376 757.664C87.1576 758.084 85.9676 758.294 84.5676 758.294ZM97.9753 754.01L96.7993 755.207V758H92.8093V742.418H96.7993V750.587L100.873 746.618H105.598L100.873 751.49L105.997 758H101.167L97.9753 754.01ZM107.165 746.618H111.155V758H107.165V746.618ZM109.16 745.358C108.432 745.358 107.844 745.155 107.396 744.749C106.948 744.343 106.724 743.839 106.724 743.237C106.724 742.635 106.948 742.131 107.396 741.725C107.844 741.319 108.432 741.116 109.16 741.116C109.888 741.116 110.476 741.312 110.924 741.704C111.372 742.082 111.596 742.572 111.596 743.174C111.596 743.804 111.372 744.329 110.924 744.749C110.476 745.155 109.888 745.358 109.16 745.358ZM120.909 746.429C121.945 746.429 122.883 746.674 123.723 747.164C124.577 747.64 125.249 748.326 125.739 749.222C126.243 750.104 126.495 751.133 126.495 752.309C126.495 753.485 126.243 754.521 125.739 755.417C125.249 756.299 124.577 756.985 123.723 757.475C122.883 757.951 121.945 758.189 120.909 758.189C119.579 758.189 118.522 757.79 117.738 756.992V762.074H113.748V746.618H117.549V747.752C118.291 746.87 119.411 746.429 120.909 746.429ZM120.069 755.018C120.769 755.018 121.343 754.78 121.791 754.304C122.239 753.814 122.463 753.149 122.463 752.309C122.463 751.469 122.239 750.811 121.791 750.335C121.343 749.845 120.769 749.6 120.069 749.6C119.369 749.6 118.795 749.845 118.347 750.335C117.899 750.811 117.675 751.469 117.675 752.309C117.675 753.149 117.899 753.814 118.347 754.304C118.795 754.78 119.369 755.018 120.069 755.018Z" fill="#18191F"/>
</g>
<rect x="194" y="720" width="157" height="60" rx="16" fill="#18191F"/>
<g clip-path="url(#clip2_184_1719)">
<path d="M261.716 743.3V758H258.293L251.804 750.167V758H247.73V743.3H251.153L257.642 751.133V743.3H261.716ZM276.094 752.33C276.094 752.358 276.073 752.687 276.031 753.317H267.757C267.925 753.905 268.247 754.36 268.723 754.682C269.213 754.99 269.822 755.144 270.55 755.144C271.096 755.144 271.565 755.067 271.957 754.913C272.363 754.759 272.769 754.507 273.175 754.157L275.275 756.341C274.169 757.573 272.552 758.189 270.424 758.189C269.094 758.189 267.925 757.937 266.917 757.433C265.909 756.929 265.125 756.229 264.565 755.333C264.019 754.437 263.746 753.422 263.746 752.288C263.746 751.168 264.012 750.167 264.544 749.285C265.09 748.389 265.839 747.689 266.791 747.185C267.743 746.681 268.814 746.429 270.004 746.429C271.138 746.429 272.167 746.667 273.091 747.143C274.015 747.605 274.743 748.284 275.275 749.18C275.821 750.062 276.094 751.112 276.094 752.33ZM270.025 749.264C269.409 749.264 268.891 749.439 268.471 749.789C268.065 750.139 267.806 750.615 267.694 751.217H272.356C272.244 750.615 271.978 750.139 271.558 749.789C271.152 749.439 270.641 749.264 270.025 749.264ZM284.85 758L282.813 755.018L280.629 758H276.303L280.629 752.309L276.429 746.618H280.923L282.939 749.495L285.039 746.618H289.26L285.06 752.162L289.407 758H284.85ZM298.482 757.538C298.146 757.748 297.733 757.909 297.243 758.021C296.767 758.133 296.256 758.189 295.71 758.189C294.226 758.189 293.085 757.825 292.287 757.097C291.489 756.369 291.09 755.284 291.09 753.842V750.02H289.431V747.038H291.09V744.077H295.08V747.038H297.684V750.02H295.08V753.8C295.08 754.206 295.185 754.528 295.395 754.766C295.619 754.99 295.913 755.102 296.277 755.102C296.739 755.102 297.145 754.983 297.495 754.745L298.482 757.538Z" fill="white"/>
</g>
<rect width="375" height="252" transform="translate(0 444)" fill="white"/>
<g clip-path="url(#clip3_184_1719)">
<path d="M137.844 509.504C135.204 509.504 132.828 508.952 130.716 507.848C128.628 506.72 126.984 505.16 125.784 503.168C124.584 501.176 123.984 498.92 123.984 496.4C123.984 493.88 124.584 491.624 125.784 489.632C126.984 487.64 128.628 486.092 130.716 484.988C132.828 483.86 135.204 483.296 137.844 483.296C140.148 483.296 142.224 483.704 144.072 484.52C145.92 485.336 147.456 486.512 148.68 488.048L144.144 492.152C142.512 490.184 140.532 489.2 138.204 489.2C136.836 489.2 135.612 489.5 134.532 490.1C133.476 490.7 132.648 491.552 132.048 492.656C131.472 493.736 131.184 494.984 131.184 496.4C131.184 497.816 131.472 499.076 132.048 500.18C132.648 501.26 133.476 502.1 134.532 502.7C135.612 503.3 136.836 503.6 138.204 503.6C140.532 503.6 142.512 502.616 144.144 500.648L148.68 504.752C147.456 506.288 145.92 507.464 144.072 508.28C142.224 509.096 140.148 509.504 137.844 509.504ZM160.728 509.324C158.64 509.324 156.756 508.892 155.076 508.028C153.396 507.164 152.076 505.964 151.116 504.428C150.18 502.892 149.712 501.152 149.712 499.208C149.712 497.288 150.18 495.56 151.116 494.024C152.076 492.488 153.384 491.3 155.04 490.46C156.72 489.596 158.616 489.164 160.728 489.164C162.84 489.164 164.736 489.596 166.416 490.46C168.096 491.3 169.404 492.488 170.34 494.024C171.276 495.536 171.744 497.264 171.744 499.208C171.744 501.152 171.276 502.892 170.34 504.428C169.404 505.964 168.096 507.164 166.416 508.028C164.736 508.892 162.84 509.324 160.728 509.324ZM160.728 503.888C161.928 503.888 162.912 503.48 163.68 502.664C164.448 501.824 164.832 500.672 164.832 499.208C164.832 497.768 164.448 496.64 163.68 495.824C162.912 495.008 161.928 494.6 160.728 494.6C159.528 494.6 158.544 495.008 157.776 495.824C157.008 496.64 156.624 497.768 156.624 499.208C156.624 500.672 157.008 501.824 157.776 502.664C158.544 503.48 159.528 503.888 160.728 503.888ZM187.621 489.164C190.045 489.164 191.989 489.884 193.453 491.324C194.941 492.764 195.685 494.936 195.685 497.84V509H188.845V498.956C188.845 496.292 187.777 494.96 185.641 494.96C184.465 494.96 183.517 495.344 182.797 496.112C182.101 496.88 181.753 498.032 181.753 499.568V509H174.913V489.488H181.429V491.612C182.197 490.82 183.109 490.22 184.165 489.812C185.221 489.38 186.373 489.164 187.621 489.164ZM213.443 508.208C212.867 508.568 212.159 508.844 211.319 509.036C210.503 509.228 209.627 509.324 208.691 509.324C206.147 509.324 204.191 508.7 202.823 507.452C201.455 506.204 200.771 504.344 200.771 501.872V495.32H197.927V490.208H200.771V485.132H207.611V490.208H212.075V495.32H207.611V501.8C207.611 502.496 207.791 503.048 208.151 503.456C208.535 503.84 209.039 504.032 209.663 504.032C210.455 504.032 211.151 503.828 211.751 503.42L213.443 508.208ZM222.597 491.828C223.293 490.94 224.193 490.28 225.297 489.848C226.425 489.392 227.709 489.164 229.149 489.164V495.32C228.525 495.248 228.009 495.212 227.601 495.212C226.137 495.212 224.985 495.608 224.145 496.4C223.329 497.192 222.921 498.404 222.921 500.036V509H216.081V489.488H222.597V491.828ZM240.147 489.164C243.387 489.164 245.859 489.908 247.563 491.396C249.267 492.86 250.119 495.116 250.119 498.164V509H243.747V506.48C242.763 508.376 240.843 509.324 237.987 509.324C236.475 509.324 235.167 509.06 234.063 508.532C232.959 508.004 232.119 507.296 231.543 506.408C230.991 505.496 230.715 504.464 230.715 503.312C230.715 501.464 231.423 500.036 232.839 499.028C234.255 497.996 236.439 497.48 239.391 497.48H243.279C243.159 495.416 241.779 494.384 239.139 494.384C238.203 494.384 237.255 494.54 236.295 494.852C235.335 495.14 234.519 495.548 233.847 496.076L231.543 491.432C232.623 490.712 233.931 490.16 235.467 489.776C237.027 489.368 238.587 489.164 240.147 489.164ZM239.895 505.004C240.687 505.004 241.383 504.812 241.983 504.428C242.583 504.044 243.015 503.48 243.279 502.736V501.044H240.327C238.335 501.044 237.339 501.704 237.339 503.024C237.339 503.624 237.567 504.104 238.023 504.464C238.479 504.824 239.103 505.004 239.895 505.004ZM90.1002 529.488L83.1522 549H76.5282L72.8562 538.38L69.0402 549H62.4162L55.4682 529.488H61.9482L65.9442 541.296L70.0842 529.488H75.9162L79.9482 541.404L84.0882 529.488H90.1002ZM92.1901 529.488H99.0301V549H92.1901V529.488ZM95.6101 527.328C94.3621 527.328 93.3541 526.98 92.5861 526.284C91.8181 525.588 91.4341 524.724 91.4341 523.692C91.4341 522.66 91.8181 521.796 92.5861 521.1C93.3541 520.404 94.3621 520.056 95.6101 520.056C96.8581 520.056 97.8661 520.392 98.6341 521.064C99.4021 521.712 99.7861 522.552 99.7861 523.584C99.7861 524.664 99.4021 525.564 98.6341 526.284C97.8661 526.98 96.8581 527.328 95.6101 527.328ZM109.991 531.828C110.687 530.94 111.587 530.28 112.691 529.848C113.819 529.392 115.103 529.164 116.543 529.164V535.32C115.919 535.248 115.403 535.212 114.995 535.212C113.531 535.212 112.379 535.608 111.539 536.4C110.723 537.192 110.315 538.404 110.315 540.036V549H103.475V529.488H109.991V531.828ZM139.134 539.28C139.134 539.328 139.098 539.892 139.026 540.972H124.842C125.13 541.98 125.682 542.76 126.498 543.312C127.338 543.84 128.382 544.104 129.63 544.104C130.566 544.104 131.37 543.972 132.042 543.708C132.738 543.444 133.434 543.012 134.13 542.412L137.73 546.156C135.834 548.268 133.062 549.324 129.414 549.324C127.134 549.324 125.13 548.892 123.402 548.028C121.674 547.164 120.33 545.964 119.37 544.428C118.434 542.892 117.966 541.152 117.966 539.208C117.966 537.288 118.422 535.572 119.334 534.06C120.27 532.524 121.554 531.324 123.186 530.46C124.818 529.596 126.654 529.164 128.694 529.164C130.638 529.164 132.402 529.572 133.986 530.388C135.57 531.18 136.818 532.344 137.73 533.88C138.666 535.392 139.134 537.192 139.134 539.28ZM128.73 534.024C127.674 534.024 126.786 534.324 126.066 534.924C125.37 535.524 124.926 536.34 124.734 537.372H132.726C132.534 536.34 132.078 535.524 131.358 534.924C130.662 534.324 129.786 534.024 128.73 534.024ZM149.74 530.208H154.384V535.32H149.92V549H143.08V535.32H140.236V530.208H143.08V529.704C143.08 527.328 143.788 525.444 145.204 524.052C146.644 522.66 148.648 521.964 151.216 521.964C152.08 521.964 152.92 522.048 153.736 522.216C154.552 522.384 155.224 522.636 155.752 522.972L154.06 527.796C153.388 527.412 152.704 527.22 152.008 527.22C151.288 527.22 150.724 527.436 150.316 527.868C149.932 528.3 149.74 528.936 149.74 529.776V530.208ZM166.312 531.828C167.008 530.94 167.908 530.28 169.012 529.848C170.14 529.392 171.424 529.164 172.864 529.164V535.32C172.24 535.248 171.724 535.212 171.316 535.212C169.852 535.212 168.7 535.608 167.86 536.4C167.044 537.192 166.636 538.404 166.636 540.036V549H159.796V529.488H166.312V531.828ZM183.862 529.164C187.102 529.164 189.574 529.908 191.278 531.396C192.982 532.86 193.834 535.116 193.834 538.164V549H187.462V546.48C186.478 548.376 184.558 549.324 181.702 549.324C180.19 549.324 178.882 549.06 177.778 548.532C176.674 548.004 175.834 547.296 175.258 546.408C174.706 545.496 174.43 544.464 174.43 543.312C174.43 541.464 175.138 540.036 176.554 539.028C177.97 537.996 180.154 537.48 183.106 537.48H186.994C186.874 535.416 185.494 534.384 182.854 534.384C181.918 534.384 180.97 534.54 180.01 534.852C179.05 535.14 178.234 535.548 177.562 536.076L175.258 531.432C176.338 530.712 177.646 530.16 179.182 529.776C180.742 529.368 182.302 529.164 183.862 529.164ZM183.61 545.004C184.402 545.004 185.098 544.812 185.698 544.428C186.298 544.044 186.73 543.48 186.994 542.736V541.044H184.042C182.05 541.044 181.054 541.704 181.054 543.024C181.054 543.624 181.282 544.104 181.738 544.464C182.194 544.824 182.818 545.004 183.61 545.004ZM223.567 529.164C225.967 529.164 227.875 529.884 229.291 531.324C230.731 532.764 231.451 534.936 231.451 537.84V549H224.611V538.956C224.611 537.588 224.347 536.58 223.819 535.932C223.315 535.284 222.595 534.96 221.659 534.96C220.627 534.96 219.799 535.32 219.175 536.04C218.551 536.76 218.239 537.852 218.239 539.316V549H211.399V538.956C211.399 536.292 210.415 534.96 208.447 534.96C207.391 534.96 206.551 535.32 205.927 536.04C205.303 536.76 204.991 537.852 204.991 539.316V549H198.151V529.488H204.667V531.54C205.387 530.748 206.239 530.16 207.223 529.776C208.231 529.368 209.323 529.164 210.499 529.164C211.867 529.164 213.091 529.416 214.171 529.92C215.251 530.424 216.127 531.192 216.799 532.224C217.567 531.24 218.539 530.484 219.715 529.956C220.891 529.428 222.175 529.164 223.567 529.164ZM255.994 539.28C255.994 539.328 255.958 539.892 255.886 540.972H241.702C241.99 541.98 242.542 542.76 243.358 543.312C244.198 543.84 245.242 544.104 246.49 544.104C247.426 544.104 248.23 543.972 248.902 543.708C249.598 543.444 250.294 543.012 250.99 542.412L254.59 546.156C252.694 548.268 249.922 549.324 246.274 549.324C243.994 549.324 241.99 548.892 240.262 548.028C238.534 547.164 237.19 545.964 236.23 544.428C235.294 542.892 234.826 541.152 234.826 539.208C234.826 537.288 235.282 535.572 236.194 534.06C237.13 532.524 238.414 531.324 240.046 530.46C241.678 529.596 243.514 529.164 245.554 529.164C247.498 529.164 249.262 529.572 250.846 530.388C252.43 531.18 253.678 532.344 254.59 533.88C255.526 535.392 255.994 537.192 255.994 539.28ZM245.59 534.024C244.534 534.024 243.646 534.324 242.926 534.924C242.23 535.524 241.786 536.34 241.594 537.372H249.586C249.394 536.34 248.938 535.524 248.218 534.924C247.522 534.324 246.646 534.024 245.59 534.024ZM278.48 542.16L276.464 544.212V549H269.624V522.288H276.464V536.292L283.448 529.488H291.548L283.448 537.84L292.232 549H283.952L278.48 542.16ZM294.233 529.488H301.073V549H294.233V529.488ZM297.653 527.328C296.405 527.328 295.397 526.98 294.629 526.284C293.861 525.588 293.477 524.724 293.477 523.692C293.477 522.66 293.861 521.796 294.629 521.1C295.397 520.404 296.405 520.056 297.653 520.056C298.901 520.056 299.909 520.392 300.677 521.064C301.445 521.712 301.829 522.552 301.829 523.584C301.829 524.664 301.445 525.564 300.677 526.284C299.909 526.98 298.901 527.328 297.653 527.328ZM318.982 548.208C318.406 548.568 317.698 548.844 316.858 549.036C316.042 549.228 315.166 549.324 314.23 549.324C311.686 549.324 309.73 548.7 308.362 547.452C306.994 546.204 306.31 544.344 306.31 541.872V535.32H303.466V530.208H306.31V525.132H313.15V530.208H317.614V535.32H313.15V541.8C313.15 542.496 313.33 543.048 313.69 543.456C314.074 543.84 314.578 544.032 315.202 544.032C315.994 544.032 316.69 543.828 317.29 543.42L318.982 548.208Z" fill="#18191F"/>
<path d="M61.1714 587.3L57.1184 599.312L53.0654 587.3H51.1334L46.9964 599.249L43.0274 587.3H40.8644L45.7784 602H48.0254L52.0364 590.261L56.0474 602H58.2524L63.1664 587.3H61.1714ZM66.4698 588.728C67.2678 588.728 67.8348 588.14 67.8348 587.384C67.8348 586.67 67.2468 586.103 66.4698 586.103C65.6928 586.103 65.1048 586.691 65.1048 587.426C65.1048 588.161 65.6928 588.728 66.4698 588.728ZM65.4618 602H67.4778V590.87H65.4618V602ZM73.259 592.739V590.87H71.327V602H73.343V596.456C73.343 594.02 74.687 592.697 76.85 592.697C76.997 592.697 77.144 592.697 77.312 592.718V590.765C75.359 590.765 73.973 591.437 73.259 592.739ZM89.7532 596.498C89.7532 593.075 87.4642 590.765 84.2512 590.765C81.0382 590.765 78.6652 593.138 78.6652 596.435C78.6652 599.753 81.0592 602.126 84.6502 602.126C86.4982 602.126 88.0312 601.496 89.0392 600.32L87.9262 599.018C87.1072 599.921 86.0152 600.362 84.7132 600.362C82.5082 600.362 80.9332 599.06 80.6812 597.107H89.7112C89.7322 596.918 89.7532 596.666 89.7532 596.498ZM84.2512 592.466C86.2042 592.466 87.6112 593.789 87.8212 595.658H80.6812C80.8912 593.768 82.3192 592.466 84.2512 592.466ZM96.6266 587.951C97.2146 587.951 97.7606 588.161 98.1806 588.476L98.7896 586.943C98.2226 586.502 97.3826 586.292 96.5216 586.292C94.1486 586.292 92.8466 587.72 92.8466 589.883V590.87H90.9566V592.529H92.8466V602H94.8626V592.529H98.0546V590.87H94.8206V589.904C94.8206 588.623 95.4296 587.951 96.6266 587.951ZM103.57 592.739V590.87H101.638V602H103.654V596.456C103.654 594.02 104.998 592.697 107.161 592.697C107.308 592.697 107.455 592.697 107.623 592.718V590.765C105.67 590.765 104.284 591.437 103.57 592.739ZM114.14 590.765C112.355 590.765 110.696 591.269 109.541 592.193L110.381 593.705C111.242 592.97 112.586 592.508 113.909 592.508C115.904 592.508 116.891 593.495 116.891 595.196V595.595H113.699C110.381 595.595 109.226 597.065 109.226 598.85C109.226 600.782 110.822 602.126 113.342 602.126C115.085 602.126 116.324 601.538 116.996 600.53V602H118.907V595.28C118.907 592.235 117.185 590.765 114.14 590.765ZM113.678 600.572C112.145 600.572 111.221 599.879 111.221 598.766C111.221 597.821 111.788 597.044 113.783 597.044H116.891V598.598C116.387 599.879 115.19 600.572 113.678 600.572ZM136.561 590.765C134.671 590.765 133.117 591.563 132.277 592.823C131.542 591.437 130.114 590.765 128.413 590.765C126.733 590.765 125.368 591.395 124.57 592.529V590.87H122.638V602H124.654V596.267C124.654 593.852 125.977 592.571 127.993 592.571C129.82 592.571 130.87 593.642 130.87 595.826V602H132.886V596.267C132.886 593.852 134.209 592.571 136.225 592.571C138.052 592.571 139.102 593.642 139.102 595.826V602H141.118V595.595C141.118 592.319 139.27 590.765 136.561 590.765ZM154.948 596.498C154.948 593.075 152.659 590.765 149.446 590.765C146.233 590.765 143.86 593.138 143.86 596.435C143.86 599.753 146.254 602.126 149.845 602.126C151.693 602.126 153.226 601.496 154.234 600.32L153.121 599.018C152.302 599.921 151.21 600.362 149.908 600.362C147.703 600.362 146.128 599.06 145.876 597.107H154.906C154.927 596.918 154.948 596.666 154.948 596.498ZM149.446 592.466C151.399 592.466 152.806 593.789 153.016 595.658H145.876C146.086 593.768 147.514 592.466 149.446 592.466ZM164.395 588.728C165.193 588.728 165.76 588.14 165.76 587.384C165.76 586.67 165.172 586.103 164.395 586.103C163.618 586.103 163.03 586.691 163.03 587.426C163.03 588.161 163.618 588.728 164.395 588.728ZM163.387 602H165.403V590.87H163.387V602ZM172.444 602.126C175.405 602.126 177.253 600.845 177.253 598.829C177.253 594.503 170.197 596.645 170.197 594.02C170.197 593.138 171.058 592.487 172.822 592.487C173.914 592.487 175.027 592.718 176.035 593.369L176.896 591.773C175.93 591.143 174.292 590.765 172.843 590.765C169.987 590.765 168.202 592.109 168.202 594.104C168.202 598.535 175.237 596.372 175.237 598.871C175.237 599.816 174.46 600.383 172.591 600.383C171.142 600.383 169.63 599.9 168.685 599.228L167.845 600.824C168.769 601.559 170.596 602.126 172.444 602.126ZM188.604 602.126C191.565 602.126 193.413 600.845 193.413 598.829C193.413 594.503 186.357 596.645 186.357 594.02C186.357 593.138 187.218 592.487 188.982 592.487C190.074 592.487 191.187 592.718 192.195 593.369L193.056 591.773C192.09 591.143 190.452 590.765 189.003 590.765C186.147 590.765 184.362 592.109 184.362 594.104C184.362 598.535 191.397 596.372 191.397 598.871C191.397 599.816 190.62 600.383 188.751 600.383C187.302 600.383 185.79 599.9 184.845 599.228L184.005 600.824C184.929 601.559 186.756 602.126 188.604 602.126ZM201.56 599.9C201.14 600.236 200.573 600.425 199.985 600.425C198.872 600.425 198.242 599.753 198.242 598.556V592.529H201.434V590.87H198.242V588.434H196.226V590.87H194.336V592.529H196.226V598.64C196.226 600.887 197.507 602.126 199.754 602.126C200.657 602.126 201.581 601.874 202.19 601.349L201.56 599.9ZM205.636 588.728C206.434 588.728 207.001 588.14 207.001 587.384C207.001 586.67 206.413 586.103 205.636 586.103C204.859 586.103 204.271 586.691 204.271 587.426C204.271 588.161 204.859 588.728 205.636 588.728ZM204.628 602H206.644V590.87H204.628V602ZM210.493 602H212.509V586.418H210.493V602ZM216.358 602H218.374V586.418H216.358V602ZM228.871 588.728C229.669 588.728 230.236 588.14 230.236 587.384C230.236 586.67 229.648 586.103 228.871 586.103C228.094 586.103 227.506 586.691 227.506 587.426C227.506 588.161 228.094 588.728 228.871 588.728ZM227.863 602H229.879V590.87H227.863V602ZM247.651 590.765C245.761 590.765 244.207 591.563 243.367 592.823C242.632 591.437 241.204 590.765 239.503 590.765C237.823 590.765 236.458 591.395 235.66 592.529V590.87H233.728V602H235.744V596.267C235.744 593.852 237.067 592.571 239.083 592.571C240.91 592.571 241.96 593.642 241.96 595.826V602H243.976V596.267C243.976 593.852 245.299 592.571 247.315 592.571C249.142 592.571 250.192 593.642 250.192 595.826V602H252.208V595.595C252.208 592.319 250.36 590.765 247.651 590.765ZM261.819 590.765C260.181 590.765 258.753 591.395 257.85 592.634V590.87H255.918V606.074H257.934V600.32C258.858 601.517 260.244 602.126 261.819 602.126C265.074 602.126 267.447 599.858 267.447 596.435C267.447 593.033 265.074 590.765 261.819 590.765ZM261.651 600.362C259.53 600.362 257.913 598.808 257.913 596.435C257.913 594.083 259.53 592.529 261.651 592.529C263.793 592.529 265.41 594.083 265.41 596.435C265.41 598.808 263.793 600.362 261.651 600.362ZM274.999 602.126C278.338 602.126 280.774 599.753 280.774 596.435C280.774 593.117 278.338 590.765 274.999 590.765C271.66 590.765 269.203 593.117 269.203 596.435C269.203 599.753 271.66 602.126 274.999 602.126ZM274.999 600.362C272.857 600.362 271.24 598.808 271.24 596.435C271.24 594.062 272.857 592.529 274.999 592.529C277.141 592.529 278.737 594.062 278.737 596.435C278.737 598.808 277.141 600.362 274.999 600.362ZM285.494 592.739V590.87H283.562V602H285.578V596.456C285.578 594.02 286.922 592.697 289.085 592.697C289.232 592.697 289.379 592.697 289.547 592.718V590.765C287.594 590.765 286.208 591.437 285.494 592.739ZM298.111 599.9C297.691 600.236 297.124 600.425 296.536 600.425C295.423 600.425 294.793 599.753 294.793 598.556V592.529H297.985V590.87H294.793V588.434H292.777V590.87H290.887V592.529H292.777V598.64C292.777 600.887 294.058 602.126 296.305 602.126C297.208 602.126 298.132 601.874 298.741 601.349L298.111 599.9ZM305.232 590.765C303.447 590.765 301.788 591.269 300.633 592.193L301.473 593.705C302.334 592.97 303.678 592.508 305.001 592.508C306.996 592.508 307.983 593.495 307.983 595.196V595.595H304.791C301.473 595.595 300.318 597.065 300.318 598.85C300.318 600.782 301.914 602.126 304.434 602.126C306.177 602.126 307.416 601.538 308.088 600.53V602H309.999V595.28C309.999 592.235 308.277 590.765 305.232 590.765ZM304.77 600.572C303.237 600.572 302.313 599.879 302.313 598.766C302.313 597.821 302.88 597.044 304.875 597.044H307.983V598.598C307.479 599.879 306.282 600.572 304.77 600.572ZM319.672 590.765C317.908 590.765 316.48 591.416 315.661 592.55V590.87H313.729V602H315.745V596.267C315.745 593.852 317.131 592.571 319.273 592.571C321.184 592.571 322.276 593.642 322.276 595.826V602H324.292V595.595C324.292 592.319 322.381 590.765 319.672 590.765ZM333.651 599.9C333.231 600.236 332.664 600.425 332.076 600.425C330.963 600.425 330.333 599.753 330.333 598.556V592.529H333.525V590.87H330.333V588.434H328.317V590.87H326.427V592.529H328.317V598.64C328.317 600.887 329.598 602.126 331.845 602.126C332.748 602.126 333.672 601.874 334.281 601.349L333.651 599.9ZM36.0158 615.951C36.6038 615.951 37.1498 616.161 37.5698 616.476L38.1788 614.943C37.6118 614.502 36.7718 614.292 35.9108 614.292C33.5378 614.292 32.2358 615.72 32.2358 617.883V618.87H30.3458V620.529H32.2358V630H34.2518V620.529H37.4438V618.87H34.2098V617.904C34.2098 616.623 34.8188 615.951 36.0158 615.951ZM43.948 630.126C47.287 630.126 49.723 627.753 49.723 624.435C49.723 621.117 47.287 618.765 43.948 618.765C40.609 618.765 38.152 621.117 38.152 624.435C38.152 627.753 40.609 630.126 43.948 630.126ZM43.948 628.362C41.806 628.362 40.189 626.808 40.189 624.435C40.189 622.062 41.806 620.529 43.948 620.529C46.09 620.529 47.686 622.062 47.686 624.435C47.686 626.808 46.09 628.362 43.948 628.362ZM54.4431 620.739V618.87H52.5111V630H54.5271V624.456C54.5271 622.02 55.8711 620.697 58.0341 620.697C58.1811 620.697 58.3281 620.697 58.4961 620.718V618.765C56.5431 618.765 55.1571 619.437 54.4431 620.739ZM67.772 616.728C68.57 616.728 69.137 616.14 69.137 615.384C69.137 614.67 68.549 614.103 67.772 614.103C66.995 614.103 66.407 614.691 66.407 615.426C66.407 616.161 66.995 616.728 67.772 616.728ZM66.764 630H68.78V618.87H66.764V630ZM81.1133 614.418V620.55C80.1893 619.353 78.8033 618.765 77.2283 618.765C73.9733 618.765 71.6003 621.033 71.6003 624.435C71.6003 627.837 73.9733 630.126 77.2283 630.126C78.8663 630.126 80.2943 629.496 81.1973 628.236V630H83.1293V614.418H81.1133ZM77.3963 628.362C75.2543 628.362 73.6373 626.808 73.6373 624.435C73.6373 622.062 75.2543 620.529 77.3963 620.529C79.5173 620.529 81.1343 622.062 81.1343 624.435C81.1343 626.808 79.5173 628.362 77.3963 628.362ZM97.0027 624.498C97.0027 621.075 94.7137 618.765 91.5007 618.765C88.2877 618.765 85.9147 621.138 85.9147 624.435C85.9147 627.753 88.3087 630.126 91.8997 630.126C93.7477 630.126 95.2807 629.496 96.2887 628.32L95.1757 627.018C94.3567 627.921 93.2647 628.362 91.9627 628.362C89.7577 628.362 88.1827 627.06 87.9307 625.107H96.9607C96.9817 624.918 97.0027 624.666 97.0027 624.498ZM91.5007 620.466C93.4537 620.466 94.8607 621.789 95.0707 623.658H87.9307C88.1407 621.768 89.5687 620.466 91.5007 620.466ZM103.547 618.765C101.762 618.765 100.103 619.269 98.9485 620.193L99.7885 621.705C100.649 620.97 101.993 620.508 103.316 620.508C105.311 620.508 106.298 621.495 106.298 623.196V623.595H103.106C99.7885 623.595 98.6335 625.065 98.6335 626.85C98.6335 628.782 100.229 630.126 102.749 630.126C104.492 630.126 105.731 629.538 106.403 628.53V630H108.314V623.28C108.314 620.235 106.592 618.765 103.547 618.765ZM103.085 628.572C101.552 628.572 100.628 627.879 100.628 626.766C100.628 625.821 101.195 625.044 103.19 625.044H106.298V626.598C105.794 627.879 104.597 628.572 103.085 628.572ZM117.673 627.9C117.253 628.236 116.686 628.425 116.098 628.425C114.985 628.425 114.355 627.753 114.355 626.556V620.529H117.547V618.87H114.355V616.434H112.339V618.87H110.449V620.529H112.339V626.64C112.339 628.887 113.62 630.126 115.867 630.126C116.77 630.126 117.694 629.874 118.303 629.349L117.673 627.9ZM121.749 616.728C122.547 616.728 123.114 616.14 123.114 615.384C123.114 614.67 122.526 614.103 121.749 614.103C120.972 614.103 120.384 614.691 120.384 615.426C120.384 616.161 120.972 616.728 121.749 616.728ZM120.741 630H122.757V618.87H120.741V630ZM131.373 630.126C134.712 630.126 137.148 627.753 137.148 624.435C137.148 621.117 134.712 618.765 131.373 618.765C128.034 618.765 125.577 621.117 125.577 624.435C125.577 627.753 128.034 630.126 131.373 630.126ZM131.373 628.362C129.231 628.362 127.614 626.808 127.614 624.435C127.614 622.062 129.231 620.529 131.373 620.529C133.515 620.529 135.111 622.062 135.111 624.435C135.111 626.808 133.515 628.362 131.373 628.362ZM145.879 618.765C144.115 618.765 142.687 619.416 141.868 620.55V618.87H139.936V630H141.952V624.267C141.952 621.852 143.338 620.571 145.48 620.571C147.391 620.571 148.483 621.642 148.483 623.826V630H150.499V623.595C150.499 620.319 148.588 618.765 145.879 618.765ZM154.713 630.126C155.469 630.126 156.099 629.517 156.099 628.677C156.099 627.837 155.469 627.249 154.713 627.249C153.936 627.249 153.285 627.837 153.285 628.677C153.285 629.517 153.936 630.126 154.713 630.126ZM164.921 630H167.021V615.3H164.921V630ZM176.756 627.9C176.336 628.236 175.769 628.425 175.181 628.425C174.068 628.425 173.438 627.753 173.438 626.556V620.529H176.63V618.87H173.438V616.434H171.422V618.87H169.532V620.529H171.422V626.64C171.422 628.887 172.703 630.126 174.95 630.126C175.853 630.126 176.777 629.874 177.386 629.349L176.756 627.9ZM200.499 618.87L197.181 627.774L193.884 618.87H192.183L188.823 627.732L185.589 618.87H183.678L187.815 630H189.747L193.002 621.558L196.215 630H198.147L202.305 618.87H200.499ZM205.359 616.728C206.157 616.728 206.724 616.14 206.724 615.384C206.724 614.67 206.136 614.103 205.359 614.103C204.582 614.103 203.994 614.691 203.994 615.426C203.994 616.161 204.582 616.728 205.359 616.728ZM204.351 630H206.367V618.87H204.351V630ZM210.216 630H212.232V614.418H210.216V630ZM216.081 630H218.097V614.418H216.081V630ZM233.529 618.765C231.828 618.765 230.442 619.374 229.602 620.445V614.418H227.586V630H229.602V624.267C229.602 621.852 230.988 620.571 233.13 620.571C235.041 620.571 236.133 621.642 236.133 623.826V630H238.149V623.595C238.149 620.319 236.238 618.765 233.529 618.765ZM252.001 624.498C252.001 621.075 249.712 618.765 246.499 618.765C243.286 618.765 240.913 621.138 240.913 624.435C240.913 627.753 243.307 630.126 246.898 630.126C248.746 630.126 250.279 629.496 251.287 628.32L250.174 627.018C249.355 627.921 248.263 628.362 246.961 628.362C244.756 628.362 243.181 627.06 242.929 625.107H251.959C251.98 624.918 252.001 624.666 252.001 624.498ZM246.499 620.466C248.452 620.466 249.859 621.789 250.069 623.658H242.929C243.139 621.768 244.567 620.466 246.499 620.466ZM254.8 630H256.816V614.418H254.8V630ZM266.566 618.765C264.928 618.765 263.5 619.395 262.597 620.634V618.87H260.665V634.074H262.681V628.32C263.605 629.517 264.991 630.126 266.566 630.126C269.821 630.126 272.194 627.858 272.194 624.435C272.194 621.033 269.821 618.765 266.566 618.765ZM266.398 628.362C264.277 628.362 262.66 626.808 262.66 624.435C262.66 622.083 264.277 620.529 266.398 620.529C268.54 620.529 270.157 622.083 270.157 624.435C270.157 626.808 268.54 628.362 266.398 628.362ZM288.494 618.87L284.651 627.774L280.766 618.87H278.666L283.58 629.979L283.223 630.756C282.677 632.037 282.068 632.478 281.102 632.478C280.346 632.478 279.653 632.184 279.107 631.659L278.246 633.171C278.939 633.843 280.031 634.2 281.102 634.2C282.803 634.2 284.084 633.465 285.071 631.113L290.468 618.87H288.494ZM296.809 630.126C300.148 630.126 302.584 627.753 302.584 624.435C302.584 621.117 300.148 618.765 296.809 618.765C293.47 618.765 291.013 621.117 291.013 624.435C291.013 627.753 293.47 630.126 296.809 630.126ZM296.809 628.362C294.667 628.362 293.05 626.808 293.05 624.435C293.05 622.062 294.667 620.529 296.809 620.529C298.951 620.529 300.547 622.062 300.547 624.435C300.547 626.808 298.951 628.362 296.809 628.362ZM313.73 618.87V624.624C313.73 627.018 312.386 628.32 310.286 628.32C308.375 628.32 307.283 627.228 307.283 625.044V618.87H305.267V625.275C305.267 628.551 307.178 630.126 310.055 630.126C311.63 630.126 313.016 629.475 313.835 628.32V630H315.746V618.87H313.73ZM330.852 627.9C330.432 628.236 329.865 628.425 329.277 628.425C328.164 628.425 327.534 627.753 327.534 626.556V620.529H330.726V618.87H327.534V616.434H325.518V618.87H323.628V620.529H325.518V626.64C325.518 628.887 326.799 630.126 329.046 630.126C329.949 630.126 330.873 629.874 331.482 629.349L330.852 627.9ZM338.317 630.126C341.656 630.126 344.092 627.753 344.092 624.435C344.092 621.117 341.656 618.765 338.317 618.765C334.978 618.765 332.521 621.117 332.521 624.435C332.521 627.753 334.978 630.126 338.317 630.126ZM338.317 628.362C336.175 628.362 334.558 626.808 334.558 624.435C334.558 622.062 336.175 620.529 338.317 620.529C340.459 620.529 342.055 622.062 342.055 624.435C342.055 626.808 340.459 628.362 338.317 628.362ZM108.729 646.87V648.634C107.826 647.395 106.398 646.765 104.76 646.765C101.505 646.765 99.132 649.033 99.132 652.435C99.132 655.858 101.505 658.126 104.76 658.126C106.335 658.126 107.721 657.517 108.645 656.32V662.074H110.661V646.87H108.729ZM104.928 656.362C102.786 656.362 101.169 654.808 101.169 652.435C101.169 650.083 102.786 648.529 104.928 648.529C107.049 648.529 108.666 650.083 108.666 652.435C108.666 654.808 107.049 656.362 104.928 656.362ZM122.833 646.87V652.624C122.833 655.018 121.489 656.32 119.389 656.32C117.478 656.32 116.386 655.228 116.386 653.044V646.87H114.37V653.275C114.37 656.551 116.281 658.126 119.158 658.126C120.733 658.126 122.119 657.475 122.938 656.32V658H124.849V646.87H122.833ZM129.695 644.728C130.493 644.728 131.06 644.14 131.06 643.384C131.06 642.67 130.472 642.103 129.695 642.103C128.918 642.103 128.33 642.691 128.33 643.426C128.33 644.161 128.918 644.728 129.695 644.728ZM128.687 658H130.703V646.87H128.687V658ZM139.404 658.126C141.399 658.126 143.058 657.286 143.94 655.732L142.407 654.766C141.693 655.858 140.601 656.362 139.383 656.362C137.199 656.362 135.561 654.85 135.561 652.435C135.561 650.062 137.199 648.529 139.383 648.529C140.601 648.529 141.693 649.033 142.407 650.125L143.94 649.138C143.058 647.584 141.399 646.765 139.404 646.765C135.981 646.765 133.524 649.117 133.524 652.435C133.524 655.753 135.981 658.126 139.404 658.126ZM154.911 658H157.389L152.244 651.469L156.927 646.87H154.491L148.422 652.414V642.418H146.406V658H148.422V654.955L150.732 652.813L154.911 658ZM159.347 658H161.363V642.418H159.347V658ZM173.087 646.87L169.244 655.774L165.359 646.87H163.259L168.173 657.979L167.816 658.756C167.27 660.037 166.661 660.478 165.695 660.478C164.939 660.478 164.246 660.184 163.7 659.659L162.839 661.171C163.532 661.843 164.624 662.2 165.695 662.2C167.396 662.2 168.677 661.465 169.664 659.113L175.061 646.87H173.087ZM188.21 655.9C187.79 656.236 187.223 656.425 186.635 656.425C185.522 656.425 184.892 655.753 184.892 654.556V648.529H188.084V646.87H184.892V644.434H182.876V646.87H180.986V648.529H182.876V654.64C182.876 656.887 184.157 658.126 186.404 658.126C187.307 658.126 188.231 657.874 188.84 657.349L188.21 655.9ZM200.967 652.498C200.967 649.075 198.678 646.765 195.465 646.765C192.252 646.765 189.879 649.138 189.879 652.435C189.879 655.753 192.273 658.126 195.864 658.126C197.712 658.126 199.245 657.496 200.253 656.32L199.14 655.018C198.321 655.921 197.229 656.362 195.927 656.362C193.722 656.362 192.147 655.06 191.895 653.107H200.925C200.946 652.918 200.967 652.666 200.967 652.498ZM195.465 648.466C197.418 648.466 198.825 649.789 199.035 651.658H191.895C192.105 649.768 193.533 648.466 195.465 648.466ZM206.958 658.126C209.919 658.126 211.767 656.845 211.767 654.829C211.767 650.503 204.711 652.645 204.711 650.02C204.711 649.138 205.572 648.487 207.336 648.487C208.428 648.487 209.541 648.718 210.549 649.369L211.41 647.773C210.444 647.143 208.806 646.765 207.357 646.765C204.501 646.765 202.716 648.109 202.716 650.104C202.716 654.535 209.751 652.372 209.751 654.871C209.751 655.816 208.974 656.383 207.105 656.383C205.656 656.383 204.144 655.9 203.199 655.228L202.359 656.824C203.283 657.559 205.11 658.126 206.958 658.126ZM219.915 655.9C219.495 656.236 218.928 656.425 218.34 656.425C217.227 656.425 216.597 655.753 216.597 654.556V648.529H219.789V646.87H216.597V644.434H214.581V646.87H212.691V648.529H214.581V654.64C214.581 656.887 215.862 658.126 218.109 658.126C219.012 658.126 219.936 657.874 220.545 657.349L219.915 655.9ZM229.63 644.728C230.428 644.728 230.995 644.14 230.995 643.384C230.995 642.67 230.407 642.103 229.63 642.103C228.853 642.103 228.265 642.691 228.265 643.426C228.265 644.161 228.853 644.728 229.63 644.728ZM228.622 658H230.638V646.87H228.622V658ZM242.971 642.418V648.55C242.047 647.353 240.661 646.765 239.086 646.765C235.831 646.765 233.458 649.033 233.458 652.435C233.458 655.837 235.831 658.126 239.086 658.126C240.724 658.126 242.152 657.496 243.055 656.236V658H244.987V642.418H242.971ZM239.254 656.362C237.112 656.362 235.495 654.808 235.495 652.435C235.495 650.062 237.112 648.529 239.254 648.529C241.375 648.529 242.992 650.062 242.992 652.435C242.992 654.808 241.375 656.362 239.254 656.362ZM258.861 652.498C258.861 649.075 256.572 646.765 253.359 646.765C250.146 646.765 247.773 649.138 247.773 652.435C247.773 655.753 250.167 658.126 253.758 658.126C255.606 658.126 257.139 657.496 258.147 656.32L257.034 655.018C256.215 655.921 255.123 656.362 253.821 656.362C251.616 656.362 250.041 655.06 249.789 653.107H258.819C258.84 652.918 258.861 652.666 258.861 652.498ZM253.359 648.466C255.312 648.466 256.719 649.789 256.929 651.658H249.789C249.999 649.768 251.427 648.466 253.359 648.466ZM265.405 646.765C263.62 646.765 261.961 647.269 260.806 648.193L261.646 649.705C262.507 648.97 263.851 648.508 265.174 648.508C267.169 648.508 268.156 649.495 268.156 651.196V651.595H264.964C261.646 651.595 260.491 653.065 260.491 654.85C260.491 656.782 262.087 658.126 264.607 658.126C266.35 658.126 267.589 657.538 268.261 656.53V658H270.172V651.28C270.172 648.235 268.45 646.765 265.405 646.765ZM264.943 656.572C263.41 656.572 262.486 655.879 262.486 654.766C262.486 653.821 263.053 653.044 265.048 653.044H268.156V654.598C267.652 655.879 266.455 656.572 264.943 656.572ZM274.386 658.126C275.142 658.126 275.772 657.517 275.772 656.677C275.772 655.837 275.142 655.249 274.386 655.249C273.609 655.249 272.958 655.837 272.958 656.677C272.958 657.517 273.609 658.126 274.386 658.126Z" fill="#474A57"/>
</g>
<defs>
<clipPath id="clip0_184_1719">
<rect width="240" height="260" fill="white" transform="translate(67 136)"/>
</clipPath>
<clipPath id="clip1_184_1719">
<rect width="50" height="28" fill="white" transform="translate(77.5 736)"/>
</clipPath>
<clipPath id="clip2_184_1719">
<rect width="53" height="28" fill="white" transform="translate(246 736)"/>
</clipPath>
<clipPath id="clip3_184_1719">
<rect width="327" height="188" fill="white" transform="translate(24 476)"/>
</clipPath>
</defs>
</svg>
