<svg width="375" height="812" viewBox="0 0 375 812" fill="none" xmlns="http://www.w3.org/2000/svg">
<g clip-path="url(#clip0_186_1577)">
<rect width="375" height="812" fill="white"/>
<g filter="url(#filter0_d_186_1577)">
<circle cx="48" cy="67" r="23" fill="white" stroke="#18191F" stroke-width="2"/>
<path d="M50.6665 75L42.6665 67L50.6665 59" stroke="#18191F" stroke-width="3" stroke-linecap="round" stroke-linejoin="round"/>
</g>
<path d="M150.008 77.378C148.46 77.378 146.966 77.189 145.526 76.811C144.104 76.415 142.943 75.911 142.043 75.299L143.798 71.357C144.644 71.897 145.616 72.347 146.714 72.707C147.83 73.049 148.937 73.22 150.035 73.22C150.773 73.22 151.367 73.157 151.817 73.031C152.267 72.887 152.591 72.707 152.789 72.491C153.005 72.257 153.113 71.987 153.113 71.681C153.113 71.249 152.915 70.907 152.519 70.655C152.123 70.403 151.61 70.196 150.98 70.034C150.35 69.872 149.648 69.71 148.874 69.548C148.118 69.386 147.353 69.179 146.579 68.927C145.823 68.675 145.13 68.351 144.5 67.955C143.87 67.541 143.357 67.01 142.961 66.362C142.565 65.696 142.367 64.859 142.367 63.851C142.367 62.717 142.673 61.691 143.285 60.773C143.915 59.855 144.851 59.117 146.093 58.559C147.335 58.001 148.883 57.722 150.737 57.722C151.979 57.722 153.194 57.866 154.382 58.154C155.588 58.424 156.659 58.829 157.595 59.369L155.948 63.338C155.048 62.852 154.157 62.492 153.275 62.258C152.393 62.006 151.538 61.88 150.71 61.88C149.972 61.88 149.378 61.961 148.928 62.123C148.478 62.267 148.154 62.465 147.956 62.717C147.758 62.969 147.659 63.257 147.659 63.581C147.659 63.995 147.848 64.328 148.226 64.58C148.622 64.814 149.135 65.012 149.765 65.174C150.413 65.318 151.115 65.471 151.871 65.633C152.645 65.795 153.41 66.002 154.166 66.254C154.94 66.488 155.642 66.812 156.272 67.226C156.902 67.622 157.406 68.153 157.784 68.819C158.18 69.467 158.378 70.286 158.378 71.276C158.378 72.374 158.063 73.391 157.433 74.327C156.821 75.245 155.894 75.983 154.652 76.541C153.428 77.099 151.88 77.378 150.008 77.378ZM167.139 77.243C165.267 77.243 163.809 76.784 162.765 75.866C161.721 74.93 161.199 73.526 161.199 71.654V59.099H166.329V71.6C166.329 72.122 166.473 72.536 166.761 72.842C167.049 73.13 167.418 73.274 167.868 73.274C168.48 73.274 169.002 73.121 169.434 72.815L170.703 76.406C170.271 76.694 169.74 76.901 169.11 77.027C168.48 77.171 167.823 77.243 167.139 77.243ZM159.066 66.74V62.906H169.677V66.74H159.066ZM181.618 77V74.273L181.267 73.598V68.576C181.267 67.766 181.015 67.145 180.511 66.713C180.025 66.263 179.242 66.038 178.162 66.038C177.46 66.038 176.749 66.155 176.029 66.389C175.309 66.605 174.697 66.911 174.193 67.307L172.465 63.824C173.293 63.284 174.283 62.87 175.435 62.582C176.605 62.276 177.766 62.123 178.918 62.123C181.294 62.123 183.13 62.672 184.426 63.77C185.74 64.85 186.397 66.551 186.397 68.873V77H181.618ZM177.298 77.243C176.128 77.243 175.138 77.045 174.328 76.649C173.518 76.253 172.897 75.713 172.465 75.029C172.051 74.345 171.844 73.58 171.844 72.734C171.844 71.834 172.069 71.06 172.519 70.412C172.987 69.746 173.698 69.242 174.652 68.9C175.606 68.54 176.839 68.36 178.351 68.36H181.807V71.033H179.053C178.225 71.033 177.64 71.168 177.298 71.438C176.974 71.708 176.812 72.068 176.812 72.518C176.812 72.968 176.983 73.328 177.325 73.598C177.667 73.868 178.135 74.003 178.729 74.003C179.287 74.003 179.791 73.868 180.241 73.598C180.709 73.31 181.051 72.878 181.267 72.302L181.969 74.192C181.699 75.2 181.168 75.965 180.376 76.487C179.602 76.991 178.576 77.243 177.298 77.243ZM196.169 77.243C194.297 77.243 192.839 76.784 191.795 75.866C190.751 74.93 190.229 73.526 190.229 71.654V59.099H195.359V71.6C195.359 72.122 195.503 72.536 195.791 72.842C196.079 73.13 196.448 73.274 196.898 73.274C197.51 73.274 198.032 73.121 198.464 72.815L199.733 76.406C199.301 76.694 198.77 76.901 198.14 77.027C197.51 77.171 196.853 77.243 196.169 77.243ZM188.096 66.74V62.906H198.707V66.74H188.096ZM207.867 77.243C206.679 77.243 205.608 77.009 204.654 76.541C203.718 76.073 202.98 75.344 202.44 74.354C201.918 73.346 201.657 72.077 201.657 70.547V62.366H206.787V69.71C206.787 70.844 206.994 71.654 207.408 72.14C207.84 72.626 208.443 72.869 209.217 72.869C209.721 72.869 210.18 72.752 210.594 72.518C211.008 72.284 211.341 71.915 211.593 71.411C211.845 70.889 211.971 70.223 211.971 69.413V62.366H217.101V77H212.214V72.869L213.159 74.03C212.655 75.11 211.926 75.92 210.972 76.46C210.018 76.982 208.983 77.243 207.867 77.243ZM225.724 77.243C224.482 77.243 223.267 77.099 222.079 76.811C220.909 76.523 219.964 76.163 219.244 75.731L220.783 72.221C221.467 72.635 222.268 72.968 223.186 73.22C224.104 73.454 225.004 73.571 225.886 73.571C226.75 73.571 227.344 73.481 227.668 73.301C228.01 73.121 228.181 72.878 228.181 72.572C228.181 72.284 228.019 72.077 227.695 71.951C227.389 71.807 226.975 71.699 226.453 71.627C225.949 71.555 225.391 71.474 224.779 71.384C224.167 71.294 223.546 71.177 222.916 71.033C222.304 70.871 221.737 70.637 221.215 70.331C220.711 70.007 220.306 69.575 220 69.035C219.694 68.495 219.541 67.811 219.541 66.983C219.541 66.047 219.811 65.219 220.351 64.499C220.909 63.761 221.719 63.185 222.781 62.771C223.843 62.339 225.139 62.123 226.669 62.123C227.695 62.123 228.73 62.231 229.774 62.447C230.836 62.645 231.727 62.951 232.447 63.365L230.908 66.848C230.188 66.434 229.468 66.155 228.748 66.011C228.028 65.849 227.344 65.768 226.696 65.768C225.832 65.768 225.22 65.867 224.86 66.065C224.518 66.263 224.347 66.506 224.347 66.794C224.347 67.082 224.5 67.307 224.806 67.469C225.112 67.613 225.517 67.73 226.021 67.82C226.543 67.892 227.11 67.973 227.722 68.063C228.334 68.135 228.946 68.252 229.558 68.414C230.188 68.576 230.755 68.819 231.259 69.143C231.781 69.449 232.195 69.872 232.501 70.412C232.807 70.934 232.96 71.609 232.96 72.437C232.96 73.337 232.681 74.147 232.123 74.867C231.583 75.587 230.773 76.163 229.693 76.595C228.631 77.027 227.308 77.243 225.724 77.243Z" fill="#18191F"/>
<rect x="164" y="143" width="46" height="203" fill="#FFF3F8" stroke="black" stroke-width="2"/>
<rect x="210" y="202" width="46" height="144" fill="#D6FCF7" stroke="black" stroke-width="2"/>
<rect x="256" y="280" width="46" height="66" fill="white" stroke="black" stroke-width="2"/>
<rect x="303" y="248" width="46" height="98" fill="white" stroke="black" stroke-width="2"/>
<rect x="72" y="184" width="46" height="162" fill="#FFF4CC" stroke="black" stroke-width="2"/>
<rect x="26" y="273" width="46" height="73" fill="#E9E7FC" stroke="black" stroke-width="2"/>
<rect x="118" y="257" width="46" height="89" fill="white" stroke="black" stroke-width="2"/>
<path d="M24 359H351" stroke="#18191F" stroke-width="2"/>
<rect width="375" height="98" transform="translate(0 416)" fill="white"/>
<rect x="25" y="442" width="46" height="46" rx="23" fill="#FFD465" stroke="#18191F" stroke-width="2"/>
<path d="M51.0024 469.736H43.8984L42.5784 473H37.7304L45.1464 456.2H49.8264L57.2664 473H52.3224L51.0024 469.736ZM49.6104 466.232L47.4504 460.856L45.2904 466.232H49.6104Z" fill="white"/>
<path d="M89.628 450.513V453.747H96.117V456.96H89.628V462H85.47V447.3H96.999V450.513H89.628ZM104.221 462.189C103.003 462.189 101.904 461.937 100.924 461.433C99.9435 460.929 99.1735 460.229 98.6135 459.333C98.0675 458.437 97.7945 457.422 97.7945 456.288C97.7945 455.168 98.0675 454.16 98.6135 453.264C99.1735 452.368 99.9365 451.675 100.903 451.185C101.883 450.681 102.989 450.429 104.221 450.429C105.453 450.429 106.559 450.681 107.539 451.185C108.519 451.675 109.282 452.368 109.828 453.264C110.374 454.146 110.647 455.154 110.647 456.288C110.647 457.422 110.374 458.437 109.828 459.333C109.282 460.229 108.519 460.929 107.539 461.433C106.559 461.937 105.453 462.189 104.221 462.189ZM104.221 459.018C104.921 459.018 105.495 458.78 105.943 458.304C106.391 457.814 106.615 457.142 106.615 456.288C106.615 455.448 106.391 454.79 105.943 454.314C105.495 453.838 104.921 453.6 104.221 453.6C103.521 453.6 102.947 453.838 102.499 454.314C102.051 454.79 101.827 455.448 101.827 456.288C101.827 457.142 102.051 457.814 102.499 458.304C102.947 458.78 103.521 459.018 104.221 459.018ZM118.207 462.189C116.989 462.189 115.89 461.937 114.91 461.433C113.93 460.929 113.16 460.229 112.6 459.333C112.054 458.437 111.781 457.422 111.781 456.288C111.781 455.168 112.054 454.16 112.6 453.264C113.16 452.368 113.923 451.675 114.889 451.185C115.869 450.681 116.975 450.429 118.207 450.429C119.439 450.429 120.545 450.681 121.525 451.185C122.505 451.675 123.268 452.368 123.814 453.264C124.36 454.146 124.633 455.154 124.633 456.288C124.633 457.422 124.36 458.437 123.814 459.333C123.268 460.229 122.505 460.929 121.525 461.433C120.545 461.937 119.439 462.189 118.207 462.189ZM118.207 459.018C118.907 459.018 119.481 458.78 119.929 458.304C120.377 457.814 120.601 457.142 120.601 456.288C120.601 455.448 120.377 454.79 119.929 454.314C119.481 453.838 118.907 453.6 118.207 453.6C117.507 453.6 116.933 453.838 116.485 454.314C116.037 454.79 115.813 455.448 115.813 456.288C115.813 457.142 116.037 457.814 116.485 458.304C116.933 458.78 117.507 459.018 118.207 459.018ZM138.577 446.418V462H134.776V460.866C134.034 461.748 132.921 462.189 131.437 462.189C130.401 462.189 129.456 461.951 128.602 461.475C127.748 460.985 127.069 460.292 126.565 459.396C126.075 458.5 125.83 457.464 125.83 456.288C125.83 455.112 126.075 454.083 126.565 453.201C127.069 452.305 127.748 451.619 128.602 451.143C129.456 450.667 130.401 450.429 131.437 450.429C132.795 450.429 133.845 450.821 134.587 451.605V446.418H138.577ZM132.277 459.018C132.963 459.018 133.53 458.78 133.978 458.304C134.426 457.814 134.65 457.142 134.65 456.288C134.65 455.448 134.426 454.79 133.978 454.314C133.544 453.838 132.977 453.6 132.277 453.6C131.577 453.6 131.003 453.838 130.555 454.314C130.107 454.79 129.883 455.448 129.883 456.288C129.883 457.142 130.107 457.814 130.555 458.304C131.003 458.78 131.577 459.018 132.277 459.018Z" fill="#18191F"/>
<path d="M89.67 474.5C91.03 474.5 92.1 474.825 92.88 475.475C93.66 476.125 94.05 477.02 94.05 478.16C94.05 479.3 93.66 480.195 92.88 480.845C92.1 481.495 91.03 481.82 89.67 481.82H87.075V485H85.575V474.5H89.67ZM89.625 480.515C90.575 480.515 91.3 480.315 91.8 479.915C92.3 479.505 92.55 478.92 92.55 478.16C92.55 477.4 92.3 476.82 91.8 476.42C91.3 476.01 90.575 475.805 89.625 475.805H87.075V480.515H89.625ZM95.9119 477.05H97.3519V485H95.9119V477.05ZM96.6319 475.52C96.3519 475.52 96.1169 475.43 95.9269 475.25C95.7469 475.07 95.6569 474.85 95.6569 474.59C95.6569 474.33 95.7469 474.11 95.9269 473.93C96.1169 473.74 96.3519 473.645 96.6319 473.645C96.9119 473.645 97.1419 473.735 97.3219 473.915C97.5119 474.085 97.6069 474.3 97.6069 474.56C97.6069 474.83 97.5119 475.06 97.3219 475.25C97.1419 475.43 96.9119 475.52 96.6319 475.52ZM105.996 483.815V485H99.3363V484.07L104.031 478.235H99.4263V477.05H105.876V477.995L101.181 483.815H105.996ZM113.819 483.815V485H107.159V484.07L111.854 478.235H107.249V477.05H113.699V477.995L109.004 483.815H113.819ZM118.641 476.975C119.741 476.975 120.581 477.245 121.161 477.785C121.751 478.325 122.046 479.13 122.046 480.2V485H120.681V483.95C120.441 484.32 120.096 484.605 119.646 484.805C119.206 484.995 118.681 485.09 118.071 485.09C117.181 485.09 116.466 484.875 115.926 484.445C115.396 484.015 115.131 483.45 115.131 482.75C115.131 482.05 115.386 481.49 115.896 481.07C116.406 480.64 117.216 480.425 118.326 480.425H120.606V480.14C120.606 479.52 120.426 479.045 120.066 478.715C119.706 478.385 119.176 478.22 118.476 478.22C118.006 478.22 117.546 478.3 117.096 478.46C116.646 478.61 116.266 478.815 115.956 479.075L115.356 477.995C115.766 477.665 116.256 477.415 116.826 477.245C117.396 477.065 118.001 476.975 118.641 476.975ZM118.311 483.98C118.861 483.98 119.336 483.86 119.736 483.62C120.136 483.37 120.426 483.02 120.606 482.57V481.46H118.386C117.166 481.46 116.556 481.87 116.556 482.69C116.556 483.09 116.711 483.405 117.021 483.635C117.331 483.865 117.761 483.98 118.311 483.98ZM125.071 483.035C125.351 483.035 125.581 483.135 125.761 483.335C125.951 483.525 126.046 483.765 126.046 484.055C126.046 484.205 126.026 484.35 125.986 484.49C125.956 484.63 125.891 484.845 125.791 485.135L125.086 487.22H124.141L124.696 484.985C124.506 484.915 124.351 484.8 124.231 484.64C124.121 484.47 124.066 484.275 124.066 484.055C124.066 483.755 124.161 483.51 124.351 483.32C124.541 483.13 124.781 483.035 125.071 483.035ZM139.412 479.555C140.022 479.725 140.502 480.035 140.852 480.485C141.202 480.925 141.377 481.485 141.377 482.165C141.377 483.075 141.032 483.775 140.342 484.265C139.662 484.755 138.667 485 137.357 485H132.347V474.5H137.057C138.257 474.5 139.182 474.74 139.832 475.22C140.492 475.7 140.822 476.365 140.822 477.215C140.822 477.765 140.692 478.24 140.432 478.64C140.182 479.04 139.842 479.345 139.412 479.555ZM133.847 475.715V479.075H136.922C137.692 479.075 138.282 478.935 138.692 478.655C139.112 478.365 139.322 477.945 139.322 477.395C139.322 476.845 139.112 476.43 138.692 476.15C138.282 475.86 137.692 475.715 136.922 475.715H133.847ZM137.297 483.785C138.147 483.785 138.787 483.645 139.217 483.365C139.647 483.085 139.862 482.645 139.862 482.045C139.862 480.875 139.007 480.29 137.297 480.29H133.847V483.785H137.297ZM150.9 477.05V485H149.535V483.8C149.245 484.21 148.86 484.53 148.38 484.76C147.91 484.98 147.395 485.09 146.835 485.09C145.775 485.09 144.94 484.8 144.33 484.22C143.72 483.63 143.415 482.765 143.415 481.625V477.05H144.855V481.46C144.855 482.23 145.04 482.815 145.41 483.215C145.78 483.605 146.31 483.8 147 483.8C147.76 483.8 148.36 483.57 148.8 483.11C149.24 482.65 149.46 482 149.46 481.16V477.05H150.9ZM155.021 478.385C155.271 477.925 155.641 477.575 156.131 477.335C156.621 477.095 157.216 476.975 157.916 476.975V478.37C157.836 478.36 157.726 478.355 157.586 478.355C156.806 478.355 156.191 478.59 155.741 479.06C155.301 479.52 155.081 480.18 155.081 481.04V485H153.641V477.05H155.021V478.385ZM167.223 477.05V483.92C167.223 485.31 166.878 486.335 166.188 486.995C165.498 487.665 164.468 488 163.098 488C162.348 488 161.633 487.895 160.953 487.685C160.273 487.485 159.723 487.195 159.303 486.815L159.993 485.705C160.363 486.025 160.818 486.275 161.358 486.455C161.908 486.645 162.473 486.74 163.053 486.74C163.983 486.74 164.668 486.52 165.108 486.08C165.558 485.64 165.783 484.97 165.783 484.07V483.44C165.443 483.85 165.023 484.16 164.523 484.37C164.033 484.57 163.498 484.67 162.918 484.67C162.158 484.67 161.468 484.51 160.848 484.19C160.238 483.86 159.758 483.405 159.408 482.825C159.058 482.235 158.883 481.565 158.883 480.815C158.883 480.065 159.058 479.4 159.408 478.82C159.758 478.23 160.238 477.775 160.848 477.455C161.468 477.135 162.158 476.975 162.918 476.975C163.518 476.975 164.073 477.085 164.583 477.305C165.103 477.525 165.528 477.85 165.858 478.28V477.05H167.223ZM163.083 483.41C163.603 483.41 164.068 483.3 164.478 483.08C164.898 482.86 165.223 482.555 165.453 482.165C165.693 481.765 165.813 481.315 165.813 480.815C165.813 480.045 165.558 479.425 165.048 478.955C164.538 478.475 163.883 478.235 163.083 478.235C162.273 478.235 161.613 478.475 161.103 478.955C160.593 479.425 160.338 480.045 160.338 480.815C160.338 481.315 160.453 481.765 160.683 482.165C160.923 482.555 161.248 482.86 161.658 483.08C162.078 483.3 162.553 483.41 163.083 483.41ZM177.159 481.07C177.159 481.18 177.149 481.325 177.129 481.505H170.679C170.769 482.205 171.074 482.77 171.594 483.2C172.124 483.62 172.779 483.83 173.559 483.83C174.509 483.83 175.274 483.51 175.854 482.87L176.649 483.8C176.289 484.22 175.839 484.54 175.299 484.76C174.769 484.98 174.174 485.09 173.514 485.09C172.674 485.09 171.929 484.92 171.279 484.58C170.629 484.23 170.124 483.745 169.764 483.125C169.414 482.505 169.239 481.805 169.239 481.025C169.239 480.255 169.409 479.56 169.749 478.94C170.099 478.32 170.574 477.84 171.174 477.5C171.784 477.15 172.469 476.975 173.229 476.975C173.989 476.975 174.664 477.15 175.254 477.5C175.854 477.84 176.319 478.32 176.649 478.94C176.989 479.56 177.159 480.27 177.159 481.07ZM173.229 478.19C172.539 478.19 171.959 478.4 171.489 478.82C171.029 479.24 170.759 479.79 170.679 480.47H175.779C175.699 479.8 175.424 479.255 174.954 478.835C174.494 478.405 173.919 478.19 173.229 478.19ZM180.539 478.385C180.789 477.925 181.159 477.575 181.649 477.335C182.139 477.095 182.734 476.975 183.434 476.975V478.37C183.354 478.36 183.244 478.355 183.104 478.355C182.324 478.355 181.709 478.59 181.259 479.06C180.819 479.52 180.599 480.18 180.599 481.04V485H179.159V477.05H180.539V478.385ZM185.525 483.035C185.805 483.035 186.035 483.135 186.215 483.335C186.405 483.525 186.5 483.765 186.5 484.055C186.5 484.205 186.48 484.35 186.44 484.49C186.41 484.63 186.345 484.845 186.245 485.135L185.54 487.22H184.595L185.15 484.985C184.96 484.915 184.805 484.8 184.685 484.64C184.575 484.47 184.52 484.275 184.52 484.055C184.52 483.755 184.615 483.51 184.805 483.32C184.995 483.13 185.235 483.035 185.525 483.035ZM197.497 485.12C196.447 485.12 195.497 484.89 194.647 484.43C193.807 483.96 193.147 483.32 192.667 482.51C192.187 481.69 191.947 480.77 191.947 479.75C191.947 478.73 192.187 477.815 192.667 477.005C193.147 476.185 193.812 475.545 194.662 475.085C195.512 474.615 196.462 474.38 197.512 474.38C198.332 474.38 199.082 474.52 199.762 474.8C200.442 475.07 201.022 475.475 201.502 476.015L200.527 476.96C199.737 476.13 198.752 475.715 197.572 475.715C196.792 475.715 196.087 475.89 195.457 476.24C194.827 476.59 194.332 477.075 193.972 477.695C193.622 478.305 193.447 478.99 193.447 479.75C193.447 480.51 193.622 481.2 193.972 481.82C194.332 482.43 194.827 482.91 195.457 483.26C196.087 483.61 196.792 483.785 197.572 483.785C198.742 483.785 199.727 483.365 200.527 482.525L201.502 483.47C201.022 484.01 200.437 484.42 199.747 484.7C199.067 484.98 198.317 485.12 197.497 485.12ZM207.676 476.975C208.686 476.975 209.486 477.27 210.076 477.86C210.676 478.44 210.976 479.295 210.976 480.425V485H209.536V480.59C209.536 479.82 209.351 479.24 208.981 478.85C208.611 478.46 208.081 478.265 207.391 478.265C206.611 478.265 205.996 478.495 205.546 478.955C205.096 479.405 204.871 480.055 204.871 480.905V485H203.431V473.87H204.871V478.175C205.171 477.795 205.561 477.5 206.041 477.29C206.531 477.08 207.076 476.975 207.676 476.975ZM213.641 477.05H215.081V485H213.641V477.05ZM214.361 475.52C214.081 475.52 213.846 475.43 213.656 475.25C213.476 475.07 213.386 474.85 213.386 474.59C213.386 474.33 213.476 474.11 213.656 473.93C213.846 473.74 214.081 473.645 214.361 473.645C214.641 473.645 214.871 473.735 215.051 473.915C215.241 474.085 215.336 474.3 215.336 474.56C215.336 474.83 215.241 475.06 215.051 475.25C214.871 475.43 214.641 475.52 214.361 475.52ZM222.076 476.975C223.086 476.975 223.886 477.27 224.476 477.86C225.076 478.44 225.376 479.295 225.376 480.425V485H223.936V480.59C223.936 479.82 223.751 479.24 223.381 478.85C223.011 478.46 222.481 478.265 221.791 478.265C221.011 478.265 220.396 478.495 219.946 478.955C219.496 479.405 219.271 480.055 219.271 480.905V485H217.831V477.05H219.211V478.25C219.501 477.84 219.891 477.525 220.381 477.305C220.881 477.085 221.446 476.975 222.076 476.975ZM235.27 481.07C235.27 481.18 235.26 481.325 235.24 481.505H228.79C228.88 482.205 229.185 482.77 229.705 483.2C230.235 483.62 230.89 483.83 231.67 483.83C232.62 483.83 233.385 483.51 233.965 482.87L234.76 483.8C234.4 484.22 233.95 484.54 233.41 484.76C232.88 484.98 232.285 485.09 231.625 485.09C230.785 485.09 230.04 484.92 229.39 484.58C228.74 484.23 228.235 483.745 227.875 483.125C227.525 482.505 227.35 481.805 227.35 481.025C227.35 480.255 227.52 479.56 227.86 478.94C228.21 478.32 228.685 477.84 229.285 477.5C229.895 477.15 230.58 476.975 231.34 476.975C232.1 476.975 232.775 477.15 233.365 477.5C233.965 477.84 234.43 478.32 234.76 478.94C235.1 479.56 235.27 480.27 235.27 481.07ZM231.34 478.19C230.65 478.19 230.07 478.4 229.6 478.82C229.14 479.24 228.87 479.79 228.79 480.47H233.89C233.81 479.8 233.535 479.255 233.065 478.835C232.605 478.405 232.03 478.19 231.34 478.19ZM239.549 485.09C238.899 485.09 238.274 485.005 237.674 484.835C237.074 484.655 236.604 484.43 236.264 484.16L236.864 483.02C237.214 483.27 237.639 483.47 238.139 483.62C238.639 483.77 239.144 483.845 239.654 483.845C240.914 483.845 241.544 483.485 241.544 482.765C241.544 482.525 241.459 482.335 241.289 482.195C241.119 482.055 240.904 481.955 240.644 481.895C240.394 481.825 240.034 481.75 239.564 481.67C238.924 481.57 238.399 481.455 237.989 481.325C237.589 481.195 237.244 480.975 236.954 480.665C236.664 480.355 236.519 479.92 236.519 479.36C236.519 478.64 236.819 478.065 237.419 477.635C238.019 477.195 238.824 476.975 239.834 476.975C240.364 476.975 240.894 477.04 241.424 477.17C241.954 477.3 242.389 477.475 242.729 477.695L242.114 478.835C241.464 478.415 240.699 478.205 239.819 478.205C239.209 478.205 238.744 478.305 238.424 478.505C238.104 478.705 237.944 478.97 237.944 479.3C237.944 479.56 238.034 479.765 238.214 479.915C238.394 480.065 238.614 480.175 238.874 480.245C239.144 480.315 239.519 480.395 239.999 480.485C240.639 480.595 241.154 480.715 241.544 480.845C241.944 480.965 242.284 481.175 242.564 481.475C242.844 481.775 242.984 482.195 242.984 482.735C242.984 483.455 242.674 484.03 242.054 484.46C241.444 484.88 240.609 485.09 239.549 485.09ZM251.969 481.07C251.969 481.18 251.959 481.325 251.939 481.505H245.489C245.579 482.205 245.884 482.77 246.404 483.2C246.934 483.62 247.589 483.83 248.369 483.83C249.319 483.83 250.084 483.51 250.664 482.87L251.459 483.8C251.099 484.22 250.649 484.54 250.109 484.76C249.579 484.98 248.984 485.09 248.324 485.09C247.484 485.09 246.739 484.92 246.089 484.58C245.439 484.23 244.934 483.745 244.574 483.125C244.224 482.505 244.049 481.805 244.049 481.025C244.049 480.255 244.219 479.56 244.559 478.94C244.909 478.32 245.384 477.84 245.984 477.5C246.594 477.15 247.279 476.975 248.039 476.975C248.799 476.975 249.474 477.15 250.064 477.5C250.664 477.84 251.129 478.32 251.459 478.94C251.799 479.56 251.969 480.27 251.969 481.07ZM248.039 478.19C247.349 478.19 246.769 478.4 246.299 478.82C245.839 479.24 245.569 479.79 245.489 480.47H250.589C250.509 479.8 250.234 479.255 249.764 478.835C249.304 478.405 248.729 478.19 248.039 478.19ZM254.314 485.09C254.034 485.09 253.794 484.995 253.594 484.805C253.394 484.605 253.294 484.355 253.294 484.055C253.294 483.765 253.394 483.525 253.594 483.335C253.794 483.135 254.034 483.035 254.314 483.035C254.594 483.035 254.829 483.13 255.019 483.32C255.209 483.51 255.304 483.755 255.304 484.055C255.304 484.355 255.204 484.605 255.004 484.805C254.814 484.995 254.584 485.09 254.314 485.09ZM257.712 485.09C257.432 485.09 257.192 484.995 256.992 484.805C256.792 484.605 256.692 484.355 256.692 484.055C256.692 483.765 256.792 483.525 256.992 483.335C257.192 483.135 257.432 483.035 257.712 483.035C257.992 483.035 258.227 483.13 258.417 483.32C258.607 483.51 258.702 483.755 258.702 484.055C258.702 484.355 258.602 484.605 258.402 484.805C258.212 484.995 257.982 485.09 257.712 485.09Z" fill="#474A57"/>
<path d="M328.979 452.714C328.81 452.839 328.601 452.934 328.352 453C328.11 453.059 327.853 453.088 327.582 453.088C326.878 453.088 326.332 452.908 325.943 452.549C325.562 452.19 325.371 451.662 325.371 450.965V448.534H324.458V447.214H325.371V445.773H327.087V447.214H328.561V448.534H327.087V450.943C327.087 451.192 327.149 451.387 327.274 451.526C327.406 451.658 327.589 451.724 327.824 451.724C328.095 451.724 328.326 451.651 328.517 451.504L328.979 452.714ZM329.942 447.082H331.658V453H329.942V447.082ZM330.8 446.257C330.485 446.257 330.228 446.165 330.03 445.982C329.832 445.799 329.733 445.571 329.733 445.3C329.733 445.029 329.832 444.801 330.03 444.618C330.228 444.435 330.485 444.343 330.8 444.343C331.115 444.343 331.372 444.431 331.57 444.607C331.768 444.783 331.867 445.003 331.867 445.267C331.867 445.553 331.768 445.791 331.57 445.982C331.372 446.165 331.115 446.257 330.8 446.257ZM340.83 446.994C341.57 446.994 342.157 447.214 342.59 447.654C343.03 448.087 343.25 448.739 343.25 449.612V453H341.534V449.876C341.534 449.407 341.435 449.058 341.237 448.831C341.046 448.596 340.771 448.479 340.412 448.479C340.008 448.479 339.689 448.611 339.455 448.875C339.22 449.132 339.103 449.517 339.103 450.03V453H337.387V449.876C337.387 448.945 337.013 448.479 336.265 448.479C335.869 448.479 335.553 448.611 335.319 448.875C335.084 449.132 334.967 449.517 334.967 450.03V453H333.251V447.082H334.89V447.764C335.11 447.515 335.377 447.324 335.693 447.192C336.015 447.06 336.367 446.994 336.749 446.994C337.167 446.994 337.544 447.078 337.882 447.247C338.219 447.408 338.49 447.647 338.696 447.962C338.938 447.654 339.242 447.416 339.609 447.247C339.983 447.078 340.39 446.994 340.83 446.994ZM350.649 450.063C350.649 450.085 350.638 450.239 350.616 450.525H346.139C346.22 450.892 346.411 451.181 346.711 451.394C347.012 451.607 347.386 451.713 347.833 451.713C348.141 451.713 348.413 451.669 348.647 451.581C348.889 451.486 349.113 451.339 349.318 451.141L350.231 452.131C349.674 452.769 348.86 453.088 347.789 453.088C347.122 453.088 346.532 452.96 346.018 452.703C345.505 452.439 345.109 452.076 344.83 451.614C344.552 451.152 344.412 450.628 344.412 450.041C344.412 449.462 344.548 448.941 344.819 448.479C345.098 448.01 345.476 447.647 345.952 447.39C346.436 447.126 346.975 446.994 347.569 446.994C348.149 446.994 348.673 447.119 349.142 447.368C349.612 447.617 349.978 447.977 350.242 448.446C350.514 448.908 350.649 449.447 350.649 450.063ZM347.58 448.292C347.192 448.292 346.865 448.402 346.601 448.622C346.337 448.842 346.176 449.143 346.117 449.524H349.032C348.974 449.15 348.812 448.853 348.548 448.633C348.284 448.406 347.962 448.292 347.58 448.292Z" fill="#9FA4B4"/>
<rect width="375" height="98" transform="translate(0 514)" fill="white"/>
<rect x="25" y="540" width="46" height="46" rx="23" fill="#FF9692" stroke="#18191F" stroke-width="2"/>
<path d="M51.0024 567.736H43.8984L42.5784 571H37.7304L45.1464 554.2H49.8264L57.2664 571H52.3224L51.0024 567.736ZM49.6104 564.232L47.4504 558.856L45.2904 564.232H49.6104Z" fill="white"/>
<path d="M92.799 560.294C91.259 560.294 89.873 559.972 88.641 559.328C87.423 558.67 86.464 557.76 85.764 556.598C85.064 555.436 84.714 554.12 84.714 552.65C84.714 551.18 85.064 549.864 85.764 548.702C86.464 547.54 87.423 546.637 88.641 545.993C89.873 545.335 91.259 545.006 92.799 545.006C94.143 545.006 95.354 545.244 96.432 545.72C97.51 546.196 98.406 546.882 99.12 547.778L96.474 550.172C95.522 549.024 94.367 548.45 93.009 548.45C92.211 548.45 91.497 548.625 90.867 548.975C90.251 549.325 89.768 549.822 89.418 550.466C89.082 551.096 88.914 551.824 88.914 552.65C88.914 553.476 89.082 554.211 89.418 554.855C89.768 555.485 90.251 555.975 90.867 556.325C91.497 556.675 92.211 556.85 93.009 556.85C94.367 556.85 95.522 556.276 96.474 555.128L99.12 557.522C98.406 558.418 97.51 559.104 96.432 559.58C95.354 560.056 94.143 560.294 92.799 560.294ZM106.148 560.189C104.93 560.189 103.831 559.937 102.851 559.433C101.871 558.929 101.101 558.229 100.541 557.333C99.9953 556.437 99.7223 555.422 99.7223 554.288C99.7223 553.168 99.9953 552.16 100.541 551.264C101.101 550.368 101.864 549.675 102.83 549.185C103.81 548.681 104.916 548.429 106.148 548.429C107.38 548.429 108.486 548.681 109.466 549.185C110.446 549.675 111.209 550.368 111.755 551.264C112.301 552.146 112.574 553.154 112.574 554.288C112.574 555.422 112.301 556.437 111.755 557.333C111.209 558.229 110.446 558.929 109.466 559.433C108.486 559.937 107.38 560.189 106.148 560.189ZM106.148 557.018C106.848 557.018 107.422 556.78 107.87 556.304C108.318 555.814 108.542 555.142 108.542 554.288C108.542 553.448 108.318 552.79 107.87 552.314C107.422 551.838 106.848 551.6 106.148 551.6C105.448 551.6 104.874 551.838 104.426 552.314C103.978 552.79 103.754 553.448 103.754 554.288C103.754 555.142 103.978 555.814 104.426 556.304C104.874 556.78 105.448 557.018 106.148 557.018ZM121.836 548.429C123.25 548.429 124.384 548.849 125.238 549.689C126.106 550.529 126.54 551.796 126.54 553.49V560H122.55V554.141C122.55 552.587 121.927 551.81 120.681 551.81C119.995 551.81 119.442 552.034 119.022 552.482C118.616 552.93 118.413 553.602 118.413 554.498V560H114.423V548.618H118.224V549.857C118.672 549.395 119.204 549.045 119.82 548.807C120.436 548.555 121.108 548.429 121.836 548.429ZM136.899 559.538C136.563 559.748 136.15 559.909 135.66 560.021C135.184 560.133 134.673 560.189 134.127 560.189C132.643 560.189 131.502 559.825 130.704 559.097C129.906 558.369 129.507 557.284 129.507 555.842V552.02H127.848V549.038H129.507V546.077H133.497V549.038H136.101V552.02H133.497V555.8C133.497 556.206 133.602 556.528 133.812 556.766C134.036 556.99 134.33 557.102 134.694 557.102C135.156 557.102 135.562 556.983 135.912 556.745L136.899 559.538ZM142.238 549.983C142.644 549.465 143.169 549.08 143.813 548.828C144.471 548.562 145.22 548.429 146.06 548.429V552.02C145.696 551.978 145.395 551.957 145.157 551.957C144.303 551.957 143.631 552.188 143.141 552.65C142.665 553.112 142.427 553.819 142.427 554.771V560H138.437V548.618H142.238V549.983ZM152.476 548.429C154.366 548.429 155.808 548.863 156.802 549.731C157.796 550.585 158.293 551.901 158.293 553.679V560H154.576V558.53C154.002 559.636 152.882 560.189 151.216 560.189C150.334 560.189 149.571 560.035 148.927 559.727C148.283 559.419 147.793 559.006 147.457 558.488C147.135 557.956 146.974 557.354 146.974 556.682C146.974 555.604 147.387 554.771 148.213 554.183C149.039 553.581 150.313 553.28 152.035 553.28H154.303C154.233 552.076 153.428 551.474 151.888 551.474C151.342 551.474 150.789 551.565 150.229 551.747C149.669 551.915 149.193 552.153 148.801 552.461L147.457 549.752C148.087 549.332 148.85 549.01 149.746 548.786C150.656 548.548 151.566 548.429 152.476 548.429ZM152.329 557.669C152.791 557.669 153.197 557.557 153.547 557.333C153.897 557.109 154.149 556.78 154.303 556.346V555.359H152.581C151.419 555.359 150.838 555.744 150.838 556.514C150.838 556.864 150.971 557.144 151.237 557.354C151.503 557.564 151.867 557.669 152.329 557.669ZM170.241 548.597H165.726V545.3H178.893V548.597H174.399V560H170.241V548.597ZM180.027 548.618H184.017V560H180.027V548.618ZM182.022 547.358C181.294 547.358 180.706 547.155 180.258 546.749C179.81 546.343 179.586 545.839 179.586 545.237C179.586 544.635 179.81 544.131 180.258 543.725C180.706 543.319 181.294 543.116 182.022 543.116C182.75 543.116 183.338 543.312 183.786 543.704C184.234 544.082 184.458 544.572 184.458 545.174C184.458 545.804 184.234 546.329 183.786 546.749C183.338 547.155 182.75 547.358 182.022 547.358ZM194.464 559.538C194.128 559.748 193.715 559.909 193.225 560.021C192.749 560.133 192.238 560.189 191.692 560.189C190.208 560.189 189.067 559.825 188.269 559.097C187.471 558.369 187.072 557.284 187.072 555.842V552.02H185.413V549.038H187.072V546.077H191.062V549.038H193.666V552.02H191.062V555.8C191.062 556.206 191.167 556.528 191.377 556.766C191.601 556.99 191.895 557.102 192.259 557.102C192.721 557.102 193.127 556.983 193.477 556.745L194.464 559.538ZM196.003 544.418H199.993V560H196.003V544.418ZM214.22 554.33C214.22 554.358 214.199 554.687 214.157 555.317H205.883C206.051 555.905 206.373 556.36 206.849 556.682C207.339 556.99 207.948 557.144 208.676 557.144C209.222 557.144 209.691 557.067 210.083 556.913C210.489 556.759 210.895 556.507 211.301 556.157L213.401 558.341C212.295 559.573 210.678 560.189 208.55 560.189C207.22 560.189 206.051 559.937 205.043 559.433C204.035 558.929 203.251 558.229 202.691 557.333C202.145 556.437 201.872 555.422 201.872 554.288C201.872 553.168 202.138 552.167 202.67 551.285C203.216 550.389 203.965 549.689 204.917 549.185C205.869 548.681 206.94 548.429 208.13 548.429C209.264 548.429 210.293 548.667 211.217 549.143C212.141 549.605 212.869 550.284 213.401 551.18C213.947 552.062 214.22 553.112 214.22 554.33ZM208.151 551.264C207.535 551.264 207.017 551.439 206.597 551.789C206.191 552.139 205.932 552.615 205.82 553.217H210.482C210.37 552.615 210.104 552.139 209.684 551.789C209.278 551.439 208.767 551.264 208.151 551.264Z" fill="#18191F"/>
<path d="M88.635 583.12C87.845 583.12 87.08 583 86.34 582.76C85.61 582.51 85.035 582.19 84.615 581.8L85.17 580.63C85.57 580.99 86.08 581.285 86.7 581.515C87.33 581.735 87.975 581.845 88.635 581.845C89.505 581.845 90.155 581.7 90.585 581.41C91.015 581.11 91.23 580.715 91.23 580.225C91.23 579.865 91.11 579.575 90.87 579.355C90.64 579.125 90.35 578.95 90 578.83C89.66 578.71 89.175 578.575 88.545 578.425C87.755 578.235 87.115 578.045 86.625 577.855C86.145 577.665 85.73 577.375 85.38 576.985C85.04 576.585 84.87 576.05 84.87 575.38C84.87 574.82 85.015 574.315 85.305 573.865C85.605 573.415 86.055 573.055 86.655 572.785C87.255 572.515 88 572.38 88.89 572.38C89.51 572.38 90.12 572.46 90.72 572.62C91.32 572.78 91.835 573.01 92.265 573.31L91.77 574.51C91.33 574.23 90.86 574.02 90.36 573.88C89.86 573.73 89.37 573.655 88.89 573.655C88.04 573.655 87.4 573.81 86.97 574.12C86.55 574.43 86.34 574.83 86.34 575.32C86.34 575.68 86.46 575.975 86.7 576.205C86.94 576.425 87.235 576.6 87.585 576.73C87.945 576.85 88.43 576.98 89.04 577.12C89.83 577.31 90.465 577.5 90.945 577.69C91.425 577.88 91.835 578.17 92.175 578.56C92.525 578.95 92.7 579.475 92.7 580.135C92.7 580.685 92.55 581.19 92.25 581.65C91.95 582.1 91.495 582.46 90.885 582.73C90.275 582.99 89.525 583.12 88.635 583.12ZM102.091 575.05V583H100.726V581.8C100.436 582.21 100.051 582.53 99.5714 582.76C99.1014 582.98 98.5864 583.09 98.0264 583.09C96.9664 583.09 96.1314 582.8 95.5214 582.22C94.9114 581.63 94.6064 580.765 94.6064 579.625V575.05H96.0464V579.46C96.0464 580.23 96.2314 580.815 96.6014 581.215C96.9714 581.605 97.5014 581.8 98.1914 581.8C98.9514 581.8 99.5514 581.57 99.9914 581.11C100.431 580.65 100.651 580 100.651 579.16V575.05H102.091ZM109.048 574.975C109.818 574.975 110.508 575.145 111.118 575.485C111.728 575.825 112.203 576.3 112.543 576.91C112.893 577.52 113.068 578.225 113.068 579.025C113.068 579.825 112.893 580.535 112.543 581.155C112.203 581.765 111.728 582.24 111.118 582.58C110.508 582.92 109.818 583.09 109.048 583.09C108.458 583.09 107.918 582.975 107.428 582.745C106.938 582.515 106.533 582.18 106.213 581.74V583H104.833V571.87H106.273V576.25C106.593 575.83 106.993 575.515 107.473 575.305C107.953 575.085 108.478 574.975 109.048 574.975ZM108.928 581.83C109.438 581.83 109.893 581.715 110.293 581.485C110.703 581.245 111.023 580.915 111.253 580.495C111.493 580.065 111.613 579.575 111.613 579.025C111.613 578.475 111.493 577.99 111.253 577.57C111.023 577.14 110.703 576.81 110.293 576.58C109.893 576.35 109.438 576.235 108.928 576.235C108.428 576.235 107.973 576.35 107.563 576.58C107.153 576.81 106.833 577.14 106.603 577.57C106.373 577.99 106.258 578.475 106.258 579.025C106.258 579.575 106.373 580.065 106.603 580.495C106.833 580.915 107.153 581.245 107.563 581.485C107.973 581.715 108.428 581.83 108.928 581.83ZM119.527 582.535C119.317 582.715 119.057 582.855 118.747 582.955C118.437 583.045 118.117 583.09 117.787 583.09C116.987 583.09 116.367 582.875 115.927 582.445C115.487 582.015 115.267 581.4 115.267 580.6V576.235H113.917V575.05H115.267V573.31H116.707V575.05H118.987V576.235H116.707V580.54C116.707 580.97 116.812 581.3 117.022 581.53C117.242 581.76 117.552 581.875 117.952 581.875C118.392 581.875 118.767 581.75 119.077 581.5L119.527 582.535ZM121.268 575.05H122.708V583H121.268V575.05ZM121.988 573.52C121.708 573.52 121.473 573.43 121.283 573.25C121.103 573.07 121.013 572.85 121.013 572.59C121.013 572.33 121.103 572.11 121.283 571.93C121.473 571.74 121.708 571.645 121.988 571.645C122.268 571.645 122.498 571.735 122.678 571.915C122.868 572.085 122.963 572.3 122.963 572.56C122.963 572.83 122.868 573.06 122.678 573.25C122.498 573.43 122.268 573.52 121.988 573.52ZM129.928 582.535C129.718 582.715 129.458 582.855 129.148 582.955C128.838 583.045 128.518 583.09 128.188 583.09C127.388 583.09 126.768 582.875 126.328 582.445C125.888 582.015 125.668 581.4 125.668 580.6V576.235H124.318V575.05H125.668V573.31H127.108V575.05H129.388V576.235H127.108V580.54C127.108 580.97 127.213 581.3 127.423 581.53C127.643 581.76 127.953 581.875 128.353 581.875C128.793 581.875 129.168 581.75 129.478 581.5L129.928 582.535ZM131.669 571.87H133.109V583H131.669V571.87ZM143.043 579.07C143.043 579.18 143.033 579.325 143.013 579.505H136.563C136.653 580.205 136.958 580.77 137.478 581.2C138.008 581.62 138.663 581.83 139.443 581.83C140.393 581.83 141.158 581.51 141.738 580.87L142.533 581.8C142.173 582.22 141.723 582.54 141.183 582.76C140.653 582.98 140.058 583.09 139.398 583.09C138.558 583.09 137.813 582.92 137.163 582.58C136.513 582.23 136.008 581.745 135.648 581.125C135.298 580.505 135.123 579.805 135.123 579.025C135.123 578.255 135.293 577.56 135.633 576.94C135.983 576.32 136.458 575.84 137.058 575.5C137.668 575.15 138.353 574.975 139.113 574.975C139.873 574.975 140.548 575.15 141.138 575.5C141.738 575.84 142.203 576.32 142.533 576.94C142.873 577.56 143.043 578.27 143.043 579.07ZM139.113 576.19C138.423 576.19 137.843 576.4 137.373 576.82C136.913 577.24 136.643 577.79 136.563 578.47H141.663C141.583 577.8 141.308 577.255 140.838 576.835C140.378 576.405 139.803 576.19 139.113 576.19ZM152.476 583.09C151.686 583.09 150.976 582.915 150.346 582.565C149.716 582.215 149.221 581.735 148.861 581.125C148.511 580.505 148.336 579.805 148.336 579.025C148.336 578.245 148.511 577.55 148.861 576.94C149.221 576.32 149.716 575.84 150.346 575.5C150.976 575.15 151.686 574.975 152.476 574.975C153.266 574.975 153.971 575.15 154.591 575.5C155.221 575.84 155.711 576.32 156.061 576.94C156.421 577.55 156.601 578.245 156.601 579.025C156.601 579.805 156.421 580.505 156.061 581.125C155.711 581.735 155.221 582.215 154.591 582.565C153.971 582.915 153.266 583.09 152.476 583.09ZM152.476 581.83C152.986 581.83 153.441 581.715 153.841 581.485C154.251 581.245 154.571 580.915 154.801 580.495C155.031 580.065 155.146 579.575 155.146 579.025C155.146 578.475 155.031 577.99 154.801 577.57C154.571 577.14 154.251 576.81 153.841 576.58C153.441 576.35 152.986 576.235 152.476 576.235C151.966 576.235 151.506 576.35 151.096 576.58C150.696 576.81 150.376 577.14 150.136 577.57C149.906 577.99 149.791 578.475 149.791 579.025C149.791 579.575 149.906 580.065 150.136 580.495C150.376 580.915 150.696 581.245 151.096 581.485C151.506 581.715 151.966 581.83 152.476 581.83ZM159.973 576.385C160.223 575.925 160.593 575.575 161.083 575.335C161.573 575.095 162.168 574.975 162.868 574.975V576.37C162.788 576.36 162.678 576.355 162.538 576.355C161.758 576.355 161.143 576.59 160.693 577.06C160.253 577.52 160.033 578.18 160.033 579.04V583H158.593V575.05H159.973V576.385ZM171.053 583.09C170.403 583.09 169.778 583.005 169.178 582.835C168.578 582.655 168.108 582.43 167.768 582.16L168.368 581.02C168.718 581.27 169.143 581.47 169.643 581.62C170.143 581.77 170.648 581.845 171.158 581.845C172.418 581.845 173.048 581.485 173.048 580.765C173.048 580.525 172.963 580.335 172.793 580.195C172.623 580.055 172.408 579.955 172.148 579.895C171.898 579.825 171.538 579.75 171.068 579.67C170.428 579.57 169.903 579.455 169.493 579.325C169.093 579.195 168.748 578.975 168.458 578.665C168.168 578.355 168.023 577.92 168.023 577.36C168.023 576.64 168.323 576.065 168.923 575.635C169.523 575.195 170.328 574.975 171.338 574.975C171.868 574.975 172.398 575.04 172.928 575.17C173.458 575.3 173.893 575.475 174.233 575.695L173.618 576.835C172.968 576.415 172.203 576.205 171.323 576.205C170.713 576.205 170.248 576.305 169.928 576.505C169.608 576.705 169.448 576.97 169.448 577.3C169.448 577.56 169.538 577.765 169.718 577.915C169.898 578.065 170.118 578.175 170.378 578.245C170.648 578.315 171.023 578.395 171.503 578.485C172.143 578.595 172.658 578.715 173.048 578.845C173.448 578.965 173.788 579.175 174.068 579.475C174.348 579.775 174.488 580.195 174.488 580.735C174.488 581.455 174.178 582.03 173.558 582.46C172.948 582.88 172.113 583.09 171.053 583.09ZM180.533 574.975C181.543 574.975 182.343 575.27 182.933 575.86C183.533 576.44 183.833 577.295 183.833 578.425V583H182.393V578.59C182.393 577.82 182.208 577.24 181.838 576.85C181.468 576.46 180.938 576.265 180.248 576.265C179.468 576.265 178.853 576.495 178.403 576.955C177.953 577.405 177.728 578.055 177.728 578.905V583H176.288V571.87H177.728V576.175C178.028 575.795 178.418 575.5 178.898 575.29C179.388 575.08 179.933 574.975 180.533 574.975ZM189.947 583.09C189.157 583.09 188.447 582.915 187.817 582.565C187.187 582.215 186.692 581.735 186.332 581.125C185.982 580.505 185.807 579.805 185.807 579.025C185.807 578.245 185.982 577.55 186.332 576.94C186.692 576.32 187.187 575.84 187.817 575.5C188.447 575.15 189.157 574.975 189.947 574.975C190.737 574.975 191.442 575.15 192.062 575.5C192.692 575.84 193.182 576.32 193.532 576.94C193.892 577.55 194.072 578.245 194.072 579.025C194.072 579.805 193.892 580.505 193.532 581.125C193.182 581.735 192.692 582.215 192.062 582.565C191.442 582.915 190.737 583.09 189.947 583.09ZM189.947 581.83C190.457 581.83 190.912 581.715 191.312 581.485C191.722 581.245 192.042 580.915 192.272 580.495C192.502 580.065 192.617 579.575 192.617 579.025C192.617 578.475 192.502 577.99 192.272 577.57C192.042 577.14 191.722 576.81 191.312 576.58C190.912 576.35 190.457 576.235 189.947 576.235C189.437 576.235 188.977 576.35 188.567 576.58C188.167 576.81 187.847 577.14 187.607 577.57C187.377 577.99 187.262 578.475 187.262 579.025C187.262 579.575 187.377 580.065 187.607 580.495C187.847 580.915 188.167 581.245 188.567 581.485C188.977 581.715 189.437 581.83 189.947 581.83ZM197.443 576.385C197.693 575.925 198.063 575.575 198.553 575.335C199.043 575.095 199.638 574.975 200.338 574.975V576.37C200.258 576.36 200.148 576.355 200.008 576.355C199.228 576.355 198.613 576.59 198.163 577.06C197.723 577.52 197.503 578.18 197.503 579.04V583H196.063V575.05H197.443V576.385ZM206.905 582.535C206.695 582.715 206.435 582.855 206.125 582.955C205.815 583.045 205.495 583.09 205.165 583.09C204.365 583.09 203.745 582.875 203.305 582.445C202.865 582.015 202.645 581.4 202.645 580.6V576.235H201.295V575.05H202.645V573.31H204.085V575.05H206.365V576.235H204.085V580.54C204.085 580.97 204.19 581.3 204.4 581.53C204.62 581.76 204.93 581.875 205.33 581.875C205.77 581.875 206.145 581.75 206.455 581.5L206.905 582.535ZM220.175 571.87V583H218.795V581.74C218.475 582.18 218.07 582.515 217.58 582.745C217.09 582.975 216.55 583.09 215.96 583.09C215.19 583.09 214.5 582.92 213.89 582.58C213.28 582.24 212.8 581.765 212.45 581.155C212.11 580.535 211.94 579.825 211.94 579.025C211.94 578.225 212.11 577.52 212.45 576.91C212.8 576.3 213.28 575.825 213.89 575.485C214.5 575.145 215.19 574.975 215.96 574.975C216.53 574.975 217.055 575.085 217.535 575.305C218.015 575.515 218.415 575.83 218.735 576.25V571.87H220.175ZM216.08 581.83C216.58 581.83 217.035 581.715 217.445 581.485C217.855 581.245 218.175 580.915 218.405 580.495C218.635 580.065 218.75 579.575 218.75 579.025C218.75 578.475 218.635 577.99 218.405 577.57C218.175 577.14 217.855 576.81 217.445 576.58C217.035 576.35 216.58 576.235 216.08 576.235C215.57 576.235 215.11 576.35 214.7 576.58C214.3 576.81 213.98 577.14 213.74 577.57C213.51 577.99 213.395 578.475 213.395 579.025C213.395 579.575 213.51 580.065 213.74 580.495C213.98 580.915 214.3 581.245 214.7 581.485C215.11 581.715 215.57 581.83 216.08 581.83ZM230.084 579.07C230.084 579.18 230.074 579.325 230.054 579.505H223.604C223.694 580.205 223.999 580.77 224.519 581.2C225.049 581.62 225.704 581.83 226.484 581.83C227.434 581.83 228.199 581.51 228.779 580.87L229.574 581.8C229.214 582.22 228.764 582.54 228.224 582.76C227.694 582.98 227.099 583.09 226.439 583.09C225.599 583.09 224.854 582.92 224.204 582.58C223.554 582.23 223.049 581.745 222.689 581.125C222.339 580.505 222.164 579.805 222.164 579.025C222.164 578.255 222.334 577.56 222.674 576.94C223.024 576.32 223.499 575.84 224.099 575.5C224.709 575.15 225.394 574.975 226.154 574.975C226.914 574.975 227.589 575.15 228.179 575.5C228.779 575.84 229.244 576.32 229.574 576.94C229.914 577.56 230.084 578.27 230.084 579.07ZM226.154 576.19C225.464 576.19 224.884 576.4 224.414 576.82C223.954 577.24 223.684 577.79 223.604 578.47H228.704C228.624 577.8 228.349 577.255 227.879 576.835C227.419 576.405 226.844 576.19 226.154 576.19ZM236.554 582.535C236.344 582.715 236.084 582.855 235.774 582.955C235.464 583.045 235.144 583.09 234.814 583.09C234.014 583.09 233.394 582.875 232.954 582.445C232.514 582.015 232.294 581.4 232.294 580.6V576.235H230.944V575.05H232.294V573.31H233.734V575.05H236.014V576.235H233.734V580.54C233.734 580.97 233.839 581.3 234.049 581.53C234.269 581.76 234.579 581.875 234.979 581.875C235.419 581.875 235.794 581.75 236.104 581.5L236.554 582.535ZM241.19 574.975C242.29 574.975 243.13 575.245 243.71 575.785C244.3 576.325 244.595 577.13 244.595 578.2V583H243.23V581.95C242.99 582.32 242.645 582.605 242.195 582.805C241.755 582.995 241.23 583.09 240.62 583.09C239.73 583.09 239.015 582.875 238.475 582.445C237.945 582.015 237.68 581.45 237.68 580.75C237.68 580.05 237.935 579.49 238.445 579.07C238.955 578.64 239.765 578.425 240.875 578.425H243.155V578.14C243.155 577.52 242.975 577.045 242.615 576.715C242.255 576.385 241.725 576.22 241.025 576.22C240.555 576.22 240.095 576.3 239.645 576.46C239.195 576.61 238.815 576.815 238.505 577.075L237.905 575.995C238.315 575.665 238.805 575.415 239.375 575.245C239.945 575.065 240.55 574.975 241.19 574.975ZM240.86 581.98C241.41 581.98 241.885 581.86 242.285 581.62C242.685 581.37 242.975 581.02 243.155 580.57V579.46H240.935C239.715 579.46 239.105 579.87 239.105 580.69C239.105 581.09 239.26 581.405 239.57 581.635C239.88 581.865 240.31 581.98 240.86 581.98ZM247.26 575.05H248.7V583H247.26V575.05ZM247.98 573.52C247.7 573.52 247.465 573.43 247.275 573.25C247.095 573.07 247.005 572.85 247.005 572.59C247.005 572.33 247.095 572.11 247.275 571.93C247.465 571.74 247.7 571.645 247.98 571.645C248.26 571.645 248.49 571.735 248.67 571.915C248.86 572.085 248.955 572.3 248.955 572.56C248.955 572.83 248.86 573.06 248.67 573.25C248.49 573.43 248.26 573.52 247.98 573.52ZM251.449 571.87H252.889V583H251.449V571.87ZM257.918 583.09C257.268 583.09 256.643 583.005 256.043 582.835C255.443 582.655 254.973 582.43 254.633 582.16L255.233 581.02C255.583 581.27 256.008 581.47 256.508 581.62C257.008 581.77 257.513 581.845 258.023 581.845C259.283 581.845 259.913 581.485 259.913 580.765C259.913 580.525 259.828 580.335 259.658 580.195C259.488 580.055 259.273 579.955 259.013 579.895C258.763 579.825 258.403 579.75 257.933 579.67C257.293 579.57 256.768 579.455 256.358 579.325C255.958 579.195 255.613 578.975 255.323 578.665C255.033 578.355 254.888 577.92 254.888 577.36C254.888 576.64 255.188 576.065 255.788 575.635C256.388 575.195 257.193 574.975 258.203 574.975C258.733 574.975 259.263 575.04 259.793 575.17C260.323 575.3 260.758 575.475 261.098 575.695L260.483 576.835C259.833 576.415 259.068 576.205 258.188 576.205C257.578 576.205 257.113 576.305 256.793 576.505C256.473 576.705 256.313 576.97 256.313 577.3C256.313 577.56 256.403 577.765 256.583 577.915C256.763 578.065 256.983 578.175 257.243 578.245C257.513 578.315 257.888 578.395 258.368 578.485C259.008 578.595 259.523 578.715 259.913 578.845C260.313 578.965 260.653 579.175 260.933 579.475C261.213 579.775 261.353 580.195 261.353 580.735C261.353 581.455 261.043 582.03 260.423 582.46C259.813 582.88 258.978 583.09 257.918 583.09Z" fill="#474A57"/>
<path d="M328.979 550.714C328.81 550.839 328.601 550.934 328.352 551C328.11 551.059 327.853 551.088 327.582 551.088C326.878 551.088 326.332 550.908 325.943 550.549C325.562 550.19 325.371 549.662 325.371 548.965V546.534H324.458V545.214H325.371V543.773H327.087V545.214H328.561V546.534H327.087V548.943C327.087 549.192 327.149 549.387 327.274 549.526C327.406 549.658 327.589 549.724 327.824 549.724C328.095 549.724 328.326 549.651 328.517 549.504L328.979 550.714ZM329.942 545.082H331.658V551H329.942V545.082ZM330.8 544.257C330.485 544.257 330.228 544.165 330.03 543.982C329.832 543.799 329.733 543.571 329.733 543.3C329.733 543.029 329.832 542.801 330.03 542.618C330.228 542.435 330.485 542.343 330.8 542.343C331.115 542.343 331.372 542.431 331.57 542.607C331.768 542.783 331.867 543.003 331.867 543.267C331.867 543.553 331.768 543.791 331.57 543.982C331.372 544.165 331.115 544.257 330.8 544.257ZM340.83 544.994C341.57 544.994 342.157 545.214 342.59 545.654C343.03 546.087 343.25 546.739 343.25 547.612V551H341.534V547.876C341.534 547.407 341.435 547.058 341.237 546.831C341.046 546.596 340.771 546.479 340.412 546.479C340.008 546.479 339.689 546.611 339.455 546.875C339.22 547.132 339.103 547.517 339.103 548.03V551H337.387V547.876C337.387 546.945 337.013 546.479 336.265 546.479C335.869 546.479 335.553 546.611 335.319 546.875C335.084 547.132 334.967 547.517 334.967 548.03V551H333.251V545.082H334.89V545.764C335.11 545.515 335.377 545.324 335.693 545.192C336.015 545.06 336.367 544.994 336.749 544.994C337.167 544.994 337.544 545.078 337.882 545.247C338.219 545.408 338.49 545.647 338.696 545.962C338.938 545.654 339.242 545.416 339.609 545.247C339.983 545.078 340.39 544.994 340.83 544.994ZM350.649 548.063C350.649 548.085 350.638 548.239 350.616 548.525H346.139C346.22 548.892 346.411 549.181 346.711 549.394C347.012 549.607 347.386 549.713 347.833 549.713C348.141 549.713 348.413 549.669 348.647 549.581C348.889 549.486 349.113 549.339 349.318 549.141L350.231 550.131C349.674 550.769 348.86 551.088 347.789 551.088C347.122 551.088 346.532 550.96 346.018 550.703C345.505 550.439 345.109 550.076 344.83 549.614C344.552 549.152 344.412 548.628 344.412 548.041C344.412 547.462 344.548 546.941 344.819 546.479C345.098 546.01 345.476 545.647 345.952 545.39C346.436 545.126 346.975 544.994 347.569 544.994C348.149 544.994 348.673 545.119 349.142 545.368C349.612 545.617 349.978 545.977 350.242 546.446C350.514 546.908 350.649 547.447 350.649 548.063ZM347.58 546.292C347.192 546.292 346.865 546.402 346.601 546.622C346.337 546.842 346.176 547.143 346.117 547.524H349.032C348.974 547.15 348.812 546.853 348.548 546.633C348.284 546.406 347.962 546.292 347.58 546.292Z" fill="#9FA4B4"/>
<rect width="375" height="98" transform="translate(0 612)" fill="white"/>
<rect x="25" y="638" width="46" height="46" rx="23" fill="#61E4C5" stroke="#18191F" stroke-width="2"/>
<path d="M51.0024 665.736H43.8984L42.5784 669H37.7304L45.1464 652.2H49.8264L57.2664 669H52.3224L51.0024 665.736ZM49.6104 662.232L47.4504 656.856L45.2904 662.232H49.6104Z" fill="white"/>
<path d="M92.799 658.294C91.259 658.294 89.873 657.972 88.641 657.328C87.423 656.67 86.464 655.76 85.764 654.598C85.064 653.436 84.714 652.12 84.714 650.65C84.714 649.18 85.064 647.864 85.764 646.702C86.464 645.54 87.423 644.637 88.641 643.993C89.873 643.335 91.259 643.006 92.799 643.006C94.143 643.006 95.354 643.244 96.432 643.72C97.51 644.196 98.406 644.882 99.12 645.778L96.474 648.172C95.522 647.024 94.367 646.45 93.009 646.45C92.211 646.45 91.497 646.625 90.867 646.975C90.251 647.325 89.768 647.822 89.418 648.466C89.082 649.096 88.914 649.824 88.914 650.65C88.914 651.476 89.082 652.211 89.418 652.855C89.768 653.485 90.251 653.975 90.867 654.325C91.497 654.675 92.211 654.85 93.009 654.85C94.367 654.85 95.522 654.276 96.474 653.128L99.12 655.522C98.406 656.418 97.51 657.104 96.432 657.58C95.354 658.056 94.143 658.294 92.799 658.294ZM106.148 658.189C104.93 658.189 103.831 657.937 102.851 657.433C101.871 656.929 101.101 656.229 100.541 655.333C99.9953 654.437 99.7223 653.422 99.7223 652.288C99.7223 651.168 99.9953 650.16 100.541 649.264C101.101 648.368 101.864 647.675 102.83 647.185C103.81 646.681 104.916 646.429 106.148 646.429C107.38 646.429 108.486 646.681 109.466 647.185C110.446 647.675 111.209 648.368 111.755 649.264C112.301 650.146 112.574 651.154 112.574 652.288C112.574 653.422 112.301 654.437 111.755 655.333C111.209 656.229 110.446 656.929 109.466 657.433C108.486 657.937 107.38 658.189 106.148 658.189ZM106.148 655.018C106.848 655.018 107.422 654.78 107.87 654.304C108.318 653.814 108.542 653.142 108.542 652.288C108.542 651.448 108.318 650.79 107.87 650.314C107.422 649.838 106.848 649.6 106.148 649.6C105.448 649.6 104.874 649.838 104.426 650.314C103.978 650.79 103.754 651.448 103.754 652.288C103.754 653.142 103.978 653.814 104.426 654.304C104.874 654.78 105.448 655.018 106.148 655.018ZM121.836 646.429C123.25 646.429 124.384 646.849 125.238 647.689C126.106 648.529 126.54 649.796 126.54 651.49V658H122.55V652.141C122.55 650.587 121.927 649.81 120.681 649.81C119.995 649.81 119.442 650.034 119.022 650.482C118.616 650.93 118.413 651.602 118.413 652.498V658H114.423V646.618H118.224V647.857C118.672 647.395 119.204 647.045 119.82 646.807C120.436 646.555 121.108 646.429 121.836 646.429ZM136.899 657.538C136.563 657.748 136.15 657.909 135.66 658.021C135.184 658.133 134.673 658.189 134.127 658.189C132.643 658.189 131.502 657.825 130.704 657.097C129.906 656.369 129.507 655.284 129.507 653.842V650.02H127.848V647.038H129.507V644.077H133.497V647.038H136.101V650.02H133.497V653.8C133.497 654.206 133.602 654.528 133.812 654.766C134.036 654.99 134.33 655.102 134.694 655.102C135.156 655.102 135.562 654.983 135.912 654.745L136.899 657.538ZM142.238 647.983C142.644 647.465 143.169 647.08 143.813 646.828C144.471 646.562 145.22 646.429 146.06 646.429V650.02C145.696 649.978 145.395 649.957 145.157 649.957C144.303 649.957 143.631 650.188 143.141 650.65C142.665 651.112 142.427 651.819 142.427 652.771V658H138.437V646.618H142.238V647.983ZM152.476 646.429C154.366 646.429 155.808 646.863 156.802 647.731C157.796 648.585 158.293 649.901 158.293 651.679V658H154.576V656.53C154.002 657.636 152.882 658.189 151.216 658.189C150.334 658.189 149.571 658.035 148.927 657.727C148.283 657.419 147.793 657.006 147.457 656.488C147.135 655.956 146.974 655.354 146.974 654.682C146.974 653.604 147.387 652.771 148.213 652.183C149.039 651.581 150.313 651.28 152.035 651.28H154.303C154.233 650.076 153.428 649.474 151.888 649.474C151.342 649.474 150.789 649.565 150.229 649.747C149.669 649.915 149.193 650.153 148.801 650.461L147.457 647.752C148.087 647.332 148.85 647.01 149.746 646.786C150.656 646.548 151.566 646.429 152.476 646.429ZM152.329 655.669C152.791 655.669 153.197 655.557 153.547 655.333C153.897 655.109 154.149 654.78 154.303 654.346V653.359H152.581C151.419 653.359 150.838 653.744 150.838 654.514C150.838 654.864 150.971 655.144 151.237 655.354C151.503 655.564 151.867 655.669 152.329 655.669ZM170.241 646.597H165.726V643.3H178.893V646.597H174.399V658H170.241V646.597ZM180.027 646.618H184.017V658H180.027V646.618ZM182.022 645.358C181.294 645.358 180.706 645.155 180.258 644.749C179.81 644.343 179.586 643.839 179.586 643.237C179.586 642.635 179.81 642.131 180.258 641.725C180.706 641.319 181.294 641.116 182.022 641.116C182.75 641.116 183.338 641.312 183.786 641.704C184.234 642.082 184.458 642.572 184.458 643.174C184.458 643.804 184.234 644.329 183.786 644.749C183.338 645.155 182.75 645.358 182.022 645.358ZM194.464 657.538C194.128 657.748 193.715 657.909 193.225 658.021C192.749 658.133 192.238 658.189 191.692 658.189C190.208 658.189 189.067 657.825 188.269 657.097C187.471 656.369 187.072 655.284 187.072 653.842V650.02H185.413V647.038H187.072V644.077H191.062V647.038H193.666V650.02H191.062V653.8C191.062 654.206 191.167 654.528 191.377 654.766C191.601 654.99 191.895 655.102 192.259 655.102C192.721 655.102 193.127 654.983 193.477 654.745L194.464 657.538ZM196.003 642.418H199.993V658H196.003V642.418ZM214.22 652.33C214.22 652.358 214.199 652.687 214.157 653.317H205.883C206.051 653.905 206.373 654.36 206.849 654.682C207.339 654.99 207.948 655.144 208.676 655.144C209.222 655.144 209.691 655.067 210.083 654.913C210.489 654.759 210.895 654.507 211.301 654.157L213.401 656.341C212.295 657.573 210.678 658.189 208.55 658.189C207.22 658.189 206.051 657.937 205.043 657.433C204.035 656.929 203.251 656.229 202.691 655.333C202.145 654.437 201.872 653.422 201.872 652.288C201.872 651.168 202.138 650.167 202.67 649.285C203.216 648.389 203.965 647.689 204.917 647.185C205.869 646.681 206.94 646.429 208.13 646.429C209.264 646.429 210.293 646.667 211.217 647.143C212.141 647.605 212.869 648.284 213.401 649.18C213.947 650.062 214.22 651.112 214.22 652.33ZM208.151 649.264C207.535 649.264 207.017 649.439 206.597 649.789C206.191 650.139 205.932 650.615 205.82 651.217H210.482C210.37 650.615 210.104 650.139 209.684 649.789C209.278 649.439 208.767 649.264 208.151 649.264Z" fill="#18191F"/>
<path d="M88.635 681.12C87.845 681.12 87.08 681 86.34 680.76C85.61 680.51 85.035 680.19 84.615 679.8L85.17 678.63C85.57 678.99 86.08 679.285 86.7 679.515C87.33 679.735 87.975 679.845 88.635 679.845C89.505 679.845 90.155 679.7 90.585 679.41C91.015 679.11 91.23 678.715 91.23 678.225C91.23 677.865 91.11 677.575 90.87 677.355C90.64 677.125 90.35 676.95 90 676.83C89.66 676.71 89.175 676.575 88.545 676.425C87.755 676.235 87.115 676.045 86.625 675.855C86.145 675.665 85.73 675.375 85.38 674.985C85.04 674.585 84.87 674.05 84.87 673.38C84.87 672.82 85.015 672.315 85.305 671.865C85.605 671.415 86.055 671.055 86.655 670.785C87.255 670.515 88 670.38 88.89 670.38C89.51 670.38 90.12 670.46 90.72 670.62C91.32 670.78 91.835 671.01 92.265 671.31L91.77 672.51C91.33 672.23 90.86 672.02 90.36 671.88C89.86 671.73 89.37 671.655 88.89 671.655C88.04 671.655 87.4 671.81 86.97 672.12C86.55 672.43 86.34 672.83 86.34 673.32C86.34 673.68 86.46 673.975 86.7 674.205C86.94 674.425 87.235 674.6 87.585 674.73C87.945 674.85 88.43 674.98 89.04 675.12C89.83 675.31 90.465 675.5 90.945 675.69C91.425 675.88 91.835 676.17 92.175 676.56C92.525 676.95 92.7 677.475 92.7 678.135C92.7 678.685 92.55 679.19 92.25 679.65C91.95 680.1 91.495 680.46 90.885 680.73C90.275 680.99 89.525 681.12 88.635 681.12ZM102.091 673.05V681H100.726V679.8C100.436 680.21 100.051 680.53 99.5714 680.76C99.1014 680.98 98.5864 681.09 98.0264 681.09C96.9664 681.09 96.1314 680.8 95.5214 680.22C94.9114 679.63 94.6064 678.765 94.6064 677.625V673.05H96.0464V677.46C96.0464 678.23 96.2314 678.815 96.6014 679.215C96.9714 679.605 97.5014 679.8 98.1914 679.8C98.9514 679.8 99.5514 679.57 99.9914 679.11C100.431 678.65 100.651 678 100.651 677.16V673.05H102.091ZM109.048 672.975C109.818 672.975 110.508 673.145 111.118 673.485C111.728 673.825 112.203 674.3 112.543 674.91C112.893 675.52 113.068 676.225 113.068 677.025C113.068 677.825 112.893 678.535 112.543 679.155C112.203 679.765 111.728 680.24 111.118 680.58C110.508 680.92 109.818 681.09 109.048 681.09C108.458 681.09 107.918 680.975 107.428 680.745C106.938 680.515 106.533 680.18 106.213 679.74V681H104.833V669.87H106.273V674.25C106.593 673.83 106.993 673.515 107.473 673.305C107.953 673.085 108.478 672.975 109.048 672.975ZM108.928 679.83C109.438 679.83 109.893 679.715 110.293 679.485C110.703 679.245 111.023 678.915 111.253 678.495C111.493 678.065 111.613 677.575 111.613 677.025C111.613 676.475 111.493 675.99 111.253 675.57C111.023 675.14 110.703 674.81 110.293 674.58C109.893 674.35 109.438 674.235 108.928 674.235C108.428 674.235 107.973 674.35 107.563 674.58C107.153 674.81 106.833 675.14 106.603 675.57C106.373 675.99 106.258 676.475 106.258 677.025C106.258 677.575 106.373 678.065 106.603 678.495C106.833 678.915 107.153 679.245 107.563 679.485C107.973 679.715 108.428 679.83 108.928 679.83ZM119.527 680.535C119.317 680.715 119.057 680.855 118.747 680.955C118.437 681.045 118.117 681.09 117.787 681.09C116.987 681.09 116.367 680.875 115.927 680.445C115.487 680.015 115.267 679.4 115.267 678.6V674.235H113.917V673.05H115.267V671.31H116.707V673.05H118.987V674.235H116.707V678.54C116.707 678.97 116.812 679.3 117.022 679.53C117.242 679.76 117.552 679.875 117.952 679.875C118.392 679.875 118.767 679.75 119.077 679.5L119.527 680.535ZM121.268 673.05H122.708V681H121.268V673.05ZM121.988 671.52C121.708 671.52 121.473 671.43 121.283 671.25C121.103 671.07 121.013 670.85 121.013 670.59C121.013 670.33 121.103 670.11 121.283 669.93C121.473 669.74 121.708 669.645 121.988 669.645C122.268 669.645 122.498 669.735 122.678 669.915C122.868 670.085 122.963 670.3 122.963 670.56C122.963 670.83 122.868 671.06 122.678 671.25C122.498 671.43 122.268 671.52 121.988 671.52ZM129.928 680.535C129.718 680.715 129.458 680.855 129.148 680.955C128.838 681.045 128.518 681.09 128.188 681.09C127.388 681.09 126.768 680.875 126.328 680.445C125.888 680.015 125.668 679.4 125.668 678.6V674.235H124.318V673.05H125.668V671.31H127.108V673.05H129.388V674.235H127.108V678.54C127.108 678.97 127.213 679.3 127.423 679.53C127.643 679.76 127.953 679.875 128.353 679.875C128.793 679.875 129.168 679.75 129.478 679.5L129.928 680.535ZM131.669 669.87H133.109V681H131.669V669.87ZM143.043 677.07C143.043 677.18 143.033 677.325 143.013 677.505H136.563C136.653 678.205 136.958 678.77 137.478 679.2C138.008 679.62 138.663 679.83 139.443 679.83C140.393 679.83 141.158 679.51 141.738 678.87L142.533 679.8C142.173 680.22 141.723 680.54 141.183 680.76C140.653 680.98 140.058 681.09 139.398 681.09C138.558 681.09 137.813 680.92 137.163 680.58C136.513 680.23 136.008 679.745 135.648 679.125C135.298 678.505 135.123 677.805 135.123 677.025C135.123 676.255 135.293 675.56 135.633 674.94C135.983 674.32 136.458 673.84 137.058 673.5C137.668 673.15 138.353 672.975 139.113 672.975C139.873 672.975 140.548 673.15 141.138 673.5C141.738 673.84 142.203 674.32 142.533 674.94C142.873 675.56 143.043 676.27 143.043 677.07ZM139.113 674.19C138.423 674.19 137.843 674.4 137.373 674.82C136.913 675.24 136.643 675.79 136.563 676.47H141.663C141.583 675.8 141.308 675.255 140.838 674.835C140.378 674.405 139.803 674.19 139.113 674.19ZM152.476 681.09C151.686 681.09 150.976 680.915 150.346 680.565C149.716 680.215 149.221 679.735 148.861 679.125C148.511 678.505 148.336 677.805 148.336 677.025C148.336 676.245 148.511 675.55 148.861 674.94C149.221 674.32 149.716 673.84 150.346 673.5C150.976 673.15 151.686 672.975 152.476 672.975C153.266 672.975 153.971 673.15 154.591 673.5C155.221 673.84 155.711 674.32 156.061 674.94C156.421 675.55 156.601 676.245 156.601 677.025C156.601 677.805 156.421 678.505 156.061 679.125C155.711 679.735 155.221 680.215 154.591 680.565C153.971 680.915 153.266 681.09 152.476 681.09ZM152.476 679.83C152.986 679.83 153.441 679.715 153.841 679.485C154.251 679.245 154.571 678.915 154.801 678.495C155.031 678.065 155.146 677.575 155.146 677.025C155.146 676.475 155.031 675.99 154.801 675.57C154.571 675.14 154.251 674.81 153.841 674.58C153.441 674.35 152.986 674.235 152.476 674.235C151.966 674.235 151.506 674.35 151.096 674.58C150.696 674.81 150.376 675.14 150.136 675.57C149.906 675.99 149.791 676.475 149.791 677.025C149.791 677.575 149.906 678.065 150.136 678.495C150.376 678.915 150.696 679.245 151.096 679.485C151.506 679.715 151.966 679.83 152.476 679.83ZM159.973 674.385C160.223 673.925 160.593 673.575 161.083 673.335C161.573 673.095 162.168 672.975 162.868 672.975V674.37C162.788 674.36 162.678 674.355 162.538 674.355C161.758 674.355 161.143 674.59 160.693 675.06C160.253 675.52 160.033 676.18 160.033 677.04V681H158.593V673.05H159.973V674.385ZM171.053 681.09C170.403 681.09 169.778 681.005 169.178 680.835C168.578 680.655 168.108 680.43 167.768 680.16L168.368 679.02C168.718 679.27 169.143 679.47 169.643 679.62C170.143 679.77 170.648 679.845 171.158 679.845C172.418 679.845 173.048 679.485 173.048 678.765C173.048 678.525 172.963 678.335 172.793 678.195C172.623 678.055 172.408 677.955 172.148 677.895C171.898 677.825 171.538 677.75 171.068 677.67C170.428 677.57 169.903 677.455 169.493 677.325C169.093 677.195 168.748 676.975 168.458 676.665C168.168 676.355 168.023 675.92 168.023 675.36C168.023 674.64 168.323 674.065 168.923 673.635C169.523 673.195 170.328 672.975 171.338 672.975C171.868 672.975 172.398 673.04 172.928 673.17C173.458 673.3 173.893 673.475 174.233 673.695L173.618 674.835C172.968 674.415 172.203 674.205 171.323 674.205C170.713 674.205 170.248 674.305 169.928 674.505C169.608 674.705 169.448 674.97 169.448 675.3C169.448 675.56 169.538 675.765 169.718 675.915C169.898 676.065 170.118 676.175 170.378 676.245C170.648 676.315 171.023 676.395 171.503 676.485C172.143 676.595 172.658 676.715 173.048 676.845C173.448 676.965 173.788 677.175 174.068 677.475C174.348 677.775 174.488 678.195 174.488 678.735C174.488 679.455 174.178 680.03 173.558 680.46C172.948 680.88 172.113 681.09 171.053 681.09ZM180.533 672.975C181.543 672.975 182.343 673.27 182.933 673.86C183.533 674.44 183.833 675.295 183.833 676.425V681H182.393V676.59C182.393 675.82 182.208 675.24 181.838 674.85C181.468 674.46 180.938 674.265 180.248 674.265C179.468 674.265 178.853 674.495 178.403 674.955C177.953 675.405 177.728 676.055 177.728 676.905V681H176.288V669.87H177.728V674.175C178.028 673.795 178.418 673.5 178.898 673.29C179.388 673.08 179.933 672.975 180.533 672.975ZM189.947 681.09C189.157 681.09 188.447 680.915 187.817 680.565C187.187 680.215 186.692 679.735 186.332 679.125C185.982 678.505 185.807 677.805 185.807 677.025C185.807 676.245 185.982 675.55 186.332 674.94C186.692 674.32 187.187 673.84 187.817 673.5C188.447 673.15 189.157 672.975 189.947 672.975C190.737 672.975 191.442 673.15 192.062 673.5C192.692 673.84 193.182 674.32 193.532 674.94C193.892 675.55 194.072 676.245 194.072 677.025C194.072 677.805 193.892 678.505 193.532 679.125C193.182 679.735 192.692 680.215 192.062 680.565C191.442 680.915 190.737 681.09 189.947 681.09ZM189.947 679.83C190.457 679.83 190.912 679.715 191.312 679.485C191.722 679.245 192.042 678.915 192.272 678.495C192.502 678.065 192.617 677.575 192.617 677.025C192.617 676.475 192.502 675.99 192.272 675.57C192.042 675.14 191.722 674.81 191.312 674.58C190.912 674.35 190.457 674.235 189.947 674.235C189.437 674.235 188.977 674.35 188.567 674.58C188.167 674.81 187.847 675.14 187.607 675.57C187.377 675.99 187.262 676.475 187.262 677.025C187.262 677.575 187.377 678.065 187.607 678.495C187.847 678.915 188.167 679.245 188.567 679.485C188.977 679.715 189.437 679.83 189.947 679.83ZM197.443 674.385C197.693 673.925 198.063 673.575 198.553 673.335C199.043 673.095 199.638 672.975 200.338 672.975V674.37C200.258 674.36 200.148 674.355 200.008 674.355C199.228 674.355 198.613 674.59 198.163 675.06C197.723 675.52 197.503 676.18 197.503 677.04V681H196.063V673.05H197.443V674.385ZM206.905 680.535C206.695 680.715 206.435 680.855 206.125 680.955C205.815 681.045 205.495 681.09 205.165 681.09C204.365 681.09 203.745 680.875 203.305 680.445C202.865 680.015 202.645 679.4 202.645 678.6V674.235H201.295V673.05H202.645V671.31H204.085V673.05H206.365V674.235H204.085V678.54C204.085 678.97 204.19 679.3 204.4 679.53C204.62 679.76 204.93 679.875 205.33 679.875C205.77 679.875 206.145 679.75 206.455 679.5L206.905 680.535ZM220.175 669.87V681H218.795V679.74C218.475 680.18 218.07 680.515 217.58 680.745C217.09 680.975 216.55 681.09 215.96 681.09C215.19 681.09 214.5 680.92 213.89 680.58C213.28 680.24 212.8 679.765 212.45 679.155C212.11 678.535 211.94 677.825 211.94 677.025C211.94 676.225 212.11 675.52 212.45 674.91C212.8 674.3 213.28 673.825 213.89 673.485C214.5 673.145 215.19 672.975 215.96 672.975C216.53 672.975 217.055 673.085 217.535 673.305C218.015 673.515 218.415 673.83 218.735 674.25V669.87H220.175ZM216.08 679.83C216.58 679.83 217.035 679.715 217.445 679.485C217.855 679.245 218.175 678.915 218.405 678.495C218.635 678.065 218.75 677.575 218.75 677.025C218.75 676.475 218.635 675.99 218.405 675.57C218.175 675.14 217.855 674.81 217.445 674.58C217.035 674.35 216.58 674.235 216.08 674.235C215.57 674.235 215.11 674.35 214.7 674.58C214.3 674.81 213.98 675.14 213.74 675.57C213.51 675.99 213.395 676.475 213.395 677.025C213.395 677.575 213.51 678.065 213.74 678.495C213.98 678.915 214.3 679.245 214.7 679.485C215.11 679.715 215.57 679.83 216.08 679.83ZM230.084 677.07C230.084 677.18 230.074 677.325 230.054 677.505H223.604C223.694 678.205 223.999 678.77 224.519 679.2C225.049 679.62 225.704 679.83 226.484 679.83C227.434 679.83 228.199 679.51 228.779 678.87L229.574 679.8C229.214 680.22 228.764 680.54 228.224 680.76C227.694 680.98 227.099 681.09 226.439 681.09C225.599 681.09 224.854 680.92 224.204 680.58C223.554 680.23 223.049 679.745 222.689 679.125C222.339 678.505 222.164 677.805 222.164 677.025C222.164 676.255 222.334 675.56 222.674 674.94C223.024 674.32 223.499 673.84 224.099 673.5C224.709 673.15 225.394 672.975 226.154 672.975C226.914 672.975 227.589 673.15 228.179 673.5C228.779 673.84 229.244 674.32 229.574 674.94C229.914 675.56 230.084 676.27 230.084 677.07ZM226.154 674.19C225.464 674.19 224.884 674.4 224.414 674.82C223.954 675.24 223.684 675.79 223.604 676.47H228.704C228.624 675.8 228.349 675.255 227.879 674.835C227.419 674.405 226.844 674.19 226.154 674.19ZM236.554 680.535C236.344 680.715 236.084 680.855 235.774 680.955C235.464 681.045 235.144 681.09 234.814 681.09C234.014 681.09 233.394 680.875 232.954 680.445C232.514 680.015 232.294 679.4 232.294 678.6V674.235H230.944V673.05H232.294V671.31H233.734V673.05H236.014V674.235H233.734V678.54C233.734 678.97 233.839 679.3 234.049 679.53C234.269 679.76 234.579 679.875 234.979 679.875C235.419 679.875 235.794 679.75 236.104 679.5L236.554 680.535ZM241.19 672.975C242.29 672.975 243.13 673.245 243.71 673.785C244.3 674.325 244.595 675.13 244.595 676.2V681H243.23V679.95C242.99 680.32 242.645 680.605 242.195 680.805C241.755 680.995 241.23 681.09 240.62 681.09C239.73 681.09 239.015 680.875 238.475 680.445C237.945 680.015 237.68 679.45 237.68 678.75C237.68 678.05 237.935 677.49 238.445 677.07C238.955 676.64 239.765 676.425 240.875 676.425H243.155V676.14C243.155 675.52 242.975 675.045 242.615 674.715C242.255 674.385 241.725 674.22 241.025 674.22C240.555 674.22 240.095 674.3 239.645 674.46C239.195 674.61 238.815 674.815 238.505 675.075L237.905 673.995C238.315 673.665 238.805 673.415 239.375 673.245C239.945 673.065 240.55 672.975 241.19 672.975ZM240.86 679.98C241.41 679.98 241.885 679.86 242.285 679.62C242.685 679.37 242.975 679.02 243.155 678.57V677.46H240.935C239.715 677.46 239.105 677.87 239.105 678.69C239.105 679.09 239.26 679.405 239.57 679.635C239.88 679.865 240.31 679.98 240.86 679.98ZM247.26 673.05H248.7V681H247.26V673.05ZM247.98 671.52C247.7 671.52 247.465 671.43 247.275 671.25C247.095 671.07 247.005 670.85 247.005 670.59C247.005 670.33 247.095 670.11 247.275 669.93C247.465 669.74 247.7 669.645 247.98 669.645C248.26 669.645 248.49 669.735 248.67 669.915C248.86 670.085 248.955 670.3 248.955 670.56C248.955 670.83 248.86 671.06 248.67 671.25C248.49 671.43 248.26 671.52 247.98 671.52ZM251.449 669.87H252.889V681H251.449V669.87ZM257.918 681.09C257.268 681.09 256.643 681.005 256.043 680.835C255.443 680.655 254.973 680.43 254.633 680.16L255.233 679.02C255.583 679.27 256.008 679.47 256.508 679.62C257.008 679.77 257.513 679.845 258.023 679.845C259.283 679.845 259.913 679.485 259.913 678.765C259.913 678.525 259.828 678.335 259.658 678.195C259.488 678.055 259.273 677.955 259.013 677.895C258.763 677.825 258.403 677.75 257.933 677.67C257.293 677.57 256.768 677.455 256.358 677.325C255.958 677.195 255.613 676.975 255.323 676.665C255.033 676.355 254.888 675.92 254.888 675.36C254.888 674.64 255.188 674.065 255.788 673.635C256.388 673.195 257.193 672.975 258.203 672.975C258.733 672.975 259.263 673.04 259.793 673.17C260.323 673.3 260.758 673.475 261.098 673.695L260.483 674.835C259.833 674.415 259.068 674.205 258.188 674.205C257.578 674.205 257.113 674.305 256.793 674.505C256.473 674.705 256.313 674.97 256.313 675.3C256.313 675.56 256.403 675.765 256.583 675.915C256.763 676.065 256.983 676.175 257.243 676.245C257.513 676.315 257.888 676.395 258.368 676.485C259.008 676.595 259.523 676.715 259.913 676.845C260.313 676.965 260.653 677.175 260.933 677.475C261.213 677.775 261.353 678.195 261.353 678.735C261.353 679.455 261.043 680.03 260.423 680.46C259.813 680.88 258.978 681.09 257.918 681.09Z" fill="#474A57"/>
<path d="M328.979 648.714C328.81 648.839 328.601 648.934 328.352 649C328.11 649.059 327.853 649.088 327.582 649.088C326.878 649.088 326.332 648.908 325.943 648.549C325.562 648.19 325.371 647.662 325.371 646.965V644.534H324.458V643.214H325.371V641.773H327.087V643.214H328.561V644.534H327.087V646.943C327.087 647.192 327.149 647.387 327.274 647.526C327.406 647.658 327.589 647.724 327.824 647.724C328.095 647.724 328.326 647.651 328.517 647.504L328.979 648.714ZM329.942 643.082H331.658V649H329.942V643.082ZM330.8 642.257C330.485 642.257 330.228 642.165 330.03 641.982C329.832 641.799 329.733 641.571 329.733 641.3C329.733 641.029 329.832 640.801 330.03 640.618C330.228 640.435 330.485 640.343 330.8 640.343C331.115 640.343 331.372 640.431 331.57 640.607C331.768 640.783 331.867 641.003 331.867 641.267C331.867 641.553 331.768 641.791 331.57 641.982C331.372 642.165 331.115 642.257 330.8 642.257ZM340.83 642.994C341.57 642.994 342.157 643.214 342.59 643.654C343.03 644.087 343.25 644.739 343.25 645.612V649H341.534V645.876C341.534 645.407 341.435 645.058 341.237 644.831C341.046 644.596 340.771 644.479 340.412 644.479C340.008 644.479 339.689 644.611 339.455 644.875C339.22 645.132 339.103 645.517 339.103 646.03V649H337.387V645.876C337.387 644.945 337.013 644.479 336.265 644.479C335.869 644.479 335.553 644.611 335.319 644.875C335.084 645.132 334.967 645.517 334.967 646.03V649H333.251V643.082H334.89V643.764C335.11 643.515 335.377 643.324 335.693 643.192C336.015 643.06 336.367 642.994 336.749 642.994C337.167 642.994 337.544 643.078 337.882 643.247C338.219 643.408 338.49 643.647 338.696 643.962C338.938 643.654 339.242 643.416 339.609 643.247C339.983 643.078 340.39 642.994 340.83 642.994ZM350.649 646.063C350.649 646.085 350.638 646.239 350.616 646.525H346.139C346.22 646.892 346.411 647.181 346.711 647.394C347.012 647.607 347.386 647.713 347.833 647.713C348.141 647.713 348.413 647.669 348.647 647.581C348.889 647.486 349.113 647.339 349.318 647.141L350.231 648.131C349.674 648.769 348.86 649.088 347.789 649.088C347.122 649.088 346.532 648.96 346.018 648.703C345.505 648.439 345.109 648.076 344.83 647.614C344.552 647.152 344.412 646.628 344.412 646.041C344.412 645.462 344.548 644.941 344.819 644.479C345.098 644.01 345.476 643.647 345.952 643.39C346.436 643.126 346.975 642.994 347.569 642.994C348.149 642.994 348.673 643.119 349.142 643.368C349.612 643.617 349.978 643.977 350.242 644.446C350.514 644.908 350.649 645.447 350.649 646.063ZM347.58 644.292C347.192 644.292 346.865 644.402 346.601 644.622C346.337 644.842 346.176 645.143 346.117 645.524H349.032C348.974 645.15 348.812 644.853 348.548 644.633C348.284 644.406 347.962 644.292 347.58 644.292Z" fill="#9FA4B4"/>
<path d="M33.375 405.05V407H25.245V396.5H33.18V398.45H27.66V400.73H32.535V402.62H27.66V405.05H33.375ZM40.1709 407L38.4009 404.525L36.5709 407H34.0209L37.1259 402.935L34.1259 398.93H36.7509L38.4609 401.285L40.2159 398.93H42.7059L39.7059 402.875L42.8259 407H40.1709ZM48.7318 398.81C49.4818 398.81 50.1618 398.985 50.7718 399.335C51.3918 399.675 51.8768 400.16 52.2268 400.79C52.5768 401.41 52.7518 402.135 52.7518 402.965C52.7518 403.795 52.5768 404.525 52.2268 405.155C51.8768 405.775 51.3918 406.26 50.7718 406.61C50.1618 406.95 49.4818 407.12 48.7318 407.12C47.7018 407.12 46.8918 406.795 46.3018 406.145V409.91H43.9618V398.93H46.1968V399.86C46.7768 399.16 47.6218 398.81 48.7318 398.81ZM48.3268 405.2C48.9268 405.2 49.4168 405 49.7968 404.6C50.1868 404.19 50.3818 403.645 50.3818 402.965C50.3818 402.285 50.1868 401.745 49.7968 401.345C49.4168 400.935 48.9268 400.73 48.3268 400.73C47.7268 400.73 47.2318 400.935 46.8418 401.345C46.4618 401.745 46.2718 402.285 46.2718 402.965C46.2718 403.645 46.4618 404.19 46.8418 404.6C47.2318 405 47.7268 405.2 48.3268 405.2ZM62.2233 402.995C62.2233 403.025 62.2083 403.235 62.1783 403.625H56.0733C56.1833 404.125 56.4433 404.52 56.8533 404.81C57.2633 405.1 57.7733 405.245 58.3833 405.245C58.8033 405.245 59.1733 405.185 59.4933 405.065C59.8233 404.935 60.1283 404.735 60.4083 404.465L61.6533 405.815C60.8933 406.685 59.7833 407.12 58.3233 407.12C57.4133 407.12 56.6083 406.945 55.9083 406.595C55.2083 406.235 54.6683 405.74 54.2883 405.11C53.9083 404.48 53.7183 403.765 53.7183 402.965C53.7183 402.175 53.9033 401.465 54.2733 400.835C54.6533 400.195 55.1683 399.7 55.8183 399.35C56.4783 398.99 57.2133 398.81 58.0233 398.81C58.8133 398.81 59.5283 398.98 60.1683 399.32C60.8083 399.66 61.3083 400.15 61.6683 400.79C62.0383 401.42 62.2233 402.155 62.2233 402.995ZM58.0383 400.58C57.5083 400.58 57.0633 400.73 56.7033 401.03C56.3433 401.33 56.1233 401.74 56.0433 402.26H60.0183C59.9383 401.75 59.7183 401.345 59.3583 401.045C58.9983 400.735 58.5583 400.58 58.0383 400.58ZM68.6862 398.81C69.6862 398.81 70.4912 399.11 71.1012 399.71C71.7212 400.31 72.0312 401.2 72.0312 402.38V407H69.6912V402.74C69.6912 402.1 69.5512 401.625 69.2712 401.315C68.9912 400.995 68.5862 400.835 68.0562 400.835C67.4662 400.835 66.9962 401.02 66.6462 401.39C66.2962 401.75 66.1212 402.29 66.1212 403.01V407H63.7812V398.93H66.0162V399.875C66.3262 399.535 66.7112 399.275 67.1712 399.095C67.6312 398.905 68.1362 398.81 68.6862 398.81ZM76.8673 407.12C76.1973 407.12 75.5423 407.04 74.9023 406.88C74.2623 406.71 73.7523 406.5 73.3723 406.25L74.1523 404.57C74.5123 404.8 74.9473 404.99 75.4573 405.14C75.9673 405.28 76.4673 405.35 76.9573 405.35C77.9473 405.35 78.4423 405.105 78.4423 404.615C78.4423 404.385 78.3073 404.22 78.0373 404.12C77.7673 404.02 77.3523 403.935 76.7923 403.865C76.1323 403.765 75.5873 403.65 75.1573 403.52C74.7273 403.39 74.3523 403.16 74.0323 402.83C73.7223 402.5 73.5673 402.03 73.5673 401.42C73.5673 400.91 73.7123 400.46 74.0023 400.07C74.3023 399.67 74.7323 399.36 75.2923 399.14C75.8623 398.92 76.5323 398.81 77.3023 398.81C77.8723 398.81 78.4373 398.875 78.9973 399.005C79.5673 399.125 80.0373 399.295 80.4073 399.515L79.6273 401.18C78.9173 400.78 78.1423 400.58 77.3023 400.58C76.8023 400.58 76.4273 400.65 76.1773 400.79C75.9273 400.93 75.8023 401.11 75.8023 401.33C75.8023 401.58 75.9373 401.755 76.2073 401.855C76.4773 401.955 76.9073 402.05 77.4973 402.14C78.1573 402.25 78.6973 402.37 79.1173 402.5C79.5373 402.62 79.9023 402.845 80.2123 403.175C80.5223 403.505 80.6773 403.965 80.6773 404.555C80.6773 405.055 80.5273 405.5 80.2273 405.89C79.9273 406.28 79.4873 406.585 78.9073 406.805C78.3373 407.015 77.6573 407.12 76.8673 407.12ZM90.026 402.995C90.026 403.025 90.011 403.235 89.981 403.625H83.876C83.986 404.125 84.246 404.52 84.656 404.81C85.066 405.1 85.576 405.245 86.186 405.245C86.606 405.245 86.976 405.185 87.296 405.065C87.626 404.935 87.931 404.735 88.211 404.465L89.456 405.815C88.696 406.685 87.586 407.12 86.126 407.12C85.216 407.12 84.411 406.945 83.711 406.595C83.011 406.235 82.471 405.74 82.091 405.11C81.711 404.48 81.521 403.765 81.521 402.965C81.521 402.175 81.706 401.465 82.076 400.835C82.456 400.195 82.971 399.7 83.621 399.35C84.281 398.99 85.016 398.81 85.826 398.81C86.616 398.81 87.331 398.98 87.971 399.32C88.611 399.66 89.111 400.15 89.471 400.79C89.841 401.42 90.026 402.155 90.026 402.995ZM85.841 400.58C85.311 400.58 84.866 400.73 84.506 401.03C84.146 401.33 83.926 401.74 83.846 402.26H87.821C87.741 401.75 87.521 401.345 87.161 401.045C86.801 400.735 86.361 400.58 85.841 400.58ZM104.052 395.87V407H101.817V406.07C101.237 406.77 100.397 407.12 99.297 407.12C98.537 407.12 97.847 406.95 97.227 406.61C96.617 406.27 96.137 405.785 95.787 405.155C95.437 404.525 95.262 403.795 95.262 402.965C95.262 402.135 95.437 401.405 95.787 400.775C96.137 400.145 96.617 399.66 97.227 399.32C97.847 398.98 98.537 398.81 99.297 398.81C100.327 398.81 101.132 399.135 101.712 399.785V395.87H104.052ZM99.702 405.2C100.292 405.2 100.782 405 101.172 404.6C101.562 404.19 101.757 403.645 101.757 402.965C101.757 402.285 101.562 401.745 101.172 401.345C100.782 400.935 100.292 400.73 99.702 400.73C99.102 400.73 98.607 400.935 98.217 401.345C97.827 401.745 97.632 402.285 97.632 402.965C97.632 403.645 97.827 404.19 98.217 404.6C98.607 405 99.102 405.2 99.702 405.2ZM114.123 402.995C114.123 403.025 114.108 403.235 114.078 403.625H107.973C108.083 404.125 108.343 404.52 108.753 404.81C109.163 405.1 109.673 405.245 110.283 405.245C110.703 405.245 111.073 405.185 111.393 405.065C111.723 404.935 112.028 404.735 112.308 404.465L113.553 405.815C112.793 406.685 111.683 407.12 110.223 407.12C109.313 407.12 108.508 406.945 107.808 406.595C107.108 406.235 106.568 405.74 106.188 405.11C105.808 404.48 105.618 403.765 105.618 402.965C105.618 402.175 105.803 401.465 106.173 400.835C106.553 400.195 107.068 399.7 107.718 399.35C108.378 398.99 109.113 398.81 109.923 398.81C110.713 398.81 111.428 398.98 112.068 399.32C112.708 399.66 113.208 400.15 113.568 400.79C113.938 401.42 114.123 402.155 114.123 402.995ZM109.938 400.58C109.408 400.58 108.963 400.73 108.603 401.03C108.243 401.33 108.023 401.74 107.943 402.26H111.918C111.838 401.75 111.618 401.345 111.258 401.045C110.898 400.735 110.458 400.58 109.938 400.58ZM120.886 406.61C120.656 406.78 120.371 406.91 120.031 407C119.701 407.08 119.351 407.12 118.981 407.12C118.021 407.12 117.276 406.875 116.746 406.385C116.226 405.895 115.966 405.175 115.966 404.225V400.91H114.721V399.11H115.966V397.145H118.306V399.11H120.316V400.91H118.306V404.195C118.306 404.535 118.391 404.8 118.561 404.99C118.741 405.17 118.991 405.26 119.311 405.26C119.681 405.26 119.996 405.16 120.256 404.96L120.886 406.61ZM125.454 398.81C126.704 398.81 127.664 399.11 128.334 399.71C129.004 400.3 129.339 401.195 129.339 402.395V407H127.149V405.995C126.709 406.745 125.889 407.12 124.689 407.12C124.069 407.12 123.529 407.015 123.069 406.805C122.619 406.595 122.274 406.305 122.034 405.935C121.794 405.565 121.674 405.145 121.674 404.675C121.674 403.925 121.954 403.335 122.514 402.905C123.084 402.475 123.959 402.26 125.139 402.26H126.999C126.999 401.75 126.844 401.36 126.534 401.09C126.224 400.81 125.759 400.67 125.139 400.67C124.709 400.67 124.284 400.74 123.864 400.88C123.454 401.01 123.104 401.19 122.814 401.42L121.974 399.785C122.414 399.475 122.939 399.235 123.549 399.065C124.169 398.895 124.804 398.81 125.454 398.81ZM125.274 405.545C125.674 405.545 126.029 405.455 126.339 405.275C126.649 405.085 126.869 404.81 126.999 404.45V403.625H125.394C124.434 403.625 123.954 403.94 123.954 404.57C123.954 404.87 124.069 405.11 124.299 405.29C124.539 405.46 124.864 405.545 125.274 405.545ZM131.457 398.93H133.797V407H131.457V398.93ZM132.627 397.805C132.197 397.805 131.847 397.68 131.577 397.43C131.307 397.18 131.172 396.87 131.172 396.5C131.172 396.13 131.307 395.82 131.577 395.57C131.847 395.32 132.197 395.195 132.627 395.195C133.057 395.195 133.407 395.315 133.677 395.555C133.947 395.795 134.082 396.095 134.082 396.455C134.082 396.845 133.947 397.17 133.677 397.43C133.407 397.68 133.057 397.805 132.627 397.805ZM135.969 395.87H138.309V407H135.969V395.87ZM143.195 407.12C142.525 407.12 141.87 407.04 141.23 406.88C140.59 406.71 140.08 406.5 139.7 406.25L140.48 404.57C140.84 404.8 141.275 404.99 141.785 405.14C142.295 405.28 142.795 405.35 143.285 405.35C144.275 405.35 144.77 405.105 144.77 404.615C144.77 404.385 144.635 404.22 144.365 404.12C144.095 404.02 143.68 403.935 143.12 403.865C142.46 403.765 141.915 403.65 141.485 403.52C141.055 403.39 140.68 403.16 140.36 402.83C140.05 402.5 139.895 402.03 139.895 401.42C139.895 400.91 140.04 400.46 140.33 400.07C140.63 399.67 141.06 399.36 141.62 399.14C142.19 398.92 142.86 398.81 143.63 398.81C144.2 398.81 144.765 398.875 145.325 399.005C145.895 399.125 146.365 399.295 146.735 399.515L145.955 401.18C145.245 400.78 144.47 400.58 143.63 400.58C143.13 400.58 142.755 400.65 142.505 400.79C142.255 400.93 142.13 401.11 142.13 401.33C142.13 401.58 142.265 401.755 142.535 401.855C142.805 401.955 143.235 402.05 143.825 402.14C144.485 402.25 145.025 402.37 145.445 402.5C145.865 402.62 146.23 402.845 146.54 403.175C146.85 403.505 147.005 403.965 147.005 404.555C147.005 405.055 146.855 405.5 146.555 405.89C146.255 406.28 145.815 406.585 145.235 406.805C144.665 407.015 143.985 407.12 143.195 407.12Z" fill="#9FA4B4"/>
<rect x="24" y="712" width="327" height="60" rx="16" fill="#18191F"/>
<g clip-path="url(#clip1_186_1577)">
<path d="M113.205 746.787V750H101.403V735.3H112.932V738.513H105.519V740.991H112.05V744.099H105.519V746.787H113.205ZM130.149 738.429C131.549 738.429 132.662 738.849 133.488 739.689C134.328 740.529 134.748 741.796 134.748 743.49V750H130.758V744.141C130.758 743.343 130.604 742.755 130.296 742.377C130.002 741.999 129.582 741.81 129.036 741.81C128.434 741.81 127.951 742.02 127.587 742.44C127.223 742.86 127.041 743.497 127.041 744.351V750H123.051V744.141C123.051 742.587 122.477 741.81 121.329 741.81C120.713 741.81 120.223 742.02 119.859 742.44C119.495 742.86 119.313 743.497 119.313 744.351V750H115.323V738.618H119.124V739.815C119.544 739.353 120.041 739.01 120.615 738.786C121.203 738.548 121.84 738.429 122.526 738.429C123.324 738.429 124.038 738.576 124.668 738.87C125.298 739.164 125.809 739.612 126.201 740.214C126.649 739.64 127.216 739.199 127.902 738.891C128.588 738.583 129.337 738.429 130.149 738.429ZM142.118 738.429C144.008 738.429 145.45 738.863 146.444 739.731C147.438 740.585 147.935 741.901 147.935 743.679V750H144.218V748.53C143.644 749.636 142.524 750.189 140.858 750.189C139.976 750.189 139.213 750.035 138.569 749.727C137.925 749.419 137.435 749.006 137.099 748.488C136.777 747.956 136.616 747.354 136.616 746.682C136.616 745.604 137.029 744.771 137.855 744.183C138.681 743.581 139.955 743.28 141.677 743.28H143.945C143.875 742.076 143.07 741.474 141.53 741.474C140.984 741.474 140.431 741.565 139.871 741.747C139.311 741.915 138.835 742.153 138.443 742.461L137.099 739.752C137.729 739.332 138.492 739.01 139.388 738.786C140.298 738.548 141.208 738.429 142.118 738.429ZM141.971 747.669C142.433 747.669 142.839 747.557 143.189 747.333C143.539 747.109 143.791 746.78 143.945 746.346V745.359H142.223C141.061 745.359 140.48 745.744 140.48 746.514C140.48 746.864 140.613 747.144 140.879 747.354C141.145 747.564 141.509 747.669 141.971 747.669ZM150.453 738.618H154.443V750H150.453V738.618ZM152.448 737.358C151.72 737.358 151.132 737.155 150.684 736.749C150.236 736.343 150.012 735.839 150.012 735.237C150.012 734.635 150.236 734.131 150.684 733.725C151.132 733.319 151.72 733.116 152.448 733.116C153.176 733.116 153.764 733.312 154.212 733.704C154.66 734.082 154.884 734.572 154.884 735.174C154.884 735.804 154.66 736.329 154.212 736.749C153.764 737.155 153.176 737.358 152.448 737.358ZM157.036 734.418H161.026V750H157.036V734.418ZM176.346 746.094H174.078V750H169.92V735.3H176.64C177.97 735.3 179.125 735.524 180.105 735.972C181.085 736.406 181.841 737.036 182.373 737.862C182.905 738.674 183.171 739.633 183.171 740.739C183.171 741.803 182.919 742.734 182.415 743.532C181.925 744.316 181.218 744.932 180.294 745.38L183.465 750H179.013L176.346 746.094ZM178.971 740.739C178.971 740.053 178.754 739.521 178.32 739.143C177.886 738.765 177.242 738.576 176.388 738.576H174.078V742.881H176.388C177.242 742.881 177.886 742.699 178.32 742.335C178.754 741.957 178.971 741.425 178.971 740.739ZM196.91 744.33C196.91 744.358 196.889 744.687 196.847 745.317H188.573C188.741 745.905 189.063 746.36 189.539 746.682C190.029 746.99 190.638 747.144 191.366 747.144C191.912 747.144 192.381 747.067 192.773 746.913C193.179 746.759 193.585 746.507 193.991 746.157L196.091 748.341C194.985 749.573 193.368 750.189 191.24 750.189C189.91 750.189 188.741 749.937 187.733 749.433C186.725 748.929 185.941 748.229 185.381 747.333C184.835 746.437 184.562 745.422 184.562 744.288C184.562 743.168 184.828 742.167 185.36 741.285C185.906 740.389 186.655 739.689 187.607 739.185C188.559 738.681 189.63 738.429 190.82 738.429C191.954 738.429 192.983 738.667 193.907 739.143C194.831 739.605 195.559 740.284 196.091 741.18C196.637 742.062 196.91 743.112 196.91 744.33ZM190.841 741.264C190.225 741.264 189.707 741.439 189.287 741.789C188.881 742.139 188.622 742.615 188.51 743.217H193.172C193.06 742.615 192.794 742.139 192.374 741.789C191.968 741.439 191.457 741.264 190.841 741.264ZM205.91 738.429C206.946 738.429 207.884 738.674 208.724 739.164C209.578 739.64 210.25 740.326 210.74 741.222C211.244 742.104 211.496 743.133 211.496 744.309C211.496 745.485 211.244 746.521 210.74 747.417C210.25 748.299 209.578 748.985 208.724 749.475C207.884 749.951 206.946 750.189 205.91 750.189C204.58 750.189 203.523 749.79 202.739 748.992V754.074H198.749V738.618H202.55V739.752C203.292 738.87 204.412 738.429 205.91 738.429ZM205.07 747.018C205.77 747.018 206.344 746.78 206.792 746.304C207.24 745.814 207.464 745.149 207.464 744.309C207.464 743.469 207.24 742.811 206.792 742.335C206.344 741.845 205.77 741.6 205.07 741.6C204.37 741.6 203.796 741.845 203.348 742.335C202.9 742.811 202.676 743.469 202.676 744.309C202.676 745.149 202.9 745.814 203.348 746.304C203.796 746.78 204.37 747.018 205.07 747.018ZM219.063 750.189C217.845 750.189 216.746 749.937 215.766 749.433C214.786 748.929 214.016 748.229 213.456 747.333C212.91 746.437 212.637 745.422 212.637 744.288C212.637 743.168 212.91 742.16 213.456 741.264C214.016 740.368 214.779 739.675 215.745 739.185C216.725 738.681 217.831 738.429 219.063 738.429C220.295 738.429 221.401 738.681 222.381 739.185C223.361 739.675 224.124 740.368 224.67 741.264C225.216 742.146 225.489 743.154 225.489 744.288C225.489 745.422 225.216 746.437 224.67 747.333C224.124 748.229 223.361 748.929 222.381 749.433C221.401 749.937 220.295 750.189 219.063 750.189ZM219.063 747.018C219.763 747.018 220.337 746.78 220.785 746.304C221.233 745.814 221.457 745.142 221.457 744.288C221.457 743.448 221.233 742.79 220.785 742.314C220.337 741.838 219.763 741.6 219.063 741.6C218.363 741.6 217.789 741.838 217.341 742.314C216.893 742.79 216.669 743.448 216.669 744.288C216.669 745.142 216.893 745.814 217.341 746.304C217.789 746.78 218.363 747.018 219.063 747.018ZM231.138 739.983C231.544 739.465 232.069 739.08 232.713 738.828C233.371 738.562 234.12 738.429 234.96 738.429V742.02C234.596 741.978 234.295 741.957 234.057 741.957C233.203 741.957 232.531 742.188 232.041 742.65C231.565 743.112 231.327 743.819 231.327 744.771V750H227.337V738.618H231.138V739.983ZM244.809 749.538C244.473 749.748 244.06 749.909 243.57 750.021C243.094 750.133 242.583 750.189 242.037 750.189C240.553 750.189 239.412 749.825 238.614 749.097C237.816 748.369 237.417 747.284 237.417 745.842V742.02H235.758V739.038H237.417V736.077H241.407V739.038H244.011V742.02H241.407V745.8C241.407 746.206 241.512 746.528 241.722 746.766C241.946 746.99 242.24 747.102 242.604 747.102C243.066 747.102 243.472 746.983 243.822 746.745L244.809 749.538Z" fill="white"/>
<path d="M261.5 748L267.5 742L261.5 736" stroke="white" stroke-width="3" stroke-linecap="round" stroke-linejoin="round"/>
</g>
</g>
<defs>
<filter id="filter0_d_186_1577" x="24" y="43" width="48" height="50" filterUnits="userSpaceOnUse" color-interpolation-filters="sRGB">
<feFlood flood-opacity="0" result="BackgroundImageFix"/>
<feColorMatrix in="SourceAlpha" type="matrix" values="0 0 0 0 0 0 0 0 0 0 0 0 0 0 0 0 0 0 127 0" result="hardAlpha"/>
<feOffset dy="2"/>
<feColorMatrix type="matrix" values="0 0 0 0 0.0941176 0 0 0 0 0.0980392 0 0 0 0 0.121569 0 0 0 1 0"/>
<feBlend mode="normal" in2="BackgroundImageFix" result="effect1_dropShadow_186_1577"/>
<feBlend mode="normal" in="SourceGraphic" in2="effect1_dropShadow_186_1577" result="shape"/>
</filter>
<clipPath id="clip0_186_1577">
<rect width="375" height="812" fill="white"/>
</clipPath>
<clipPath id="clip1_186_1577">
<rect width="176" height="28" fill="white" transform="translate(99.5 728)"/>
</clipPath>
</defs>
</svg>
